<?xml version="1.0" standalone="no"?>
<!DOCTYPE svg PUBLIC "-//W3C//DTD SVG 20010904//EN"
 "http://www.w3.org/TR/2001/REC-SVG-20010904/DTD/svg10.dtd">
<svg version="1.0" xmlns="http://www.w3.org/2000/svg"
 width="1200.000000pt" height="489.000000pt" viewBox="0 0 1200.000000 489.000000"
 preserveAspectRatio="xMidYMid meet">

<g transform="translate(0.000000,489.000000) scale(0.100000,-0.100000)"
fill="#000000" stroke="none">
<path d="M1689 3858 c24 -12 56 -39 72 -61 33 -45 36 -57 14 -57 -26 0 -16
-17 19 -34 44 -21 49 -20 34 3 -7 11 -18 17 -27 13 -11 -4 -13 -1 -8 13 5 11
-1 32 -14 54 l-21 36 29 -28 c16 -15 32 -25 35 -22 2 3 13 -5 24 -17 19 -21
19 -21 -4 -16 -12 4 -20 3 -17 -2 2 -4 27 -10 55 -12 31 -3 65 -15 92 -33 l43
-28 -25 28 c-29 32 -71 55 -99 55 -11 0 -27 7 -35 16 -9 9 -23 17 -31 18 -8 1
-23 14 -35 28 -11 15 -45 36 -76 47 -70 27 -81 26 -25 -1z"/>
<path d="M2770 3741 c0 -6 4 -13 10 -16 6 -3 7 1 4 9 -7 18 -14 21 -14 7z"/>
<path d="M2793 3693 c-5 -15 -9 -41 -8 -58 1 -21 -7 -37 -27 -53 -18 -15 -30
-37 -34 -62 -4 -24 -13 -41 -23 -43 -14 -4 -14 -5 2 -6 15 -1 17 -13 17 -106
l0 -105 -25 0 c-14 0 -28 -7 -32 -15 -8 -22 16 -101 36 -119 10 -9 16 -28 15
-43 -1 -16 -5 -180 -9 -365 l-7 -337 -27 -3 c-24 -3 -26 -7 -25 -46 0 -27 9
-54 23 -73 22 -30 22 -33 16 -277 -3 -136 -8 -289 -11 -339 -6 -89 -7 -93 -29
-93 -43 0 -51 -25 -25 -81 13 -28 30 -53 37 -57 10 -6 11 -68 6 -297 -4 -160
-10 -274 -13 -255 -3 19 -2 147 3 284 6 207 5 252 -7 265 -19 22 -56 97 -56
114 0 20 32 45 53 42 13 -3 17 4 17 29 0 18 3 55 7 81 5 40 4 47 -8 40 -11 -6
-12 -5 -1 6 9 9 12 62 12 191 0 136 -3 178 -12 178 -8 0 -14 -14 -15 -33 -1
-25 0 -28 7 -12 6 15 7 10 7 -18 -1 -34 -2 -37 -14 -21 -7 10 -13 23 -13 30 0
6 -7 18 -16 25 -15 12 -16 11 -10 -9 5 -15 3 -22 -6 -22 -11 0 -13 -14 -10
-60 5 -63 -7 -78 -26 -35 -9 19 -8 35 3 72 17 57 19 73 5 73 -5 0 -10 -9 -10
-20 0 -11 -7 -23 -15 -26 -8 -4 -15 -10 -15 -15 0 -4 7 -6 15 -3 11 4 13 2 9
-9 -3 -9 -12 -18 -21 -21 -12 -5 -13 -9 -3 -21 10 -12 10 -15 -1 -15 -11 0
-11 -2 1 -10 13 -9 13 -11 0 -20 -11 -7 -19 -1 -32 27 -17 34 -16 59 2 48 9
-6 23 25 15 33 -3 3 -5 1 -5 -5 0 -5 -7 -10 -15 -10 -8 0 -15 9 -15 19 0 11
-5 16 -11 12 -6 -3 -9 -14 -6 -24 2 -10 1 -23 -3 -30 -9 -15 -30 -5 -30 15 0
7 -7 15 -15 19 -8 3 -15 12 -15 19 0 8 -7 20 -15 27 -8 7 -12 17 -8 24 4 6 -1
5 -10 -3 -21 -17 -22 -41 -3 -41 8 0 18 -5 22 -12 4 -7 3 -8 -4 -4 -7 4 -12 1
-12 -8 0 -9 5 -16 10 -16 19 0 52 -37 41 -45 -6 -3 -11 -32 -12 -63 0 -31 -3
-52 -5 -45 -3 7 -13 10 -22 7 -15 -5 -15 -4 1 9 21 17 22 27 3 27 -8 0 -16 7
-20 15 -7 18 5 20 22 3 9 -9 12 -8 12 8 0 10 -9 25 -21 32 -20 13 -20 14 -2
27 17 13 17 14 1 15 -10 0 -18 7 -18 16 0 8 -4 13 -8 10 -4 -2 -7 -23 -5 -45
1 -30 -2 -41 -13 -41 -7 0 -14 7 -14 15 0 8 -5 15 -11 15 -6 0 -8 -7 -5 -16 3
-9 6 -40 6 -70 0 -39 3 -53 12 -48 7 4 8 3 4 -4 -4 -7 -11 -12 -15 -12 -17 0
-61 50 -67 77 -7 30 -44 84 -44 64 0 -6 -4 -11 -10 -11 -5 0 -10 18 -10 40 0
22 -4 40 -9 40 -5 0 -11 8 -14 18 -2 9 -1 -17 1 -58 3 -41 6 -77 8 -79 2 -3
10 3 17 12 11 16 13 16 24 -2 8 -13 9 -22 3 -26 -18 -11 -10 -26 11 -20 14 5
20 3 18 -7 -4 -33 2 -69 11 -63 6 4 7 11 4 17 -4 6 2 6 15 -1 11 -7 21 -18 21
-26 0 -8 4 -15 9 -15 5 0 9 -15 9 -33 0 -29 -3 -33 -26 -32 -23 0 -27 4 -27
32 -1 18 -4 35 -8 39 -4 4 -7 0 -7 -9 0 -9 -4 -17 -9 -17 -5 0 -8 8 -7 17 1
20 -31 30 -47 14 -7 -7 -6 -15 4 -27 13 -16 12 -17 -8 -12 -16 4 -23 2 -23 -8
0 -8 -5 -14 -10 -14 -7 0 -8 6 -2 17 6 10 6 29 0 50 -5 19 -7 46 -3 61 3 17 0
35 -9 47 -12 17 -13 10 -9 -56 3 -54 2 -70 -6 -59 -9 13 -11 13 -11 -2 0 -20
-15 -24 -25 -8 -4 6 -7 24 -7 40 -1 17 -5 33 -9 36 -5 3 -6 -1 -3 -9 2 -7 -1
-14 -9 -14 -9 0 -12 10 -9 31 3 24 1 28 -7 16 -17 -24 -13 -57 7 -62 10 -3 18
-15 19 -29 2 -18 0 -20 -7 -9 -5 8 -7 17 -4 21 2 4 -5 9 -16 12 -11 3 -20 12
-20 20 0 8 -7 18 -16 21 -8 3 -12 2 -9 -4 3 -6 1 -10 -5 -10 -6 0 -8 -5 -4
-11 5 -8 9 -8 14 1 5 8 9 7 14 -6 9 -23 2 -28 -24 -14 -18 10 -22 9 -27 -9 -3
-11 -10 -18 -16 -14 -6 3 -7 1 -3 -5 8 -14 36 -4 32 11 -1 7 -1 9 1 4 3 -4 9
-5 14 -1 5 3 9 1 9 -4 0 -19 -72 -44 -112 -39 -93 13 -144 95 -115 187 l8 25
-21 -25 c-19 -21 -21 -32 -16 -85 3 -33 6 -75 6 -93 0 -19 4 -31 10 -27 5 3 6
13 3 22 -5 12 3 10 28 -9 19 -14 44 -29 56 -32 20 -6 21 -12 16 -64 -7 -71
-18 -89 -92 -146 -68 -52 -95 -62 -38 -13 36 30 37 32 14 32 -17 0 -23 -4 -19
-14 4 -10 1 -12 -8 -6 -8 5 -11 4 -7 -2 4 -6 0 -16 -8 -23 -8 -7 -13 -16 -10
-20 3 -5 -23 -30 -57 -56 -171 -131 -253 -238 -250 -328 1 -28 5 -183 8 -343
l5 -293 -146 0 -146 0 4 498 c2 339 7 513 15 546 15 63 -3 145 -51 226 -50 85
-195 223 -390 370 -99 74 -201 158 -228 188 -48 52 -49 55 -49 115 0 34 -3 72
-6 84 -12 44 -24 11 -24 -67 l0 -78 -45 -50 c-25 -27 -108 -98 -185 -157
l-140 -107 0 -1004 0 -1004 6000 0 6000 0 0 1235 0 1235 -112 0 c-62 0 -197 3
-300 7 l-187 6 -7 -27 c-3 -14 -11 -26 -18 -25 -32 4 -46 -3 -46 -21 0 -22 0
-22 -88 -20 -64 1 -120 -20 -107 -40 4 -6 1 -10 -6 -10 -7 0 -9 8 -6 21 5 20
2 20 -85 18 -61 -2 -92 -7 -95 -15 -3 -10 -32 -12 -110 -9 -58 3 -110 2 -115
-1 -4 -3 -4 -13 1 -23 7 -13 6 -18 -5 -19 -7 -1 -21 -3 -29 -4 -8 -1 -15 -6
-15 -11 0 -6 -22 -7 -55 -3 -44 5 -55 3 -55 -8 0 -15 -92 -28 -98 -14 -2 4
-13 8 -25 8 -17 0 -19 -2 -8 -9 12 -8 -177 -23 -259 -22 -14 1 -38 0 -55 -2
-28 -2 -30 -5 -28 -42 2 -22 -1 -35 -5 -29 -8 13 -107 26 -117 16 -4 -4 -25
-8 -48 -8 -72 -2 -77 -4 -77 -19 0 -12 -7 -14 -27 -9 -22 6 -25 4 -20 -10 4
-11 3 -16 -4 -14 -6 2 -10 8 -9 13 1 11 -83 24 -117 17 -13 -2 -21 -8 -18 -12
3 -4 -7 -11 -22 -15 -16 -3 -32 -12 -36 -18 -6 -9 -10 -9 -14 1 -2 6 -12 12
-20 12 -14 0 -14 -3 2 -20 20 -22 24 -21 -62 -25 -29 -2 -53 1 -53 6 0 5 19
10 43 10 32 2 35 3 13 6 -44 7 -76 -5 -76 -27 0 -23 -64 -40 -83 -21 -13 13
-57 15 -57 2 0 -5 6 -12 13 -14 6 -3 2 -6 -10 -6 -16 -1 -21 3 -17 14 4 8 2
15 -4 15 -5 0 -12 -7 -16 -15 -4 -12 -15 -14 -46 -9 -35 6 -40 4 -34 -10 4
-11 13 -15 25 -11 13 5 17 2 14 -8 -4 -10 -26 -13 -90 -11 -54 2 -87 -2 -92
-9 -3 -6 -1 -13 5 -15 30 -10 7 -17 -50 -15 -35 1 -53 -1 -40 -4 46 -10 20
-20 -45 -18 -59 2 -61 2 -18 -4 40 -5 45 -7 26 -13 -12 -4 -20 -11 -16 -17 3
-7 0 -8 -9 -5 -9 3 -13 10 -10 15 9 16 -64 10 -80 -7 -15 -14 -16 -14 -16 0 0
9 -4 16 -10 16 -5 0 -10 -4 -10 -9 0 -5 -24 -8 -52 -7 -45 1 -53 -2 -52 -16 1
-10 -2 -15 -7 -12 -5 3 -9 0 -9 -5 0 -12 -27 -10 -47 2 -7 5 -13 4 -13 -1 0
-6 -9 -8 -20 -5 -11 3 -20 0 -20 -6 0 -6 8 -11 18 -11 14 0 14 -2 3 -9 -8 -5
-21 -7 -29 -3 -11 4 -13 2 -7 -8 6 -10 4 -12 -8 -7 -12 4 -17 1 -17 -10 0 -16
-1 -16 -17 -1 -15 15 -19 15 -45 2 -24 -12 -42 -13 -104 -5 -69 10 -76 9 -95
-10 -15 -15 -30 -20 -51 -17 -22 4 -34 -1 -48 -19 -20 -26 -35 -29 -44 -10 -3
6 -3 1 0 -12 4 -13 2 -21 -3 -18 -16 10 -67 17 -85 11 -10 -3 -18 -11 -18 -19
0 -9 -9 -11 -32 -6 -43 8 -100 2 -93 -10 4 -5 2 -9 -4 -9 -5 0 -11 6 -14 13
-3 8 -10 7 -26 -7 -16 -15 -18 -21 -9 -28 7 -4 8 -8 3 -8 -6 0 -16 5 -22 11
-8 8 -13 8 -17 0 -4 -6 -19 -11 -33 -11 -26 0 -26 0 -8 -20 18 -20 18 -21 -1
-14 -10 4 -22 12 -26 18 -4 6 -13 5 -24 -5 -9 -8 -20 -13 -23 -12 -8 4 -8 3
-11 -227 -3 -196 -4 -190 -11 135 -7 277 -6 342 5 355 20 23 40 85 33 104 -4
9 -15 16 -25 16 -18 0 -20 16 -27 349 -7 340 -6 351 14 406 26 70 26 73 -4 85
-24 9 -25 12 -25 105 0 78 3 95 15 95 18 0 20 16 2 23 -7 2 -13 17 -15 33 -1
15 -14 41 -29 56 -19 20 -27 40 -29 71 -3 39 0 45 24 55 21 9 22 10 4 6 -16
-4 -31 1 -48 17 -13 12 -24 18 -24 12 0 -6 7 -16 15 -23 8 -7 12 -17 9 -22 -3
-5 -7 -27 -8 -49 -2 -26 -11 -48 -28 -67 -14 -15 -29 -42 -33 -59 -4 -18 -11
-33 -16 -33 -5 0 -9 -4 -9 -10 0 -5 6 -9 13 -7 6 1 12 -4 11 -10 -1 -7 -2 -53
-2 -103 -2 -88 -2 -90 -26 -90 -14 0 -28 -5 -31 -10 -9 -15 25 -110 41 -117
15 -6 15 -30 -2 -530 -6 -165 -8 -183 -24 -183 -10 0 -23 -7 -30 -15 -16 -20
3 -86 32 -112 16 -14 18 -27 14 -78 -3 -33 -8 -181 -12 -330 -3 -148 -8 -272
-11 -275 -3 -3 -3 86 0 198 4 177 0 223 -16 195 -2 -5 -2 -2 -1 5 2 6 -1 12
-6 12 -6 0 -10 -4 -10 -10 0 -5 -3 -9 -7 -8 -5 1 -22 -1 -40 -5 l-32 -6 1
-103 c1 -122 3 -132 31 -147 15 -8 16 -10 4 -6 -10 3 -25 5 -33 5 -12 0 -14
42 -14 259 0 235 2 263 19 302 20 45 15 69 -15 69 -11 0 -14 53 -16 278 -3
248 -1 281 15 320 19 44 16 62 -9 62 -19 0 -21 156 -1 163 9 4 9 6 0 6 -7 1
-13 14 -13 29 0 17 -10 37 -23 50 -17 16 -23 32 -22 60 0 24 -6 43 -17 55 -10
9 -18 13 -18 8 0 -6 5 -13 10 -16 17 -11 1 -86 -25 -117 -14 -16 -25 -38 -25
-48 0 -10 -6 -21 -12 -23 -10 -4 -10 -6 0 -6 8 -1 12 -24 12 -81 0 -73 -2 -80
-19 -80 -32 0 -34 -18 -8 -73 l26 -52 -6 -267 c-6 -245 -8 -268 -23 -268 -36
0 -40 -23 -14 -75 l24 -50 -6 -252 c-6 -230 -9 -253 -24 -253 -28 0 -43 -25
-31 -49 6 -11 11 -23 11 -28 -1 -4 -8 5 -16 20 -14 26 -14 30 2 48 9 10 23 19
31 19 18 0 19 176 1 183 -10 4 -9 8 2 16 12 9 13 13 2 20 -16 10 -62 6 -71 -6
-12 -16 -49 -31 -94 -38 -33 -5 -47 -12 -50 -26 -3 -11 -1 -16 5 -13 5 4 5 -3
-2 -16 -13 -25 -6 -54 13 -47 6 2 20 0 30 -5 15 -7 17 -24 17 -118 l0 -109 63
-4 62 -3 -67 -2 -68 -2 0 115 0 115 -34 0 -33 0 -8 98 c-4 53 -7 110 -7 125
-1 17 -4 24 -8 16 -6 -8 -13 -2 -23 18 -22 42 -96 112 -178 169 -150 104 -257
189 -337 267 -90 89 -193 228 -174 235 19 6 14 30 -8 37 -11 3 -20 12 -20 19
0 7 9 21 20 31 25 23 25 30 0 55 -17 17 -18 23 -8 40 10 15 10 22 0 32 -24 24
-14 45 27 52 21 3 44 13 51 21 11 13 8 13 -19 4 -22 -8 -40 -8 -65 1 -43 14
-57 31 -66 78 l-7 37 -12 -29 c-14 -35 0 -81 30 -97 22 -11 25 -49 7 -67 -10
-10 -10 -17 0 -33 12 -18 11 -23 -7 -36 -27 -18 -27 -49 -1 -63 26 -14 26 -37
-1 -45 -16 -5 -19 -12 -15 -30 4 -16 -7 -40 -43 -91 -96 -135 -209 -240 -401
-373 -68 -47 -152 -113 -185 -146 -73 -71 -93 -119 -102 -242 l-6 -83 -33 0
-34 0 0 -115 0 -115 -65 0 -65 0 0 -115 c0 -70 -4 -115 -10 -115 -13 0 -13
277 0 285 5 3 19 25 30 48 10 23 19 35 20 27 0 -8 -11 -35 -25 -59 -37 -63
-34 -66 40 -63 l64 4 3 111 3 112 33 3 32 3 0 59 c0 53 -2 58 -20 53 -11 -3
-46 4 -78 15 -78 27 -112 34 -112 23 0 -16 23 -26 50 -22 14 2 22 0 19 -4 -4
-3 -20 -7 -36 -7 -28 -1 -30 -3 -28 -42 1 -23 -2 -50 -6 -61 -4 -11 -8 80 -8
201 -1 198 1 226 18 264 21 47 18 70 -9 70 -16 0 -17 18 -20 223 -1 122 -4
246 -5 276 -1 29 3 65 10 80 27 55 28 72 6 78 -19 5 -21 13 -21 83 0 53 4 80
13 83 10 4 10 6 0 6 -7 1 -13 12 -13 25 0 13 -10 35 -21 50 -12 15 -22 43 -23
64 0 20 -9 45 -18 55 -10 9 -18 13 -18 8 0 -6 5 -13 10 -16 16 -10 2 -87 -20
-110 -11 -12 -20 -30 -20 -41 0 -11 -5 -25 -12 -32 -8 -8 -8 -12 -1 -12 9 0
10 -36 5 -132 -2 -21 -7 -28 -22 -28 -27 0 -26 -33 0 -85 20 -38 21 -50 13
-275 -4 -129 -8 -248 -8 -265 0 -21 -6 -32 -20 -35 -28 -8 -30 -34 -5 -85 21
-44 22 -51 15 -295 -7 -224 -9 -250 -24 -250 -10 0 -23 -6 -31 -12 -12 -11
-12 -10 -1 5 7 9 20 17 27 17 11 0 14 26 14 129 0 71 -3 136 -6 145 -4 11 -19
16 -45 16 -29 0 -39 4 -39 16 0 13 -3 14 -15 4 -11 -9 -22 -9 -44 -2 -22 8
-32 7 -44 -5 -10 -10 -17 -11 -21 -4 -4 6 0 11 11 11 15 0 16 2 3 10 -10 6
-11 10 -2 10 6 0 12 7 12 15 0 8 -7 15 -15 15 -8 0 -15 -7 -15 -15 0 -11 -7
-14 -25 -11 -21 4 -28 0 -36 -22 -6 -14 -8 -35 -5 -45 3 -13 0 -17 -12 -15 -8
2 -19 17 -24 34 -5 18 -18 35 -33 42 -35 16 -37 15 -30 -8 4 -11 2 -20 -4 -20
-6 0 -11 11 -11 25 0 15 -6 25 -15 25 -8 0 -20 9 -27 20 -7 11 -23 20 -36 20
-13 0 -21 4 -17 9 3 5 1 12 -5 16 -13 8 -13 -28 1 -42 8 -8 7 -13 -2 -18 -8
-5 -10 -4 -5 3 4 7 2 12 -3 12 -6 0 -11 -9 -11 -21 0 -11 4 -18 8 -15 10 6 9
-24 -1 -41 -4 -6 -2 -15 4 -18 6 -4 8 -18 5 -31 -5 -19 0 -26 24 -39 30 -15
60 -60 60 -89 0 -9 19 -25 42 -37 110 -56 210 -135 250 -198 15 -25 28 -50 28
-55 -1 -6 -10 6 -21 27 -37 70 -169 177 -278 224 -24 11 -37 22 -34 30 10 24
-18 70 -53 89 -28 16 -34 23 -29 42 3 13 2 28 -2 35 -4 7 -8 30 -9 52 -5 96
-16 185 -24 185 -7 0 -16 -76 -25 -213 -1 -15 -5 -30 -8 -33 -3 -4 -2 -15 3
-25 8 -14 3 -21 -26 -39 -43 -27 -68 -63 -60 -88 5 -15 -3 -23 -36 -38 -65
-29 -180 -107 -222 -150 -56 -57 -69 -90 -76 -184 l-7 -85 -1 76 c-2 63 2 84
24 127 36 73 168 180 278 226 22 9 35 20 31 26 -12 20 16 69 52 91 25 16 32
26 28 40 -4 10 -3 24 2 31 9 16 11 68 1 68 -3 0 -9 -6 -12 -12 -3 -9 -10 -7
-23 8 -16 18 -22 20 -37 8 -18 -13 -50 -9 -41 6 5 8 -41 51 -48 44 -2 -3 -18
9 -36 25 -29 27 -35 29 -32 9 0 -5 -1 -8 -4 -8 -9 0 -59 34 -67 45 -5 6 -8 6
-8 0 0 -5 -8 1 -16 15 l-15 25 4 -31 c2 -24 0 -31 -11 -27 -8 3 -18 0 -23 -8
-7 -9 -8 -4 -3 16 3 17 2 25 -3 19 -20 -27 -52 -35 -81 -20 -15 8 -40 12 -56
9 -20 -4 -27 -2 -22 5 4 6 -4 18 -18 27 -19 13 -29 14 -45 6 -27 -15 -31 -14
-25 4 5 12 -3 15 -35 15 -26 0 -41 5 -42 13 0 6 -4 3 -9 -8 -9 -19 -9 -19 -16
3 -7 26 -31 24 -26 -2 2 -9 -2 -16 -8 -16 -6 0 -10 10 -8 22 2 16 -3 23 -17
26 -12 2 -16 0 -9 -5 19 -14 12 -43 -10 -43 -26 1 -60 25 -52 39 3 5 -8 12
-24 16 -17 4 -40 17 -52 28 l-20 22 7 -32 c4 -22 3 -33 -5 -33 -14 0 -40 25
-40 39 0 6 -4 11 -9 11 -5 0 -11 9 -14 20 -3 11 -12 20 -21 20 -14 0 -15 -4
-6 -20 11 -21 6 -40 -11 -40 -12 0 -49 37 -49 50 0 6 -6 10 -12 10 -9 0 -8 4
2 11 12 9 12 10 -3 5 -10 -3 -21 -6 -23 -6 -2 0 -4 -9 -4 -19 0 -19 -2 -19
-32 -4 -42 21 -38 16 -53 60 -8 21 -14 32 -15 24 0 -8 -7 -11 -17 -7 -16 5
-16 5 -2 -7 17 -12 35 -57 24 -57 -3 0 -17 12 -30 26 l-25 27 0 -32 c0 -22 -5
-31 -17 -31 -15 0 -14 -2 3 -15 18 -15 18 -15 -6 -13 -18 2 -26 10 -28 27 -2
14 -7 20 -11 13 -4 -7 -11 -5 -19 8 -11 17 -10 20 8 20 11 0 23 -7 26 -15 8
-19 20 -19 28 0 4 11 -3 19 -19 25 -14 5 -25 15 -25 21 0 7 -8 3 -18 -9 -16
-18 -18 -46 -21 -251 l-3 -231 25 0 c13 0 31 -8 41 -18 15 -18 15 -22 -8 -75
-14 -30 -30 -58 -35 -62 -7 -4 -12 -117 -13 -333 l-3 -327 -5 325 c-4 291 -3
327 11 345 9 11 27 39 38 63 26 50 17 72 -29 72 l-28 0 -4 348 c-4 328 -3 348
15 373 27 37 34 104 12 113 -9 3 -20 4 -24 1 -12 -7 -21 186 -21 468 0 240 2
264 21 318 23 64 20 89 -11 89 -19 0 -20 6 -20 105 0 93 2 105 18 105 16 1 16
1 0 11 -11 6 -18 22 -18 40 0 20 -9 39 -27 55 -23 21 -28 35 -30 81 -3 66 -7
74 -20 36z m8620 -1290 c-7 -2 -19 -2 -25 0 -7 3 -2 5 12 5 14 0 19 -2 13 -5z
m-393 -53 c0 -5 -9 -10 -19 -10 -11 0 -23 5 -26 10 -4 6 5 10 19 10 14 0 26
-4 26 -10z m70 0 c20 -6 21 -8 5 -8 -11 0 -29 3 -40 8 -25 11 1 11 35 0z
m-203 -52 c-3 -7 -5 -2 -5 12 0 14 2 19 5 13 2 -7 2 -19 0 -25z m-1269 -200
c8 -10 4 -13 -13 -14 -19 -2 -21 1 -12 12 15 16 13 16 25 2z m-510 -135 c-10
-2 -26 -2 -35 0 -10 3 -2 5 17 5 19 0 27 -2 18 -5z m-118 -13 c0 -5 -4 -10
-10 -10 -5 0 -10 5 -10 10 0 6 5 10 10 10 6 0 10 -4 10 -10z m-5976 -25 c3 -8
1 -15 -4 -15 -6 0 -10 7 -10 15 0 8 2 15 4 15 2 0 6 -7 10 -15z m113 -17 c-3
-8 -6 -5 -6 6 -1 11 2 17 5 13 3 -3 4 -12 1 -19z m-775 -13 c3 -13 1 -22 -3
-19 -9 5 -13 44 -5 44 2 0 6 -11 8 -25z m6495 9 c-3 -3 -12 -4 -19 -1 -8 3 -5
6 6 6 11 1 17 -2 13 -5z m-127 -13 c0 -5 -13 -9 -30 -9 -16 1 -27 5 -24 10 7
11 54 10 54 -1z m-6690 -101 c0 -5 -4 -10 -9 -10 -4 0 -6 -11 -3 -25 2 -14 8
-22 13 -19 5 3 6 -2 3 -10 -3 -9 -10 -16 -15 -16 -5 0 -12 0 -16 0 -5 0 -8 5
-8 10 0 11 -9 14 -28 7 -6 -2 0 -11 16 -21 27 -18 37 -46 16 -46 -5 0 -8 3 -6
8 2 4 -6 18 -19 32 -17 18 -24 20 -25 10 -2 -31 3 -65 12 -74 5 -6 9 -17 9
-25 -1 -13 -3 -12 -11 3 -9 15 -13 16 -20 5 -7 -11 -9 -10 -9 4 0 9 -4 17 -9
17 -4 0 -6 11 -4 24 3 16 -1 25 -14 30 -14 6 -15 4 -6 -5 6 -6 9 -18 6 -25 -3
-8 0 -21 6 -28 8 -10 9 -16 1 -21 -5 -3 -10 -12 -10 -18 0 -7 4 -6 11 3 9 13
10 13 6 -2 -3 -9 3 -24 14 -34 21 -19 24 -13 8 19 -10 21 -10 21 6 2 8 -11 13
-25 11 -32 -6 -16 121 -116 136 -107 6 4 8 3 5 -3 -3 -5 32 -41 79 -79 104
-83 176 -176 192 -246 7 -27 9 -55 5 -61 -5 -7 -11 -122 -14 -257 l-6 -245 3
250 c2 138 3 266 3 285 1 86 -86 189 -289 345 -170 130 -190 153 -190 222 0
49 0 50 39 62 23 6 51 26 68 45 29 35 43 44 43 26z m1943 -25 c-3 -9 -8 -14
-10 -11 -3 3 -2 9 2 15 9 16 15 13 8 -4z m-1853 -17 c0 -19 -2 -20 -10 -8 -13
19 -13 30 0 30 6 0 10 -10 10 -22z m1754 5 c6 -15 4 -15 -18 -7 -20 8 -21 21
-1 21 8 0 16 -6 19 -14z m163 11 c-3 -3 -12 -4 -19 -1 -8 3 -5 6 6 6 11 1 17
-2 13 -5z m4158 -23 c-3 -6 -11 -11 -16 -11 -5 0 -4 6 3 14 14 16 24 13 13 -3z
m-6131 -19 c3 -5 -1 -9 -9 -9 -8 0 -12 4 -9 9 3 4 7 8 9 8 2 0 6 -4 9 -8z
m106 -2 c0 -5 -5 -10 -11 -10 -5 0 -7 5 -4 10 3 6 8 10 11 10 2 0 4 -4 4 -10z
m5880 0 c0 -5 -4 -10 -10 -10 -5 0 -10 5 -10 10 0 6 5 10 10 10 6 0 10 -4 10
-10z m-130 -24 c0 -8 -4 -18 -10 -21 -5 -3 -7 0 -4 9 3 8 -2 16 -13 19 -14 4
-14 5 5 6 13 1 22 -5 22 -13z m-3374 -51 c14 -13 13 -15 -4 -15 -10 0 -19 7
-19 15 0 8 2 15 4 15 3 0 11 -7 19 -15z m181 -12 c-4 -3 -2 -12 4 -20 9 -10 6
-13 -12 -12 -13 0 -19 3 -12 5 7 3 9 12 6 20 -3 8 1 14 8 14 7 0 9 -3 6 -7z
m-27 -7 c0 -2 -7 -6 -15 -10 -8 -3 -15 -1 -15 4 0 6 7 10 15 10 8 0 15 -2 15
-4z m93 -3 c-7 -2 -19 -2 -25 0 -7 3 -2 5 12 5 14 0 19 -2 13 -5z m2514 -75
c-3 -8 -6 -5 -6 6 -1 11 2 17 5 13 3 -3 4 -12 1 -19z m33 12 c0 -5 -2 -10 -4
-10 -3 0 -8 5 -11 10 -3 6 -1 10 4 10 6 0 11 -4 11 -10z m1827 -87 c-2 -21 -4
-6 -4 32 0 39 2 55 4 38 2 -18 2 -50 0 -70z m-2097 62 c0 -8 -7 -11 -20 -8
-23 6 -26 19 -7 26 16 6 27 -1 27 -18z m0 -29 c0 -2 -7 -7 -16 -10 -8 -3 -12
-2 -9 4 6 10 25 14 25 6z m2142 -78 c2 -25 0 -44 -4 -41 -5 2 -7 32 -7 66 2
65 6 55 11 -25z m-4099 -87 c14 -7 15 -10 4 -6 -10 3 -25 5 -32 5 -9 0 -11 7
-7 23 5 16 7 18 10 6 1 -9 13 -22 25 -28z m-1639 -78 c-4 -49 -8 -97 -8 -109
-1 -12 -16 -33 -33 -48 -19 -16 -33 -37 -33 -50 0 -16 -13 -28 -52 -48 -69
-33 -154 -101 -179 -141 -10 -18 -19 -25 -19 -17 0 24 111 123 176 157 50 27
63 39 68 63 3 19 16 37 34 47 22 13 28 24 29 52 2 64 15 181 20 181 3 0 1 -39
-3 -87z m45 -11 c5 -31 4 -49 -1 -44 -4 4 -10 40 -13 78 -4 70 0 60 14 -34z
m4718 31 c-3 -10 -5 -2 -5 17 0 19 2 27 5 18 2 -10 2 -26 0 -35z m-891 11 c-4
-9 -9 -15 -11 -12 -3 3 -3 13 1 22 4 9 9 15 11 12 3 -3 3 -13 -1 -22z m-2467
-53 l23 -36 -23 22 c-14 12 -30 37 -36 55 -9 26 -9 29 0 14 7 -10 23 -35 36
-55z m4371 21 c0 -1 -9 2 -20 8 -11 6 -20 15 -20 20 0 6 9 2 20 -7 11 -10 20
-19 20 -21z m-1053 -9 c-3 -10 -5 -4 -5 12 0 17 2 24 5 18 2 -7 2 -21 0 -30z
m-873 -7 c-3 -9 -10 -16 -15 -16 -5 0 -10 -111 -11 -247 l-3 -248 -2 243 c-3
219 -2 245 14 266 20 27 27 27 17 2z m1769 -9 c-15 -19 -30 -32 -32 -30 -5 3
49 63 57 63 2 0 -9 -15 -25 -33z m-846 -24 c-3 -10 -5 -2 -5 17 0 19 2 27 5
18 2 -10 2 -26 0 -35z m1038 27 c10 -11 16 -20 13 -20 -3 0 -13 9 -23 20 -10
11 -16 20 -13 20 3 0 13 -9 23 -20z m-2183 -154 c-3 -133 -4 -136 -25 -135
-17 1 -18 2 -4 6 15 4 17 19 17 137 0 91 -4 136 -12 146 -7 8 -4 7 7 -2 19
-15 20 -27 17 -152z m256 123 c-10 -5 -18 -18 -19 -27 0 -11 -2 -12 -6 -4 -6
15 14 42 31 42 6 0 3 -5 -6 -11z m342 -4 c6 -8 10 -20 7 -27 -4 -8 -6 -7 -6 4
-1 9 -9 22 -18 27 -10 6 -13 11 -7 11 6 0 17 -7 24 -15z m482 -39 c-6 -11 -13
-33 -16 -48 -4 -16 -12 -28 -18 -28 -9 0 -9 3 0 12 7 7 12 22 12 34 0 13 5 26
10 29 6 3 11 18 11 33 1 19 3 22 6 8 3 -10 0 -28 -5 -40z m1130 15 c2 -17 1
-28 -4 -25 -8 5 -12 54 -4 54 2 0 6 -13 8 -29z m-5787 -31 c-3 -9 7 -22 25
-32 20 -11 33 -28 36 -48 5 -24 18 -36 63 -60 69 -37 156 -111 176 -151 25
-47 17 -46 -15 4 -31 50 -119 120 -188 151 -30 14 -42 25 -42 40 0 26 -8 37
-40 59 -16 12 -25 27 -26 48 -1 22 1 27 7 18 5 -8 6 -21 4 -29z m1272 -22 c-3
-7 -5 -2 -5 12 0 14 2 19 5 13 2 -7 2 -19 0 -25z m90 -185 c-1 -43 -3 -10 -3
72 0 83 2 118 3 78 2 -40 2 -107 0 -150z m2507 137 l21 -25 -24 20 c-22 19
-51 66 -51 82 1 4 8 -5 17 -22 8 -16 25 -41 37 -55z m297 53 c-12 -20 -14 -14
-5 12 4 9 9 14 11 11 3 -2 0 -13 -6 -23z m589 -28 c14 -19 14 -19 -2 -6 -10 7
-18 18 -18 24 0 6 1 8 3 6 1 -2 9 -13 17 -24z m-3473 -42 c-3 -10 -5 -2 -5 17
0 19 2 27 5 18 2 -10 2 -26 0 -35z m2851 18 c-13 -15 -25 -27 -27 -25 -4 4 39
54 47 54 2 0 -7 -13 -20 -29z m459 3 c-3 -3 -12 -4 -19 -1 -8 3 -5 6 6 6 11 1
17 -2 13 -5z m-40 -10 c-3 -3 -12 -4 -19 -1 -8 3 -5 6 6 6 11 1 17 -2 13 -5z
m-87 -29 c0 -2 -10 -9 -22 -15 -22 -11 -22 -10 -4 4 21 17 26 19 26 11z m880
1 c0 -2 -8 -10 -17 -17 -16 -13 -17 -12 -4 4 13 16 21 21 21 13z m-4085 -67
c-8 -19 -13 -25 -9 -14 3 11 8 34 12 50 3 17 8 23 10 14 1 -9 -4 -32 -13 -50z
m4750 41 c10 -11 16 -20 13 -20 -3 0 -13 9 -23 20 -10 11 -16 20 -13 20 3 0
13 -9 23 -20z m-1595 -3 c0 -2 -10 -12 -22 -23 l-23 -19 19 23 c18 21 26 27
26 19z m-4012 -247 l-2 -155 -6 160 c-3 88 -9 169 -13 180 -5 11 -2 9 7 -5 12
-20 15 -56 14 -180z m3469 13 c-2 -32 -3 -6 -3 57 0 63 1 89 3 58 2 -32 2 -84
0 -115z m473 163 c0 -2 -8 -10 -17 -17 -16 -13 -17 -12 -4 4 13 16 21 21 21
13z m-3110 -108 l-5 -103 -3 89 c-2 79 1 116 10 116 2 0 1 -46 -2 -102z m-913
-110 c-2 -18 -4 -6 -4 27 0 33 2 48 4 33 2 -15 2 -42 0 -60z m-710 5 c-2 -16
-4 -5 -4 22 0 28 2 40 4 28 2 -13 2 -35 0 -50z m-490 -145 c-2 -29 -3 -6 -3
52 0 58 1 81 3 53 2 -29 2 -77 0 -105z m1184 75 c-12 -20 -14 -14 -5 12 4 9 9
14 11 11 3 -2 0 -13 -6 -23z m3816 -130 c-3 -10 -5 -2 -5 17 0 19 2 27 5 18 2
-10 2 -26 0 -35z m227 19 c2 -4 -7 -8 -22 -9 -24 -2 -24 -1 -7 7 11 5 21 9 22
9 1 1 4 -3 7 -7z"/>
<path d="M11543 2563 c15 -2 37 -2 50 0 12 2 0 4 -28 4 -27 0 -38 -2 -22 -4z"/>
<path d="M11170 2528 c0 -4 7 -8 15 -8 8 0 15 4 15 8 0 5 -7 9 -15 9 -8 0 -15
-4 -15 -9z"/>
<path d="M11407 2513 c-4 -23 16 -33 28 -13 3 6 12 10 18 10 7 0 6 -4 -3 -10
-10 -7 15 -10 80 -10 68 1 101 5 114 15 11 8 18 17 15 19 -2 2 -59 6 -126 9
-121 4 -121 4 -126 -20z"/>
<path d="M11094 2493 c-25 -5 -38 -38 -20 -52 6 -5 30 -9 53 -9 33 -1 45 4 57
24 9 13 12 24 7 24 -5 0 -11 -6 -13 -12 -3 -8 -9 -4 -17 10 -11 21 -22 24 -67
15z"/>
<path d="M10858 2483 c7 -3 16 -2 19 1 4 3 -2 6 -13 5 -11 0 -14 -3 -6 -6z"/>
<path d="M11280 2465 c0 -8 7 -15 15 -15 8 0 15 7 15 15 0 8 -7 15 -15 15 -8
0 -15 -7 -15 -15z"/>
<path d="M10798 2463 c7 -3 16 -2 19 1 4 3 -2 6 -13 5 -11 0 -14 -3 -6 -6z"/>
<path d="M11058 2393 c12 -2 32 -2 45 0 12 2 2 4 -23 4 -25 0 -35 -2 -22 -4z"/>
<path d="M10738 2383 c7 -3 16 -2 19 1 4 3 -2 6 -13 5 -11 0 -14 -3 -6 -6z"/>
<path d="M10140 2349 c33 -10 100 -11 100 -1 0 4 -28 7 -63 8 -42 1 -54 -1
-37 -7z"/>
<path d="M2205 2330 c55 -4 116 -10 135 -14 19 -3 13 1 -15 8 -27 8 -88 14
-135 13 l-85 0 100 -7z"/>
<path d="M2033 2323 c15 -2 37 -2 50 0 12 2 0 4 -28 4 -27 0 -38 -2 -22 -4z"/>
<path d="M1903 2313 c15 -2 37 -2 50 0 12 2 0 4 -28 4 -27 0 -38 -2 -22 -4z"/>
<path d="M2580 2310 c-20 -6 -21 -8 -5 -8 11 0 29 3 40 8 25 11 -1 11 -35 0z"/>
<path d="M1743 2303 c8 -7 119 -5 126 3 2 2 -26 4 -64 4 -38 0 -65 -3 -62 -7z"/>
<path d="M2382 2304 c4 -3 39 -7 80 -9 66 -3 68 -2 23 5 -61 10 -110 12 -103
4z"/>
<path d="M1583 2293 c15 -2 37 -2 50 0 12 2 0 4 -28 4 -27 0 -38 -2 -22 -4z"/>
<path d="M9688 2293 c6 -2 18 -2 25 0 6 3 1 5 -13 5 -14 0 -19 -2 -12 -5z"/>
<path d="M1513 2283 c9 -2 23 -2 30 0 6 3 -1 5 -18 5 -16 0 -22 -2 -12 -5z"/>
<path d="M1293 2273 c37 -2 97 -2 135 0 37 2 6 3 -68 3 -74 0 -105 -1 -67 -3z"/>
<path d="M10067 2265 c3 -8 9 -12 14 -9 12 7 11 11 -5 17 -10 4 -13 1 -9 -8z"/>
<path d="M1173 2263 c9 -2 25 -2 35 0 9 3 1 5 -18 5 -19 0 -27 -2 -17 -5z"/>
<path d="M1088 2243 c7 -3 16 -2 19 1 4 3 -2 6 -13 5 -11 0 -14 -3 -6 -6z"/>
<path d="M9978 2233 c7 -3 16 -2 19 1 4 3 -2 6 -13 5 -11 0 -14 -3 -6 -6z"/>
<path d="M993 2191 c-26 -21 -59 -51 -73 -67 -14 -16 -2 -8 25 16 28 25 64 55
80 67 17 12 27 23 23 23 -3 0 -28 -17 -55 -39z"/>
<path d="M9928 2213 c7 -3 16 -2 19 1 4 3 -2 6 -13 5 -11 0 -14 -3 -6 -6z"/>
<path d="M9378 2193 c12 -2 30 -2 40 0 9 3 -1 5 -23 4 -22 0 -30 -2 -17 -4z"/>
<path d="M2496 2174 c-9 -22 -8 -24 10 -24 12 0 14 -4 6 -12 -12 -16 -10 -83
3 -83 6 0 9 17 7 38 -1 22 2 37 9 37 6 0 9 -7 5 -15 -3 -8 -1 -15 4 -15 15 0
12 29 -7 61 -20 33 -28 36 -37 13z"/>
<path d="M9688 2183 c7 -3 16 -2 19 1 4 3 -2 6 -13 5 -11 0 -14 -3 -6 -6z"/>
<path d="M1470 2170 c-13 -8 -12 -10 3 -10 9 0 17 5 17 10 0 12 -1 12 -20 0z"/>
<path d="M2268 2143 c7 -3 16 -2 19 1 4 3 -2 6 -13 5 -11 0 -14 -3 -6 -6z"/>
<path d="M3248 2143 c7 -3 16 -2 19 1 4 3 -2 6 -13 5 -11 0 -14 -3 -6 -6z"/>
<path d="M9100 2140 c0 -5 5 -10 11 -10 5 0 7 5 4 10 -3 6 -8 10 -11 10 -2 0
-4 -4 -4 -10z"/>
<path d="M2210 2126 c0 -8 5 -18 10 -21 6 -3 10 3 10 14 0 12 -4 21 -10 21 -5
0 -10 -6 -10 -14z"/>
<path d="M2330 2116 c0 -14 5 -26 10 -26 6 0 10 9 10 19 0 11 -4 23 -10 26 -6
4 -10 -5 -10 -19z"/>
<path d="M1484 2098 c3 -13 6 -27 6 -33 0 -5 4 -4 9 4 10 16 3 51 -11 51 -6 0
-8 -10 -4 -22z"/>
<path d="M2911 2094 c0 -11 3 -14 6 -6 3 7 2 16 -1 19 -3 4 -6 -2 -5 -13z"/>
<path d="M869 2083 c-13 -16 -12 -17 4 -4 16 13 21 21 13 21 -2 0 -10 -8 -17
-17z"/>
<path d="M1940 2084 c0 -8 5 -12 10 -9 6 4 8 11 5 16 -9 14 -15 11 -15 -7z"/>
<path d="M8930 2079 c0 -5 5 -7 10 -4 6 3 10 8 10 11 0 2 -4 4 -10 4 -5 0 -10
-5 -10 -11z"/>
<path d="M830 2060 c-9 -6 -10 -10 -3 -10 6 0 15 5 18 10 8 12 4 12 -15 0z"/>
<path d="M1510 2056 c0 -3 4 -16 10 -30 9 -26 30 -36 30 -15 0 5 -5 7 -11 3
-8 -5 -10 1 -7 20 4 18 1 26 -8 26 -8 0 -14 -2 -14 -4z"/>
<path d="M3118 2023 c6 -2 18 -2 25 0 6 3 1 5 -13 5 -14 0 -19 -2 -12 -5z"/>
<path d="M3614 2015 c11 -8 27 -14 35 -14 13 1 12 2 -1 6 -10 2 -18 9 -18 14
0 5 -8 9 -17 9 -16 -1 -16 -2 1 -15z"/>
<path d="M8961 2004 c0 -11 3 -14 6 -6 3 7 2 16 -1 19 -3 4 -6 -2 -5 -13z"/>
<path d="M3333 1970 c0 -25 2 -35 4 -22 2 12 2 32 0 45 -2 12 -4 2 -4 -23z"/>
<path d="M3500 1980 c0 -5 5 -10 10 -10 6 0 10 5 10 10 0 6 -4 10 -10 10 -5 0
-10 -4 -10 -10z"/>
<path d="M1522 1960 c0 -14 2 -19 5 -12 2 6 2 18 0 25 -3 6 -5 1 -5 -13z"/>
<path d="M3440 1930 c0 -5 5 -10 10 -10 6 0 10 5 10 10 0 6 -4 10 -10 10 -5 0
-10 -4 -10 -10z"/>
<path d="M3810 1936 c0 -2 13 -6 29 -8 17 -2 28 -1 25 4 -5 8 -54 12 -54 4z"/>
<path d="M5325 1872 c39 -41 79 -78 90 -84 11 -6 18 -9 15 -7 -3 3 -43 40 -90
84 l-85 80 70 -73z"/>
<path d="M8648 1933 c7 -3 16 -2 19 1 4 3 -2 6 -13 5 -11 0 -14 -3 -6 -6z"/>
<path d="M3635 1900 c3 -5 14 -10 23 -10 15 0 15 2 2 10 -20 13 -33 13 -25 0z"/>
<path d="M8300 1890 c0 -5 5 -10 10 -10 6 0 10 5 10 10 0 6 -4 10 -10 10 -5 0
-10 -4 -10 -10z"/>
<path d="M1850 1875 c0 -8 4 -15 10 -15 5 0 7 7 4 15 -4 8 -8 15 -10 15 -2 0
-4 -7 -4 -15z"/>
<path d="M1360 1866 c0 -9 5 -16 10 -16 6 0 10 4 10 9 0 6 -4 13 -10 16 -5 3
-10 -1 -10 -9z"/>
<path d="M4373 1848 c0 -13 1 -17 4 -10 3 6 10 9 16 5 7 -4 6 1 -2 10 -17 21
-17 21 -18 -5z"/>
<path d="M2180 1849 c0 -5 9 -9 20 -9 11 0 20 2 20 4 0 2 -9 6 -20 9 -11 3
-20 1 -20 -4z"/>
<path d="M7895 1850 c-3 -5 -2 -10 4 -10 5 0 13 5 16 10 3 6 2 10 -4 10 -5 0
-13 -4 -16 -10z"/>
<path d="M3830 1830 c6 -11 15 -20 20 -20 6 0 5 9 -2 20 -7 11 -16 20 -21 20
-4 0 -3 -9 3 -20z"/>
<path d="M3885 1840 c-3 -5 -1 -10 4 -10 6 0 11 5 11 10 0 6 -2 10 -4 10 -3 0
-8 -4 -11 -10z"/>
<path d="M4140 1839 c0 -5 4 -9 9 -9 5 0 11 -7 13 -15 2 -10 7 -12 18 -5 12 7
12 12 3 21 -16 16 -43 21 -43 8z"/>
<path d="M1926 1832 c-3 -5 1 -9 9 -9 8 0 12 4 9 9 -3 4 -7 8 -9 8 -2 0 -6 -4
-9 -8z"/>
<path d="M4670 1821 c0 -14 6 -17 25 -13 14 2 25 9 25 14 0 5 -10 6 -21 3 -15
-5 -19 -4 -15 4 4 6 2 11 -3 11 -6 0 -11 -8 -11 -19z"/>
<path d="M1364 1809 c0 -10 6 -19 13 -19 7 0 13 4 13 9 0 5 -6 13 -13 19 -10
8 -13 6 -13 -9z"/>
<path d="M4748 1823 c6 -2 18 -2 25 0 6 3 1 5 -13 5 -14 0 -19 -2 -12 -5z"/>
<path d="M1829 1818 c-5 -18 -6 -38 -1 -34 7 8 12 36 6 36 -2 0 -4 -1 -5 -2z"/>
<path d="M4800 1808 c0 -4 5 -8 12 -8 6 0 4 -6 -5 -12 -15 -11 -13 -13 15 -15
23 -2 29 0 19 7 -11 6 -5 9 19 12 34 3 33 3 -13 14 -26 6 -47 7 -47 2z"/>
<path d="M1855 1797 c-4 -10 -5 -21 -1 -24 10 -10 18 4 13 24 -4 17 -4 17 -12
0z"/>
<path d="M4748 1788 c9 -9 15 -9 24 0 9 9 7 12 -12 12 -19 0 -21 -3 -12 -12z"/>
<path d="M1619 1752 c-6 -58 0 -84 19 -80 13 3 16 13 13 47 -1 24 -9 50 -16
57 -11 11 -14 7 -16 -24z"/>
<path d="M4146 1771 c-3 -5 1 -11 9 -14 9 -4 12 -1 8 9 -6 16 -10 17 -17 5z"/>
<path d="M4280 1766 c0 -2 7 -6 15 -10 8 -3 15 -1 15 4 0 6 -7 10 -15 10 -8 0
-15 -2 -15 -4z"/>
<path d="M7815 1750 c-3 -5 1 -10 9 -10 9 0 16 5 16 10 0 6 -4 10 -9 10 -6 0
-13 -4 -16 -10z"/>
<path d="M1685 1740 c-3 -5 -5 -10 -3 -11 33 -8 38 -7 27 7 -14 17 -16 17 -24
4z"/>
<path d="M4200 1730 c0 -6 7 -10 15 -10 8 0 15 2 15 4 0 2 -7 6 -15 10 -8 3
-15 1 -15 -4z"/>
<path d="M1771 1709 c8 -16 39 -17 39 -2 0 3 -7 2 -16 -1 -11 -4 -15 -2 -11 7
3 8 -1 14 -8 14 -10 0 -11 -5 -4 -18z"/>
<path d="M5164 1715 c10 -10 24 -14 36 -10 28 9 18 20 -20 23 -29 2 -31 1 -16
-13z"/>
<path d="M1724 1698 c-4 -6 -3 -8 4 -4 6 3 15 -2 21 -11 12 -20 14 -13 5 11
-7 19 -20 21 -30 4z"/>
<path d="M1826 1697 c3 -10 9 -15 12 -12 3 3 0 11 -7 18 -10 9 -11 8 -5 -6z"/>
<path d="M4840 1700 c0 -5 9 -10 20 -10 11 0 20 5 20 10 0 6 -9 10 -20 10 -11
0 -20 -4 -20 -10z"/>
<path d="M7736 1695 c-3 -9 0 -15 8 -15 7 0 13 7 13 15 0 8 -4 15 -8 15 -4 0
-9 -7 -13 -15z"/>
<path d="M5200 1690 c0 -6 7 -10 15 -10 8 0 15 2 15 4 0 2 -7 6 -15 10 -8 3
-15 1 -15 -4z"/>
<path d="M1337 1683 c-4 -3 -6 -31 -6 -62 l2 -56 7 60 c7 65 7 69 -3 58z"/>
<path d="M4743 1674 c30 -16 44 -14 32 5 -3 6 -18 11 -33 11 l-27 -1 28 -15z"/>
<path d="M1804 1647 c3 -26 -12 -49 -26 -41 -7 4 -7 9 0 13 6 4 4 11 -4 19
-12 11 -13 9 -11 -7 4 -24 12 -34 32 -37 9 -1 12 2 9 8 -4 7 -2 8 4 4 9 -5 8
-12 0 -26 -11 -18 -14 -18 -30 -3 -17 15 -18 15 -18 0 0 -10 3 -16 8 -14 4 1
7 -2 7 -8 0 -5 -4 -9 -8 -7 -5 1 -5 -3 -2 -9 8 -12 75 47 75 67 0 7 -8 18 -17
23 -15 9 -15 12 -5 19 11 8 11 10 -1 15 -10 4 -14 -1 -13 -16z"/>
<path d="M7382 1650 c0 -14 2 -19 5 -12 2 6 2 18 0 25 -3 6 -5 1 -5 -13z"/>
<path d="M7355 1640 c3 -5 8 -10 11 -10 2 0 4 5 4 10 0 6 -5 10 -11 10 -5 0
-7 -4 -4 -10z"/>
<path d="M1675 1531 c-3 -5 -2 -12 3 -15 5 -3 9 1 9 9 0 17 -3 19 -12 6z"/>
<path d="M1220 1481 c0 -5 7 -11 14 -14 10 -4 13 -1 9 9 -6 15 -23 19 -23 5z"/>
<path d="M1617 1483 c-4 -3 -7 -11 -7 -17 0 -6 5 -5 12 2 6 6 9 14 7 17 -3 3
-9 2 -12 -2z"/>
<path d="M1657 1469 c4 -13 8 -18 11 -10 2 7 -1 18 -6 23 -8 8 -9 4 -5 -13z"/>
<path d="M1637 1455 c-4 -8 -2 -17 3 -20 6 -4 10 3 10 14 0 25 -6 27 -13 6z"/>
<path d="M1545 1440 c3 -5 8 -10 11 -10 2 0 4 5 4 10 0 6 -5 10 -11 10 -5 0
-7 -4 -4 -10z"/>
<path d="M1600 1440 c13 -8 10 -15 -17 -40 -18 -17 -35 -26 -38 -20 -3 6 -4
14 -1 18 3 5 -1 9 -9 9 -10 0 -11 -5 -4 -19 7 -13 6 -18 -3 -18 -7 0 -18 -11
-25 -25 -6 -14 -8 -25 -3 -25 4 0 11 7 14 16 4 9 9 14 12 11 3 -3 18 5 32 18
15 13 38 32 51 43 26 20 22 42 -7 42 -15 0 -15 -2 -2 -10z"/>
<path d="M1233 1425 c0 -10 6 -14 14 -10 8 3 17 5 19 5 2 0 4 5 4 10 0 6 -8
10 -18 10 -10 0 -19 -7 -19 -15z"/>
<path d="M1280 1350 c0 -33 3 -40 20 -40 21 0 27 30 14 64 -13 33 -34 17 -34
-24z"/>
<path d="M1440 1339 c0 -5 4 -8 9 -4 5 3 12 1 15 -4 4 -5 2 -12 -4 -16 -6 -4
-7 -11 -4 -17 4 -6 2 -8 -4 -4 -6 3 -13 2 -17 -4 -3 -5 -1 -10 5 -10 6 0 8 -6
4 -12 -4 -7 5 -2 19 11 28 25 35 37 16 26 -6 -4 -10 -1 -8 6 3 28 -1 39 -16
39 -8 0 -15 -5 -15 -11z"/>
<path d="M1394 1242 c4 -7 2 -19 -4 -27 -7 -8 -9 -15 -5 -15 4 0 2 -7 -5 -15
-7 -9 -8 -15 -2 -15 10 0 19 16 20 34 0 5 5 12 12 16 7 5 6 11 -6 21 -13 10
-16 10 -10 1z"/>
<path d="M1111 1143 c0 -10 4 -27 9 -38 7 -17 9 -15 9 12 1 17 -3 35 -9 38 -5
3 -10 -2 -9 -12z"/>
<path d="M1361 1144 c0 -11 3 -14 6 -6 3 7 2 16 -1 19 -3 4 -6 -2 -5 -13z"/>
<path d="M1249 1065 c-23 -56 -35 -67 -45 -40 -10 24 -51 19 -59 -7 l-7 -23
-8 25 c-8 25 -8 25 -10 -5 -1 -16 -4 -150 -6 -297 l-5 -268 135 0 136 0 0 269
c0 148 -3 277 -6 286 -9 23 -53 38 -70 24 -11 -9 -14 -6 -14 14 0 14 -4 28 -9
31 -5 3 -7 15 -4 26 10 39 -5 19 -28 -35z m28 -17 c-3 -8 -6 -5 -6 6 -1 11 2
17 5 13 3 -3 4 -12 1 -19z m-129 -198 c-9 -13 -14 -16 -20 -7 -4 6 -2 15 5 19
21 14 28 9 15 -12z"/>
<path d="M1330 1061 c0 -12 5 -21 10 -21 6 0 10 6 10 14 0 8 -4 18 -10 21 -5
3 -10 -3 -10 -14z"/>
</g>
</svg>
