<?xml version="1.0" standalone="no"?>
<!DOCTYPE svg PUBLIC "-//W3C//DTD SVG 20010904//EN"
 "http://www.w3.org/TR/2001/REC-SVG-20010904/DTD/svg10.dtd">
<svg version="1.0" xmlns="http://www.w3.org/2000/svg"
 width="5804.000000pt" height="3790.000000pt" viewBox="0 0 5804.000000 3790.000000"
 preserveAspectRatio="xMidYMid meet">

<g transform="translate(0.000000,3790.000000) scale(0.100000,-0.100000)"
fill="#000000" stroke="none">
<path d="M2 30024 c3 -4578 9 -7879 14 -7883 5 -3 9 -13 9 -21 0 -12 18 -15
110 -14 61 1 102 -1 92 -3 -9 -3 -17 -9 -17 -15 0 -7 25 -9 76 -5 60 4 76 3
81 -9 4 -11 30 -14 124 -14 67 0 119 -4 119 -9 0 -23 119 -33 315 -29 110 2
192 2 183 0 -10 -2 -18 -8 -18 -13 0 -7 84 -10 237 -8 174 2 238 -1 241 -9 5
-17 539 -17 544 0 3 8 67 11 241 9 153 -2 237 1 237 8 0 5 -8 12 -17 15 -10 3
16 3 57 1 135 -8 269 -9 276 -2 4 4 0 7 -9 7 -10 0 -17 5 -17 11 0 6 9 8 22 3
13 -4 77 -6 143 -5 125 2 263 -13 279 -29 11 -11 46 -13 70 -4 30 12 4 24 -52
25 l-57 1 75 14 c41 8 103 15 138 14 l62 -1 0 39 c0 35 3 40 27 45 42 8 53 -1
53 -44 l0 -39 44 0 c25 0 48 5 51 10 3 6 19 10 35 10 16 0 32 -4 35 -10 3 -5
40 -10 81 -10 l74 0 0 -40 0 -40 -41 0 c-25 0 -38 -4 -34 -10 4 -6 14 -10 23
-9 10 1 53 0 97 -1 l80 -3 -70 -9 c-73 -9 -98 -10 -180 -8 -37 1 -46 4 -35 11
11 8 2 9 -32 5 -27 -3 -48 -2 -48 4 0 5 28 10 63 12 34 2 -21 3 -123 3 -102 0
-148 -1 -102 -3 45 -1 82 -7 82 -11 0 -5 15 -9 33 -9 17 -1 48 -6 67 -12 19
-7 113 -14 208 -17 l172 -6 0 32 c0 29 -2 31 -36 31 -21 0 -33 4 -29 10 3 6
19 10 35 10 16 0 32 -4 35 -10 3 -5 40 -10 81 -10 l74 0 0 -40 c0 -38 -2 -40
-32 -42 -18 0 35 -4 117 -8 170 -9 223 -16 242 -31 8 -7 27 -8 50 -4 75 16
248 22 353 12 254 -22 457 -26 555 -11 60 8 223 17 408 21 169 3 307 10 307
15 0 4 20 8 44 8 25 0 48 5 51 11 4 6 13 8 20 5 17 -6 85 14 85 26 0 4 8 8 18
8 10 0 22 3 26 8 4 4 22 8 39 9 76 5 208 29 201 36 -4 4 11 7 32 7 22 0 44 4
50 9 5 5 58 12 119 14 66 3 111 9 113 16 5 14 77 14 104 0 23 -12 72 -3 63 11
-3 6 -24 10 -46 10 -22 0 -39 5 -39 11 0 8 18 10 58 7 31 -3 49 -3 39 -1 -30
8 -13 28 26 31 20 2 37 7 37 13 0 5 20 9 44 9 25 0 48 5 51 10 7 12 62 13 69
2 10 -16 -10 -29 -44 -28 -24 1 -36 -4 -38 -15 -2 -13 6 -17 37 -17 29 -1 41
3 41 14 0 8 8 14 18 14 9 1 97 0 195 0 116 -1 177 3 177 10 0 6 -54 10 -155
10 -107 0 -155 3 -155 11 0 7 12 9 35 5 22 -4 35 -3 35 4 0 5 -16 10 -35 10
-24 0 -35 5 -35 15 0 11 11 15 40 15 22 0 40 4 40 9 0 10 54 19 162 27 45 4
65 9 62 17 -3 8 12 13 43 14 29 1 49 7 55 17 4 8 23 18 40 21 18 4 39 11 48
15 8 5 38 12 65 17 37 6 50 12 49 24 -1 14 23 16 215 18 124 1 217 6 219 12 2
5 38 9 81 9 42 0 82 5 88 11 5 5 24 11 42 11 23 1 31 6 31 20 0 16 9 18 80 18
47 0 80 4 80 10 0 6 48 10 125 10 70 0 125 4 125 9 0 5 -8 12 -17 14 -10 3 5
5 32 4 l50 -2 3 -53 3 -53 37 3 c32 3 37 8 40 31 3 24 7 27 43 27 21 0 39 5
39 10 0 6 15 10 34 10 19 0 38 5 41 10 3 6 24 10 46 10 32 0 39 3 39 20 0 17
7 20 40 20 22 0 40 5 40 10 0 6 18 10 40 10 38 0 40 2 40 30 l0 30 80 0 c50 0
80 4 80 11 0 6 15 9 38 7 35 -3 37 -2 40 30 3 30 6 32 43 32 21 0 39 5 39 10
0 6 33 10 80 10 l80 0 0 30 c0 28 2 30 40 30 22 0 40 5 40 10 0 6 18 10 40 10
38 0 40 2 40 30 0 28 2 30 40 30 22 0 40 5 40 10 0 6 34 10 81 10 l80 0 -3 28
c-3 25 0 27 40 30 23 2 42 7 42 13 0 5 15 9 33 9 18 0 38 5 44 11 5 5 25 11
43 11 23 1 34 7 38 20 3 13 14 18 43 18 22 0 39 5 39 10 0 6 18 10 40 10 38 0
40 2 40 30 0 28 2 30 40 30 22 0 40 5 40 10 0 6 18 10 39 10 22 0 43 5 46 10
3 6 22 10 41 10 27 0 34 4 34 20 0 17 7 20 40 20 22 0 40 5 40 10 0 6 18 10
39 10 22 0 43 5 46 10 3 6 22 10 41 10 31 0 34 2 34 30 0 28 2 30 39 30 22 0
43 5 46 10 3 6 22 10 41 10 27 0 34 4 34 20 0 17 7 20 39 20 22 0 41 5 43 12
3 8 19 12 41 10 35 -3 37 -2 37 27 0 29 2 31 40 31 22 0 40 5 40 10 0 6 18 10
40 10 38 0 40 2 40 30 l0 30 80 0 c47 0 80 4 80 10 0 6 18 10 40 10 38 0 40 2
40 30 0 28 2 30 40 30 22 0 40 5 40 10 0 6 18 10 39 10 22 0 43 5 46 10 3 6
22 10 41 10 27 0 34 4 34 20 0 17 7 20 39 20 25 0 41 5 44 15 4 10 16 13 42
10 33 -5 35 -3 35 25 0 28 2 30 40 30 22 0 40 5 40 10 0 6 15 10 34 10 19 0
38 5 41 10 3 6 24 10 46 10 32 0 39 3 39 20 0 17 7 20 40 20 22 0 40 5 40 10
0 6 18 10 39 10 22 0 43 5 46 11 4 5 21 9 38 7 27 -2 33 1 35 20 3 18 10 22
43 22 21 0 39 5 39 10 0 6 18 10 40 10 22 0 40 4 40 9 0 6 17 11 38 13 24 2
37 8 38 18 1 8 2 21 3 28 1 7 15 12 35 12 19 0 38 5 41 10 3 6 21 10 40 10 19
0 37 5 40 10 3 6 24 10 46 10 32 0 39 3 39 20 0 16 7 20 33 20 18 0 38 5 44
11 6 6 27 11 47 11 28 0 36 4 34 17 -2 12 7 17 40 19 23 2 42 7 42 13 0 5 15
9 33 9 18 0 38 5 44 11 6 6 27 11 47 11 29 0 36 4 36 19 0 16 7 19 40 19 22 0
40 5 40 10 0 6 18 10 40 10 22 0 40 5 40 10 0 6 18 10 40 10 33 0 40 3 40 20
0 17 7 20 40 20 33 0 40 3 40 20 0 16 7 20 36 20 27 0 37 5 41 20 4 16 14 20
44 20 22 0 39 5 39 10 0 6 18 10 40 10 28 0 40 4 40 14 0 9 15 17 40 21 22 4
40 11 40 16 0 5 18 9 40 9 33 0 40 3 40 20 0 17 7 20 45 20 25 0 45 5 45 10 0
6 -5 10 -11 10 -5 0 -7 5 -4 10 3 6 24 10 46 10 21 0 39 5 39 10 0 6 9 10 20
10 17 0 20 -7 20 -50 0 -42 3 -50 19 -50 10 0 21 8 23 18 4 13 15 19 37 20 18
0 38 6 46 12 7 6 24 8 37 5 17 -4 29 1 46 19 12 15 33 26 46 26 14 0 28 5 31
10 3 6 21 10 40 10 19 0 37 5 40 10 4 6 82 10 200 10 118 0 196 4 200 10 3 6
22 10 41 10 27 0 34 4 34 19 0 16 8 20 43 23 34 2 41 6 39 21 -3 19 24 24 31
5 4 -10 6 -10 6 0 1 6 9 12 20 12 10 0 21 9 24 20 5 20 12 21 236 20 127 -1
235 1 240 4 11 7 2 48 -13 58 -8 5 -7 8 1 8 6 0 18 -7 27 -15 21 -22 63 -19
69 4 4 18 49 30 117 32 14 0 32 7 40 14 13 11 129 25 203 24 138 -2 163 0 212
21 29 12 76 22 107 21 14 0 32 6 38 14 7 8 19 15 26 15 8 0 14 6 14 14 0 9 21
17 63 24 34 6 85 16 112 21 56 11 235 14 259 5 18 -7 23 -64 5 -64 -6 0 -2
-12 9 -27 10 -16 17 -34 15 -40 -3 -7 0 -13 6 -13 6 0 11 11 11 25 0 20 5 25
28 26 73 3 95 8 116 28 17 16 44 23 112 31 49 5 117 14 151 19 34 5 71 7 81 4
10 -2 24 3 31 11 10 12 34 16 95 18 67 1 74 2 36 7 l-45 7 50 6 c110 14 168
27 184 42 12 11 40 16 92 17 59 1 67 3 39 9 l-35 7 32 2 c17 0 35 6 38 12 4 6
31 8 73 4 39 -3 90 -1 122 6 30 7 84 13 120 13 36 1 72 6 80 11 40 26 65 35
82 29 10 -3 24 -1 31 4 7 6 23 12 37 14 14 2 24 9 23 16 -3 12 60 17 229 17
36 0 70 3 74 8 4 4 27 7 51 7 25 0 43 5 43 11 0 8 17 10 55 6 54 -5 55 -5 55
20 0 25 1 26 54 20 55 -5 79 4 69 29 -3 9 2 14 16 14 12 0 21 -4 21 -10 0 -6
28 -10 65 -10 37 0 65 4 65 10 0 6 30 10 68 11 142 2 205 20 117 33 -16 2 20
3 82 3 77 -1 116 2 125 11 6 6 37 12 67 12 49 0 53 1 36 14 -18 13 -17 14 15
21 23 5 35 4 38 -4 7 -21 42 -12 42 10 0 20 4 21 94 17 67 -2 99 1 107 10 8 7
38 12 69 12 32 0 91 3 133 6 72 7 77 8 77 30 0 24 2 24 108 26 157 2 155 2
178 15 12 7 71 18 133 24 109 12 131 23 61 32 -19 2 33 5 116 5 193 2 247 9
241 31 -3 14 7 16 76 15 69 0 81 2 85 18 4 16 18 18 135 18 129 0 156 7 74 21
l-42 6 37 2 c20 0 39 4 42 9 2 4 35 8 73 9 l68 1 -75 -11 -75 -11 50 -9 c63
-11 105 -11 119 3 5 5 33 11 61 11 27 1 64 5 80 9 l30 7 -30 7 c-16 4 -34 9
-40 11 -5 1 24 3 65 4 164 2 218 7 234 20 11 9 29 11 57 7 63 -10 366 22 414
44 33 15 80 20 265 26 142 5 210 11 185 15 -23 4 -9 5 35 2 46 -3 123 2 200
14 97 14 186 18 400 18 232 0 277 2 287 15 11 13 14 13 22 1 5 -8 10 -9 12 -3
2 6 42 12 94 13 50 2 95 6 100 10 6 3 133 10 284 13 151 4 299 12 330 17 31 5
155 12 276 15 121 2 229 7 240 9 24 5 253 16 460 22 161 5 211 8 435 24 80 6
228 12 330 15 102 2 244 7 315 10 256 13 1173 27 2260 35 227 1 824 -6 811
-11 -21 -7 468 -3 529 5 119 16 186 17 223 2 24 -10 56 -13 91 -9 29 2 83 -1
120 -8 50 -9 115 -10 276 -2 116 6 215 7 220 2 6 -4 60 -11 120 -15 61 -4 115
-11 121 -16 5 -4 46 -10 90 -12 54 -3 65 -2 34 3 -32 5 -9 7 75 7 66 0 101 -2
77 -4 -81 -8 -31 -23 76 -24 59 0 130 -5 157 -10 28 -6 102 -16 165 -23 63 -6
122 -15 130 -18 48 -21 119 -29 325 -36 127 -4 214 -8 195 -10 -19 -2 -39 -8
-45 -14 -7 -7 14 -9 71 -5 47 4 85 2 91 -4 5 -5 36 -13 69 -18 32 -5 48 -10
34 -11 -43 -4 58 -18 138 -19 57 -1 72 -4 72 -16 0 -9 10 -15 28 -16 89 -3
276 -26 302 -37 18 -7 31 -8 173 -10 106 -2 107 -2 107 -26 0 -26 21 -36 82
-36 20 0 40 -4 43 -10 9 -15 62 -12 79 5 20 20 56 19 72 -2 11 -16 26 -18 108
-15 l96 4 0 -27 c0 -28 7 -29 83 -11 7 1 9 1 5 -1 -5 -3 -8 -9 -8 -14 0 -12
47 -12 52 0 4 13 69 -1 68 -14 0 -10 114 -20 353 -31 64 -3 117 -9 117 -15 0
-5 10 -9 23 -10 21 0 21 -1 2 -9 -16 -7 -13 -9 16 -9 19 -1 41 -7 47 -13 9 -9
47 -12 128 -9 83 2 114 0 110 -8 -4 -6 -33 -12 -64 -13 -47 -1 -50 -2 -17 -5
22 -3 47 -10 55 -17 11 -10 49 -13 135 -11 77 1 124 -3 131 -10 7 -6 55 -12
114 -13 57 -2 111 -7 121 -12 10 -6 31 -10 48 -10 16 0 33 -4 36 -10 3 -5 15
-10 26 -10 10 0 19 -4 19 -10 0 -12 37 -13 42 -1 2 5 19 11 38 15 32 6 33 5
10 -5 -23 -11 -23 -12 -5 -17 11 -2 27 -10 35 -16 9 -8 40 -11 82 -10 52 3 67
0 72 -12 5 -12 20 -15 80 -11 82 5 98 11 89 32 -4 12 9 15 76 15 73 0 81 -2
81 -19 0 -16 5 -18 40 -14 26 4 40 2 40 -6 0 -6 9 -11 20 -11 11 0 20 -7 20
-15 0 -18 -37 -20 -42 -3 -5 14 -67 13 -81 -1 -8 -8 1 -11 30 -11 23 0 46 -6
53 -15 6 -8 24 -14 38 -14 15 1 46 -4 69 -9 44 -10 66 -1 56 24 -3 9 6 13 36
12 28 0 41 -5 41 -14 0 -14 14 -18 58 -16 13 1 22 -5 22 -13 0 -12 16 -15 78
-15 43 0 83 5 89 11 7 7 21 7 44 1 l34 -10 -42 -1 c-23 -1 -45 -5 -48 -11 -3
-5 -40 -10 -81 -10 -43 0 -74 4 -74 10 0 17 -77 12 -84 -5 -7 -20 -2 -21 216
-23 143 -2 147 -2 151 -24 l4 -23 2 23 c1 25 16 29 29 7 11 -21 42 -9 42 17 0
11 8 22 20 25 11 3 20 12 20 19 0 20 18 17 32 -6 7 -11 18 -20 24 -20 6 0 17
-7 24 -15 6 -8 24 -14 38 -14 15 0 46 -3 70 -7 27 -4 48 -2 57 6 8 7 22 9 31
6 16 -6 15 -8 -2 -21 -15 -11 -16 -14 -4 -15 13 0 13 -1 0 -10 -11 -7 -7 -10
18 -10 22 0 32 5 32 15 0 8 4 15 9 15 5 0 16 -7 25 -15 8 -8 18 -15 23 -15 5
0 15 -6 21 -12 7 -7 42 -13 80 -14 97 -3 152 -14 152 -30 0 -10 17 -14 68 -15
37 -1 71 -1 76 0 5 1 13 -4 17 -11 5 -7 23 -13 41 -14 113 -3 118 -4 118 -19
0 -9 10 -15 28 -16 36 -2 42 -3 75 -17 16 -7 34 -12 41 -12 6 0 18 -6 24 -12
7 -7 42 -13 80 -14 37 -1 105 -9 152 -18 47 -9 122 -22 168 -28 45 -7 82 -16
82 -20 0 -4 15 -8 34 -8 19 0 38 -4 41 -10 3 -5 22 -10 41 -10 19 0 34 -4 34
-10 0 -5 20 -10 45 -10 25 0 45 -4 45 -10 0 -5 15 -10 34 -10 19 0 38 -4 41
-10 3 -5 21 -10 39 -10 17 0 36 -4 42 -9 5 -5 60 -11 122 -13 67 -2 116 -8
120 -14 4 -6 39 -15 77 -19 39 -4 78 -14 87 -22 10 -9 25 -12 38 -8 11 4 26 2
33 -3 7 -5 46 -12 87 -15 41 -2 76 -10 78 -16 2 -6 26 -11 55 -11 29 0 82 -3
120 -7 58 -5 67 -8 62 -23 -5 -16 5 -18 113 -21 67 -2 125 -9 133 -15 8 -6 36
-14 64 -18 41 -5 46 -4 32 7 -17 12 -17 14 4 35 l21 24 27 -24 c14 -14 40 -25
56 -26 17 -1 32 -7 33 -12 2 -6 21 -10 43 -10 21 0 39 -4 39 -9 0 -5 18 -12
40 -16 25 -4 40 -12 40 -21 0 -10 12 -14 40 -14 22 0 40 -4 40 -10 0 -5 18
-10 40 -10 22 0 40 -4 40 -9 0 -5 18 -12 40 -16 25 -4 40 -12 40 -21 0 -10 12
-14 40 -14 22 0 40 -4 40 -10 0 -5 18 -10 40 -10 22 0 40 -4 40 -10 0 -5 18
-10 39 -10 22 0 43 -4 46 -10 3 -5 1 -10 -5 -10 -6 0 -8 -4 -5 -10 3 -5 41
-10 84 -10 70 0 79 -2 84 -20 4 -15 14 -20 41 -20 29 0 36 -4 36 -20 0 -17 7
-20 40 -20 22 0 40 -4 40 -10 0 -5 18 -10 40 -10 22 0 40 -4 40 -10 0 -5 18
-10 40 -10 33 0 40 -3 40 -20 0 -17 7 -20 40 -20 22 0 40 -4 40 -10 0 -5 18
-10 40 -10 22 0 40 -4 40 -10 0 -5 18 -10 40 -10 33 0 40 -3 40 -20 0 -17 7
-20 40 -20 22 0 40 -4 40 -10 0 -5 18 -10 40 -10 22 0 40 -4 40 -10 0 -5 18
-10 39 -10 22 0 43 -4 46 -10 3 -5 21 -10 40 -10 19 0 37 -4 40 -10 3 -5 22
-10 41 -10 31 0 34 -2 34 -30 0 -28 2 -30 40 -30 22 0 40 -4 40 -10 0 -5 18
-10 40 -10 22 0 40 -4 40 -10 0 -5 18 -10 40 -10 33 0 40 -3 40 -20 0 -16 7
-20 34 -20 19 0 38 -4 41 -10 3 -5 24 -10 46 -10 21 0 39 -4 39 -10 0 -5 18
-10 40 -10 33 0 40 -3 40 -20 0 -16 7 -20 34 -20 19 0 38 -4 41 -10 3 -5 42
-10 86 -10 46 0 79 -4 79 -10 0 -5 18 -10 40 -10 37 0 40 -2 40 -29 l0 -28 78
-2 c42 -1 79 -6 80 -11 2 -6 21 -10 43 -10 38 0 39 -1 39 -34 0 -33 0 -33 40
-29 24 2 40 0 40 -6 0 -6 18 -11 40 -11 33 0 40 -3 40 -20 0 -16 7 -20 34 -20
19 0 38 -4 41 -10 3 -5 24 -10 46 -10 21 0 39 -4 39 -10 0 -5 18 -10 40 -10
33 0 40 -3 40 -20 0 -17 7 -20 39 -20 22 0 43 -5 47 -11 3 -6 20 -9 36 -7 19
3 32 0 35 -9 3 -8 21 -13 44 -13 32 0 39 -3 39 -20 0 -17 7 -20 39 -20 22 0
43 -4 46 -10 3 -5 22 -10 41 -10 19 0 34 -4 34 -10 0 -5 18 -10 40 -10 33 0
40 -3 40 -20 0 -17 7 -20 39 -20 22 0 43 -4 46 -10 3 -5 22 -10 41 -10 19 0
34 -4 34 -10 0 -5 18 -10 40 -10 38 0 40 -2 40 -30 0 -28 2 -30 35 -25 26 3
38 0 42 -10 3 -9 18 -15 35 -15 26 0 29 -3 23 -22 -6 -22 -5 -22 8 1 l14 23 6
-23 c6 -21 8 -22 21 -9 9 8 17 24 18 35 2 11 8 27 13 35 12 18 16 112 4 105
-4 -3 -6 -14 -4 -25 2 -11 0 -22 -4 -24 -4 -3 -8 10 -8 27 0 39 27 48 42 14
14 -29 35 -34 30 -6 -3 17 -2 20 7 11 8 -8 20 1 45 34 19 24 36 44 39 44 2 0
-20 -33 -50 -72 -104 -139 -166 -269 -166 -350 0 -18 -16 -38 -62 -75 -129
-104 -376 -259 -603 -378 -60 -32 -164 -90 -230 -129 l-120 -71 79 -3 c91 -3
81 -8 341 163 181 120 396 278 535 394 90 76 147 99 70 29 -144 -130 -367
-298 -597 -447 -92 -61 -177 -117 -188 -126 -19 -15 -17 -16 31 -12 43 3 65
13 135 62 235 164 479 359 625 497 44 42 80 68 90 66 37 -7 -344 -331 -620
-527 l-128 -91 50 0 c50 0 55 3 179 102 183 145 249 203 420 371 90 89 157
147 165 144 27 -11 -372 -385 -599 -561 -35 -27 -63 -51 -63 -52 0 -2 21 -4
48 -4 45 0 51 3 152 93 139 124 317 302 425 426 49 56 95 101 102 101 34 0
-325 -387 -496 -535 -45 -38 -81 -74 -81 -79 0 -5 24 -6 53 -3 50 6 55 9 140
99 131 138 269 299 361 420 75 101 96 122 96 99 0 -29 -260 -349 -413 -508
l-100 -103 56 0 55 0 95 118 c115 141 237 311 303 420 27 45 55 82 62 82 6 0
12 -3 12 -6 0 -10 -190 -295 -252 -378 -34 -44 -90 -116 -125 -158 l-64 -78
58 0 58 0 77 118 c111 170 238 388 286 495 2 4 -4 7 -13 7 -13 0 -15 3 -6 13
7 9 10 113 11 323 0 170 0 316 0 324 0 8 16 33 35 55 19 22 33 46 30 52 -2 7
0 12 5 10 5 -1 57 54 115 122 l105 123 0 72 0 71 -47 25 c-64 34 -88 70 -88
130 0 60 24 96 88 130 l47 25 0 192 0 191 -29 7 c-44 9 -105 58 -124 98 -42
87 -4 178 93 224 l59 28 0 145 1 145 -32 18 c-46 25 -71 63 -71 106 0 47 23
83 67 106 l34 19 4 109 c3 94 6 111 22 123 22 16 62 19 71 5 4 -7 8 -2253 5
-2978 0 -7 -9 -13 -21 -13 -20 0 -21 -3 -15 -87 3 -49 11 -178 16 -288 6 -110
13 -210 16 -222 4 -21 10 -23 64 -23 33 0 60 4 60 10 0 5 -13 71 -29 147 -32
151 -81 421 -81 449 0 44 18 -9 29 -86 14 -95 77 -425 92 -482 l10 -38 57 -2
57 -1 -57 -6 -57 -6 45 -174 c24 -96 42 -176 40 -178 -3 -4 -50 160 -82 290
l-16 67 -64 0 c-63 0 -64 0 -63 -27 0 -16 15 -198 32 -406 23 -269 36 -380 45
-386 8 -4 41 -9 75 -10 89 -3 84 -11 -6 -11 -73 0 -77 -1 -77 -22 0 -13 7
-120 14 -238 8 -118 18 -285 21 -370 3 -85 8 -169 11 -187 l5 -32 72 -4 72 -3
-74 -2 -73 -2 7 -217 c4 -120 11 -319 14 -443 l6 -225 60 -6 60 -5 -59 -5 -58
-4 1 -140 c0 -77 3 -275 5 -440 3 -212 2 -262 -4 -170 -4 72 -8 220 -9 330 -1
110 -4 251 -8 313 l-6 112 -208 0 c-114 0 -210 -4 -213 -8 -3 -4 -8 -205 -12
-445 l-7 -437 234 -1 c129 -1 250 -1 269 -2 l35 0 -34 -4 -34 -4 7 -436 c5
-283 4 -439 -3 -447 -7 -9 6 -11 57 -10 61 1 62 1 10 -3 l-58 -4 0 -447 c-1
-246 -2 -514 -2 -597 l-2 -150 -3 148 -4 147 -112 0 c-61 0 -169 -3 -239 -7
l-128 -6 0 -144 0 -143 223 -2 c154 -1 199 -4 147 -8 l-75 -7 98 0 c54 0 100
-2 102 -5 5 -5 -2070 -18 -2853 -18 -397 0 -453 2 -442 15 10 12 1 15 -67 18
-43 1 20 4 140 5 187 2 217 0 217 -13 0 -8 7 -15 15 -15 8 0 15 7 15 15 0 13
33 15 235 15 l235 0 0 130 0 130 -167 2 -168 2 120 6 c66 4 141 8 166 9 l46 1
7 267 c3 148 9 346 13 441 l6 172 -179 2 -179 1 177 10 178 10 4 31 c3 17 10
123 16 236 11 209 36 519 45 577 l6 33 -218 2 c-180 1 -202 2 -123 8 52 4 150
8 217 9 l122 1 6 58 c29 246 88 640 121 799 l6 33 -213 -6 c-118 -4 -216 -9
-218 -11 -3 -2 -20 -68 -37 -146 -18 -78 -33 -131 -33 -117 -1 14 10 74 24
135 14 60 25 115 25 122 0 6 -17 14 -37 16 -26 3 -23 4 9 2 26 -1 45 2 42 7
-18 29 213 732 286 869 10 18 5 19 -172 21 -161 1 -172 2 -93 9 50 4 134 7
187 8 l97 1 34 73 c87 187 252 456 406 660 44 59 81 110 81 112 0 3 -58 5
-130 5 l-129 0 -110 -123 c-181 -200 -336 -408 -461 -615 -34 -56 -64 -102
-66 -102 -11 0 102 190 190 320 81 120 229 308 334 425 40 44 72 82 72 85 0 3
-60 4 -134 2 l-135 -3 -175 -172 c-211 -208 -215 -200 -7 13 83 85 151 156
151 157 0 2 -53 4 -117 4 l-118 2 134 9 135 9 54 47 c169 146 300 252 497 398
312 233 495 375 495 385 0 4 -23 5 -51 2 -43 -5 -69 -18 -155 -78 -56 -40
-171 -117 -256 -171 -298 -193 -596 -393 -715 -482 -123 -92 -171 -123 -159
-103 19 30 372 282 711 507 209 138 402 268 430 288 l50 36 -51 0 c-47 0 -63
-7 -185 -84 -74 -46 -257 -154 -408 -241 -151 -86 -337 -195 -413 -242 -77
-47 -142 -83 -144 -80 -9 9 279 188 608 378 106 61 247 146 313 188 l120 76
-46 3 c-41 3 -58 -4 -170 -69 -112 -64 -557 -298 -749 -394 -159 -79 -34 -1
185 116 195 103 422 227 577 313 21 12 38 24 38 27 0 3 -37 4 -82 1 -71 -3
-95 -10 -168 -44 -47 -22 -141 -65 -210 -95 -69 -30 -177 -82 -240 -116 -174
-92 -271 -139 -430 -206 -80 -33 -180 -81 -223 -105 -57 -33 -74 -40 -67 -25
6 10 15 19 19 19 5 0 8 10 7 23 -1 21 -15 14 -156 -81 -85 -58 -238 -165 -340
-237 -102 -73 -234 -166 -295 -208 -342 -238 -625 -531 -872 -902 -273 -410
-455 -837 -597 -1400 -99 -393 -118 -498 -166 -907 -16 -139 -40 -323 -52
-408 -19 -136 -22 -199 -23 -513 l0 -357 -81 0 -81 0 -7 -553 c-4 -303 -10
-554 -12 -557 -3 -2 -132 -6 -288 -8 l-283 -4 -7 -244 c-4 -134 -4 -295 0
-359 l7 -115 -102 0 c-72 0 -103 -4 -106 -12 -20 -56 -28 -321 -34 -1058 l-6
-825 -95 -22 c-526 -124 -978 -194 -1468 -225 l-32 -2 -6 194 c-3 107 -8 198
-11 203 -2 4 -17 7 -34 7 l-29 0 -1 98 c-1 129 -7 146 -47 150 l-32 3 0 185 0
184 -32 0 -33 0 3 87 c5 127 -41 477 -84 644 -61 240 -130 389 -253 552 -87
116 -163 183 -379 335 -128 89 -202 132 -374 215 -377 183 -518 267 -537 321
-14 37 -67 110 -158 218 -79 94 -94 136 -53 158 12 6 20 21 20 35 0 14 -9 30
-20 37 -17 11 -20 24 -20 85 0 58 3 73 15 73 8 0 22 11 30 24 19 28 9 58 -25
76 -16 9 -20 21 -20 66 0 39 4 56 15 60 19 8 20 50 1 57 -9 4 -16 24 -19 49
-2 24 -4 -185 -5 -464 -2 -476 -3 -508 -19 -509 -10 -1 -39 -2 -65 -3 l-48 -1
0 110 -1 110 -45 -50 c-25 -27 -59 -79 -76 -114 -38 -75 -80 -110 -248 -203
-97 -53 -111 -63 -87 -66 20 -3 54 15 140 74 61 42 117 77 124 77 7 0 10 4 7
9 -3 4 2 5 12 1 19 -7 23 -2 -103 -100 -73 -55 -88 -72 -55 -58 9 4 28 7 41 6
17 -1 43 17 85 56 34 32 67 67 75 78 16 23 19 25 -93 -73 -33 -29 -65 -52 -70
-52 -6 0 5 12 24 27 64 50 129 115 127 127 -1 6 -6 14 -12 18 -6 5 -5 8 3 8 6
0 14 -1 15 -2 2 -2 11 3 19 9 18 15 29 7 20 -15 -5 -15 -4 -15 12 -2 22 18 49
22 39 7 -11 -20 -85 -110 -122 -149 -26 -28 -31 -38 -19 -38 10 0 33 19 52 43
68 82 77 91 45 44 -18 -26 -39 -53 -46 -59 -17 -14 -16 -28 2 -28 8 0 27 18
41 40 15 22 29 40 31 40 5 0 -3 -15 -29 -52 -19 -28 -19 -28 1 -28 15 0 29 16
50 58 17 31 30 53 31 49 0 -4 -12 -31 -26 -59 l-26 -51 26 5 c13 3 31 1 38 -3
10 -7 9 -9 -3 -9 -9 0 -21 -10 -28 -22 l-11 -23 6 22 c5 21 2 22 -39 20 -44
-2 -46 -4 -128 -107 -46 -58 -94 -120 -107 -138 l-23 -32 44 0 c31 0 47 5 51
15 8 21 136 228 149 240 12 11 -6 -20 -87 -152 -31 -51 -56 -95 -56 -98 0 -3
20 -5 45 -5 25 0 45 5 45 10 0 6 6 5 14 -2 20 -19 13 -21 -54 -19 l-61 2 -29
-65 c-26 -59 -80 -201 -80 -212 0 -2 27 -4 60 -4 58 0 60 1 70 33 l10 32 -5
-33 -5 -32 91 1 c50 0 93 -2 96 -5 4 -3 -8 -6 -25 -6 -24 0 -32 -5 -35 -22
l-4 -23 -2 22 c-1 22 -4 22 -130 22 -114 0 -130 -2 -134 -17 -4 -15 -5 -15 -6
0 0 9 -9 19 -18 21 -14 4 -13 5 4 6 17 1 26 14 44 68 12 38 37 101 55 141 l33
72 -43 0 c-50 0 -51 -1 -128 -145 -26 -49 -48 -87 -48 -82 0 10 67 143 96 189
l24 38 -44 0 c-39 0 -48 -5 -76 -37 l-32 -38 26 38 27 37 -23 1 c-21 1 -21 2
4 8 16 4 74 56 152 138 69 72 126 134 126 137 0 3 -5 6 -10 6 -13 0 -265 -215
-302 -257 -13 -15 -42 -44 -63 -63 -36 -32 -37 -33 -15 -5 21 26 115 114 292
275 28 24 45 46 39 48 -9 3 -109 -67 -243 -171 -21 -16 -38 -26 -38 -23 0 3
55 47 122 98 129 97 147 134 25 51 -82 -57 -97 -66 -97 -60 0 2 29 24 65 48
59 40 78 59 57 59 -4 0 -16 -6 -27 -13 -11 -7 -38 -24 -60 -36 -36 -21 -38
-21 -15 -2 14 11 33 23 43 27 9 3 17 10 17 15 0 5 -16 3 -35 -6 -20 -8 -33
-10 -30 -5 17 28 -64 1 -222 -74 -98 -46 -187 -86 -198 -88 -11 -1 -26 -10
-33 -18 -11 -12 -12 -12 -6 -1 8 15 -205 -127 -311 -208 -183 -140 -336 -365
-418 -616 -68 -206 -119 -525 -121 -747 l-1 -128 -27 0 -28 0 0 -190 0 -190
-100 0 -100 0 0 -125 0 -125 -34 0 c-26 0 -35 -5 -40 -22 -3 -13 -9 -119 -13
-236 l-6 -212 -389 0 -388 0 0 101 0 100 67 87 c36 48 78 101 92 117 l26 30
-3 183 -3 182 -124 0 -125 0 0 938 0 937 80 134 80 133 -2 157 -3 156 -112 3
-113 3 0 714 c0 613 2 715 14 715 13 0 29 41 51 133 4 15 13 31 20 35 7 4 15
27 16 52 l4 45 -128 3 -127 3 0 194 c0 177 2 199 21 240 11 24 26 49 33 54 7
6 10 25 8 46 -4 32 -7 35 -37 35 l-33 0 -4 178 c-5 195 -17 248 -77 322 -28
35 -29 40 -33 171 -3 113 -7 142 -27 186 -26 58 -84 117 -137 139 -40 17 -43
36 -9 58 33 21 33 59 0 84 -22 18 -25 27 -25 88 0 66 1 70 30 86 42 24 42 69
0 100 -27 19 -30 27 -30 75 0 38 4 55 15 59 25 10 29 44 7 67 -12 13 -22 39
-24 62 -4 56 -32 55 -36 -1 -2 -26 -11 -49 -23 -59 -25 -23 -24 -51 1 -65 16
-9 20 -21 20 -66 0 -48 -3 -56 -24 -65 -50 -23 -51 -88 -1 -111 23 -10 25 -16
25 -85 0 -40 -4 -73 -9 -73 -18 0 -41 -31 -41 -55 0 -15 10 -31 25 -41 34 -22
31 -41 -8 -58 -51 -21 -105 -74 -135 -130 -23 -46 -27 -65 -32 -193 -4 -126
-7 -144 -26 -165 -63 -68 -84 -155 -84 -350 l0 -158 -40 0 c-38 0 -40 -2 -40
-31 0 -17 11 -45 24 -62 48 -63 58 -125 50 -309 l-7 -167 -125 -3 -125 -3 0
-43 c0 -26 6 -47 15 -55 9 -6 26 -43 38 -82 12 -38 29 -75 36 -81 12 -9 14
-128 14 -722 l0 -711 -112 -3 -113 -3 -3 -156 -2 -157 80 -134 80 -134 -2
-938 -3 -938 -122 -1 -122 -2 -3 -178 -3 -177 93 -118 94 -117 -6 -164 c-3
-90 -7 -288 -8 -440 -1 -152 -3 -257 -5 -233 -4 40 -5 42 -31 35 -15 -3 -33
-12 -40 -20 -7 -7 -17 -13 -22 -13 -5 0 -16 -3 -26 -7 -12 -4 -15 -3 -10 5 11
19 -2 14 -24 -8 -14 -14 -33 -20 -66 -20 -25 0 -52 -6 -59 -12 -36 -32 -45
-38 -62 -37 -16 0 -16 1 2 9 23 10 21 11 -23 13 -32 2 -43 -7 -19 -17 6 -3 1
-3 -13 -1 -35 7 -565 108 -749 144 -85 17 -157 28 -160 26 -2 -3 3 -5 12 -5
10 0 17 -8 17 -17 0 -16 -2 -16 -10 -3 -9 13 -11 13 -20 -1 -8 -13 -31 -15
-153 -13 -80 1 -150 5 -156 9 -6 3 -32 -3 -57 -15 -24 -12 -54 -20 -64 -17
-11 3 -23 1 -26 -4 -3 -5 -18 -9 -33 -9 -16 0 -34 -6 -40 -14 -6 -8 -37 -17
-69 -21 -31 -4 -74 -13 -95 -20 -21 -7 -47 -10 -59 -7 -16 4 -19 2 -13 -8 6
-10 1 -12 -19 -8 -15 3 -43 -1 -64 -8 -20 -7 -65 -13 -99 -14 -35 0 -63 -4
-63 -9 0 -4 -25 -11 -56 -15 -49 -6 -152 -46 -237 -93 -16 -8 -55 -17 -88 -20
-32 -3 -59 -9 -59 -13 0 -14 -83 -42 -89 -31 -7 12 -74 -8 -93 -27 -7 -7 -26
-12 -44 -12 -26 0 -60 -5 -149 -24 -5 -1 -16 -5 -23 -10 -7 -4 -16 -5 -19 -2
-3 3 -12 1 -20 -5 -9 -9 -13 -8 -13 0 0 16 -27 14 -33 -3 -3 -8 -1 -17 6 -20
7 -3 -15 -3 -48 -1 -85 7 -155 5 -155 -5 0 -6 -168 14 -212 25 -20 5 -28 3
-28 -6 0 -10 -3 -10 -8 -3 -4 6 -32 14 -63 17 -30 4 -69 13 -85 21 -16 8 -58
17 -94 19 -36 3 -72 7 -80 10 -34 13 -169 26 -196 19 -16 -5 -39 -7 -51 -6
-13 1 -23 -1 -23 -5 0 -3 -10 -7 -22 -8 -38 -4 -188 -13 -278 -18 -48 -2 -93
-6 -100 -9 -25 -7 -205 -31 -320 -42 -19 -2 -66 -9 -105 -15 -38 -7 -90 -13
-115 -13 -25 -1 -48 -5 -52 -11 -5 -6 -8 -5 -8 2 0 9 -7 10 -26 3 -19 -8 -31
-7 -42 2 -13 11 -15 10 -10 -3 5 -12 -1 -15 -26 -16 -17 0 -71 -8 -121 -17
-135 -27 -209 -35 -216 -23 -4 5 -32 10 -63 11 -31 0 -56 4 -56 9 0 4 5 7 12
7 6 0 8 3 5 6 -4 4 -13 2 -21 -5 -19 -16 -78 -33 -71 -20 4 5 -24 9 -67 9 -40
0 -80 5 -88 11 -11 8 -7 9 19 5 19 -4 31 -3 27 1 -4 5 -33 8 -64 9 -53 1 -128
16 -162 33 -20 10 -110 2 -110 -10 0 -5 -19 -8 -42 -8 -24 1 -34 3 -23 6 36 9
41 23 8 23 -17 0 -33 -5 -35 -12 -3 -8 -13 -6 -34 8 -31 22 -74 29 -74 13 0
-6 -12 -8 -29 -4 -16 3 -32 2 -35 -4 -5 -7 -15 -7 -31 1 -30 14 -32 28 -5 35
27 7 25 17 -4 33 -21 11 -36 10 -96 -6 -61 -15 -75 -16 -103 -5 -18 7 -45 16
-62 19 -16 2 -48 17 -70 31 -22 14 -57 35 -79 46 -21 11 -42 29 -46 40 -5 11
-9 16 -9 12 -1 -5 -8 -1 -17 7 -8 9 -25 16 -37 16 -22 1 -22 1 -2 16 18 15 10
16 -105 10 -69 -4 -179 -11 -245 -16 -160 -13 -235 -13 -215 0 10 6 11 10 3
10 -8 0 -5 8 7 20 27 27 25 47 -5 54 -16 4 -25 13 -25 26 0 18 -11 25 -33 21
-5 -1 -5 4 -1 10 3 6 0 16 -7 21 -11 7 -11 11 -1 15 6 2 12 18 12 34 0 17 -4
28 -9 24 -5 -3 -13 5 -17 17 -8 26 -61 78 -80 78 -7 0 -14 4 -16 10 -1 5 -18
10 -35 12 -18 1 -33 5 -33 8 0 3 -25 14 -55 24 -63 22 -10 24 -1030 -50 -1358
-98 -1337 -97 -1385 -85 -25 6 -119 10 -210 10 -182 -1 -203 0 -599 30 -151
11 -278 18 -284 14 -6 -3 -7 -1 -4 4 8 12 -45 25 -67 17 -7 -3 -40 2 -72 11
-33 9 -80 17 -105 19 -26 1 -53 7 -60 13 -13 10 -42 15 -149 28 -98 11 -130
18 -136 26 -3 5 -13 9 -23 9 -10 0 -29 10 -42 23 -13 13 -43 29 -66 35 -24 7
-43 17 -43 22 0 5 -17 12 -37 16 -36 7 -36 8 -13 15 25 7 25 7 2 8 -28 1 -64
19 -75 37 -4 8 -14 14 -22 14 -7 0 -17 9 -20 20 -3 11 -13 20 -21 20 -8 0 -14
7 -14 15 0 8 -9 15 -20 15 -11 0 -20 7 -20 15 0 9 9 15 23 15 20 1 20 2 4 11
-9 5 -17 15 -17 22 0 7 -6 24 -14 39 -13 25 -13 27 15 38 31 13 37 25 16 34
-6 3 5 5 25 3 20 -2 34 1 32 5 -3 4 5 8 18 9 23 1 23 1 -2 9 l-25 7 25 7 c14
3 34 8 45 10 73 13 85 19 74 32 -9 11 -8 14 5 14 22 0 20 12 -5 38 -12 13 -17
27 -12 35 4 6 -5 4 -20 -6 -34 -22 -63 -22 -70 2 -2 10 -14 24 -26 30 -18 10
-21 9 -22 -6 -1 -13 -3 -10 -9 7 l-8 25 -7 -23 c-9 -28 -23 -28 -27 1 -3 19
-10 22 -50 25 -34 2 -48 7 -48 18 0 7 -9 14 -20 14 -10 0 -23 7 -28 16 -6 10
-32 18 -77 24 -37 5 -71 14 -75 21 -5 7 -18 9 -31 6 -20 -5 -22 -4 -8 6 8 7
18 20 22 30 6 15 14 18 45 13 20 -4 44 -2 52 4 12 8 10 10 -10 11 -14 1 -29 2
-35 4 -5 1 -23 3 -38 3 -17 1 -26 6 -22 12 14 23 -18 38 -94 45 -60 5 -81 11
-92 26 -15 22 -39 25 -57 7 -9 -9 -12 -7 -12 13 0 19 -2 21 -10 9 -10 -17 -15
-14 -25 18 -6 21 -4 23 13 18 32 -10 41 12 31 79 -5 33 -9 79 -10 103 -1 23
-6 42 -11 42 -4 0 -8 -7 -8 -15 0 -8 -9 -15 -20 -15 -17 0 -20 7 -20 51 0 42
-3 52 -20 56 -16 4 -20 14 -20 44 0 40 -15 53 -23 22 -4 -14 -5 -12 -6 5 -1
15 -7 22 -20 22 -30 0 -51 11 -51 26 0 8 -10 14 -26 14 -22 0 -25 3 -20 23 3
12 6 30 6 39 0 9 10 19 23 21 l22 4 -23 2 c-15 1 -25 -6 -31 -21 -6 -18 -9
-19 -14 -5 -4 10 -2 17 3 17 6 0 10 9 10 20 0 10 9 24 20 30 29 16 27 63 -4
79 -13 8 -28 11 -33 8 -5 -3 -17 3 -27 14 -17 20 -16 22 6 55 13 19 26 34 31
34 4 0 7 18 7 40 0 42 2 44 82 44 9 0 15 3 12 8 -3 4 -13 8 -22 8 -15 1 -15 2
1 14 18 14 18 14 1 18 -15 3 -13 9 16 38 19 19 28 36 22 38 -7 2 -12 9 -12 15
0 8 -17 11 -47 10 -38 -2 -43 0 -23 6 14 5 20 9 14 10 -14 1 -25 39 -14 46 4
3 15 -7 25 -21 22 -34 30 -25 11 11 -17 32 -6 58 20 48 8 -3 14 0 14 6 0 6 -4
11 -10 11 -5 0 -10 5 -10 10 0 6 7 10 15 10 20 0 19 16 -1 24 -8 3 -12 10 -9
16 3 5 0 7 -8 4 -8 -3 -14 2 -14 11 0 9 6 14 14 11 7 -3 13 -2 13 3 0 8 -303
60 -630 106 -541 78 -711 87 -1070 56 -466 -41 -811 -88 -1640 -226 -515 -86
-779 -126 -1010 -154 -416 -51 -842 -70 -1144 -52 -234 14 -707 15 -938 1
-407 -24 -810 -63 -2043 -194 -1291 -138 -1949 -191 -2910 -238 -383 -19
-1249 -16 -1561 5 -1285 86 -2498 308 -3789 693 -628 188 -1410 469 -1856 669
-68 30 -125 55 -126 55 -2 0 -3 -3442 -3 -7650 l0 -7650 29020 0 29020 0 -1
5628 c-1 3095 -5 6176 -8 6847 l-6 1220 -110 22 c-368 74 -870 146 -1247 179
l-198 18 0 823 0 823 45 0 45 0 0 165 0 165 -45 0 -45 0 0 1531 0 1532 182
226 c100 124 188 232 196 240 7 7 11 20 8 28 -3 8 -6 179 -6 379 l0 365 -260
-3 -260 -3 0 1899 c0 1045 2 1897 5 1894 3 -2 5 -546 5 -1209 0 -765 4 -1209
10 -1219 9 -13 11 -13 21 0 9 12 10 12 5 -4 -4 -11 -1 -23 6 -28 9 -5 4 -7
-12 -6 -23 3 -25 -1 -28 -41 -2 -24 0 -47 5 -52 4 -4 7 13 6 39 -1 26 1 37 3
26 3 -12 16 -26 30 -33 31 -14 844 -16 844 -2 0 5 -8 11 -17 13 -10 2 80 2
200 0 144 -3 217 -1 217 6 0 15 68 23 228 28 134 5 142 6 142 25 0 11 4 17 10
14 14 -9 15 505 18 8938 l2 7427 -29016 0 -29017 0 5 -7876z m31625 -3900 c-3
-3 -12 -4 -19 -1 -8 3 -5 6 6 6 11 1 17 -2 13 -5z m1922 -140 c2 -2 -30 -3
-72 -2 -42 1 -73 6 -70 11 4 7 132 0 142 -9z m-10432 -10 c-3 -3 -12 -4 -19
-1 -8 3 -5 6 6 6 11 1 17 -2 13 -5z m531 -71 c-32 -2 -84 -2 -115 0 -32 2 -6
3 57 3 63 0 89 -1 58 -3z m-1221 -9 c-3 -3 -12 -4 -19 -1 -8 3 -5 6 6 6 11 1
17 -2 13 -5z m1018 -22 c-14 -12 -115 -35 -122 -28 -4 3 5 6 18 6 18 0 21 2
10 9 -11 7 -4 11 25 14 73 7 78 7 69 -1z m10985 -12 c0 -5 -13 -10 -30 -10
-16 0 -30 5 -30 10 0 6 14 10 30 10 17 0 30 -4 30 -10z m-11121 -4 c-3 -3 -52
-7 -109 -10 -63 -2 -89 -1 -65 4 44 8 181 13 174 6z m-251 -23 c-10 -2 -26 -2
-35 0 -10 3 -2 5 17 5 19 0 27 -2 18 -5z m11617 -2 c-7 -12 -64 -11 -71 1 -3
4 13 8 36 8 23 0 39 -4 35 -9z m-11777 -8 c-10 -2 -28 -2 -40 0 -13 2 -5 4 17
4 22 1 32 -1 23 -4z m-1031 -9 c-3 -3 -12 -4 -19 -1 -8 3 -5 6 6 6 11 1 17 -2
13 -5z m796 -41 c-7 -2 -21 -2 -30 0 -10 3 -4 5 12 5 17 0 24 -2 18 -5z m50
-10 c-7 -2 -19 -2 -25 0 -7 3 -2 5 12 5 14 0 19 -2 13 -5z m-563 -53 c-20 -13
-43 -13 -35 0 3 6 16 10 28 10 18 0 19 -2 7 -10z m-160 -40 c0 -5 -7 -10 -15
-10 -8 0 -15 5 -15 10 0 6 7 10 15 10 8 0 15 -4 15 -10z m-67 -7 c-7 -2 -19
-2 -25 0 -7 3 -2 5 12 5 14 0 19 -2 13 -5z m14057 -22 c43 -8 41 -9 -28 -10
-47 -1 -71 3 -67 9 7 12 32 12 95 1z m83 -8 c-7 -2 -19 -2 -25 0 -7 3 -2 5 12
5 14 0 19 -2 13 -5z m-14428 -13 c-3 -5 -32 -9 -63 -8 l-57 1 45 7 c69 11 82
11 75 0z m14505 -10 c0 -12 -56 -14 -64 -2 -2 4 11 9 30 10 19 2 34 -2 34 -8z
m87 -26 c-3 -3 -12 -4 -19 -1 -8 3 -5 6 6 6 11 1 17 -2 13 -5z m-15067 -28 c0
-11 -19 -15 -25 -6 -3 5 1 10 9 10 9 0 16 -2 16 -4z m15350 -5 c0 -4 -24 -9
-52 -9 -38 -1 -49 1 -38 8 19 12 90 13 90 1z m144 -20 c10 -4 -28 -7 -85 -7
-57 1 -90 4 -74 7 42 9 136 9 159 0z m-15574 -11 c0 -6 -28 -10 -67 -9 -53 1
-61 3 -38 9 45 11 105 11 105 0z m15780 -10 c19 -6 12 -8 -32 -9 -31 -1 -60 4
-63 9 -7 12 58 12 95 0z m418 -87 c-21 -2 -55 -2 -75 0 -21 2 -4 4 37 4 41 0
58 -2 38 -4z m-17003 -43 c-3 -5 -19 -10 -36 -10 -16 0 -29 5 -29 10 0 6 16
10 36 10 21 0 33 -4 29 -10z m17470 -30 c3 -5 -1 -10 -9 -10 -9 0 -16 5 -16
10 0 6 4 10 9 10 6 0 13 -4 16 -10z m720 -80 c3 -5 -1 -10 -9 -10 -9 0 -16 5
-16 10 0 6 4 10 9 10 6 0 13 -4 16 -10z m-18847 -7 c-10 -2 -26 -2 -35 0 -10
3 -2 5 17 5 19 0 27 -2 18 -5z m-1145 -90 c-7 -2 -19 -2 -25 0 -7 3 -2 5 12 5
14 0 19 -2 13 -5z m20707 -43 c0 -5 -4 -10 -10 -10 -5 0 -10 5 -10 10 0 6 5
10 10 10 6 0 10 -4 10 -10z m118 -27 c-10 -2 -26 -2 -35 0 -10 3 -2 5 17 5 19
0 27 -2 18 -5z m122 -33 c0 -5 -4 -10 -10 -10 -5 0 -10 5 -10 10 0 6 5 10 10
10 6 0 10 -4 10 -10z m-21873 -16 c-3 -3 -12 -4 -19 -1 -8 3 -5 6 6 6 11 1 17
-2 13 -5z m22071 -21 c-10 -2 -26 -2 -35 0 -10 3 -2 5 17 5 19 0 27 -2 18 -5z
m-22221 -9 c-3 -3 -12 -4 -19 -1 -8 3 -5 6 6 6 11 1 17 -2 13 -5z m146 -1
c-13 -2 -33 -2 -45 0 -13 2 -3 4 22 4 25 0 35 -2 23 -4z m-1205 -230 c-10 -2
-26 -2 -35 0 -10 3 -2 5 17 5 19 0 27 -2 18 -5z m24540 -10 c-16 -2 -40 -2
-55 0 -16 2 -3 4 27 4 30 0 43 -2 28 -4z m-25125 -80 c-7 -2 -19 -2 -25 0 -7
3 -2 5 12 5 14 0 19 -2 13 -5z m25604 1 c-3 -3 -12 -4 -19 -1 -8 3 -5 6 6 6
11 1 17 -2 13 -5z m-26180 -70 c-3 -3 -12 -4 -19 -1 -8 3 -5 6 6 6 11 1 17 -2
13 -5z m443 -4 c11 -7 6 -10 -20 -10 -26 0 -31 3 -20 10 8 5 17 10 20 10 3 0
12 -5 20 -10z m26295 0 c-3 -5 -14 -10 -23 -9 -14 0 -13 2 3 9 27 11 27 11 20
0z m2 -26 c-3 -3 -12 -4 -19 -1 -8 3 -5 6 6 6 11 1 17 -2 13 -5z m240 -20 c-3
-3 -12 -4 -19 -1 -8 3 -5 6 6 6 11 1 17 -2 13 -5z m-27517 -34 c0 -5 -5 -10
-11 -10 -5 0 -7 5 -4 10 3 6 8 10 11 10 2 0 4 -4 4 -10z m370 0 c0 -5 -5 -10
-11 -10 -5 0 -7 5 -4 10 3 6 8 10 11 10 2 0 4 -4 4 -10z m27147 -26 c-3 -3
-12 -4 -19 -1 -8 3 -5 6 6 6 11 1 17 -2 13 -5z m-28277 -274 c0 -5 -4 -10 -10
-10 -5 0 -10 5 -10 10 0 6 5 10 10 10 6 0 10 -4 10 -10z m-560 -180 c0 -5 -5
-10 -11 -10 -5 0 -7 5 -4 10 3 6 8 10 11 10 2 0 4 -4 4 -10z m43017 -62 c-3
-7 -5 -2 -5 12 0 14 2 19 5 13 2 -7 2 -19 0 -25z m-12354 15 c-7 -2 -19 -2
-25 0 -7 3 -2 5 12 5 14 0 19 -2 13 -5z m-30983 -73 c0 -5 -4 -10 -10 -10 -5
0 -10 5 -10 10 0 6 5 10 10 10 6 0 10 -4 10 -10z m31287 -46 c-3 -3 -12 -4
-19 -1 -8 3 -5 6 6 6 11 1 17 -2 13 -5z m-31607 -54 c0 -5 -4 -10 -10 -10 -5
0 -10 5 -10 10 0 6 5 10 10 10 6 0 10 -4 10 -10z m34125 -20 c10 -11 16 -20
13 -20 -3 0 -13 9 -23 20 -10 11 -16 20 -13 20 3 0 13 -9 23 -20z m-34245 0
c0 -5 -4 -10 -10 -10 -5 0 -10 5 -10 10 0 6 5 10 10 10 6 0 10 -4 10 -10z
m34295 -60 c10 -11 16 -20 13 -20 -3 0 -13 9 -23 20 -10 11 -16 20 -13 20 3 0
13 -9 23 -20z m-34557 -42 c-3 -7 -11 -13 -18 -13 -7 0 -15 6 -17 13 -3 7 4
12 17 12 13 0 20 -5 18 -12z m-58 -23 c0 -8 -4 -15 -10 -15 -5 0 -7 7 -4 15 4
8 8 15 10 15 2 0 4 -7 4 -15z m34701 -42 c13 -16 12 -17 -3 -4 -17 13 -22 21
-14 21 2 0 10 -8 17 -17z m44 -53 c10 -11 16 -20 13 -20 -3 0 -13 9 -23 20
-10 11 -16 20 -13 20 3 0 13 -9 23 -20z m-865 7 c0 -2 -8 -11 -18 -20 -15 -14
-19 -15 -19 -2 0 8 4 12 8 9 4 -2 10 0 14 6 6 10 15 14 15 7z m-620 -77 c0 -5
-4 -10 -10 -10 -5 0 -10 5 -10 10 0 6 5 10 10 10 6 0 10 -4 10 -10z m1561 -27
c13 -16 12 -17 -3 -4 -10 7 -18 15 -18 17 0 8 8 3 21 -13z m-35301 -3 c0 -5
-4 -10 -10 -10 -5 0 -10 5 -10 10 0 6 5 10 10 10 6 0 10 -4 10 -10z m34280 6
c0 -2 -8 -10 -17 -17 -16 -13 -17 -12 -4 4 13 16 21 21 21 13z m-69 -49 c-10
-9 -11 -8 -5 6 3 10 9 15 12 12 3 -3 0 -11 -7 -18z m1124 3 c10 -11 16 -20 13
-20 -3 0 -13 9 -23 20 -10 11 -16 20 -13 20 3 0 13 -9 23 -20z m36 -47 c13
-16 12 -17 -3 -4 -10 7 -18 15 -18 17 0 8 8 3 21 -13z m6826 -125 c-2 -24 -4
-5 -4 42 0 47 2 66 4 43 2 -24 2 -62 0 -85z m-6756 27 c7 -13 3 -12 -10 5 -11
14 -21 30 -21 35 0 11 14 -7 31 -40z m-35794 19 c-3 -3 -12 -4 -19 -1 -8 3 -5
6 6 6 11 1 17 -2 13 -5z m90 0 c-3 -3 -12 -4 -19 -1 -8 3 -5 6 6 6 11 1 17 -2
13 -5z m34313 -14 c0 -5 -5 -10 -11 -10 -5 0 -7 5 -4 10 3 6 8 10 11 10 2 0 4
-4 4 -10z m34 -6 c3 -8 2 -12 -4 -9 -6 3 -10 10 -10 16 0 14 7 11 14 -7z
m1394 -60 c-4 -3 -12 5 -18 18 -12 22 -12 22 6 6 10 -10 15 -20 12 -24z
m-36048 6 c0 -5 -7 -10 -16 -10 -8 0 -12 5 -9 10 3 6 10 10 16 10 5 0 9 -4 9
-10z m34627 -32 c-3 -8 -6 -5 -6 6 -1 11 2 17 5 13 3 -3 4 -12 1 -19z m8533
-55 l75 -78 -77 75 c-72 69 -83 80 -75 80 1 0 36 -35 77 -77z m-7081 30 c10
-21 21 -54 25 -73 5 -27 2 -24 -13 16 -10 28 -24 61 -30 73 -7 11 -9 21 -7 21
3 0 14 -17 25 -37z m-36279 -23 c13 -8 13 -10 -2 -10 -9 0 -20 5 -23 10 -8 13
5 13 25 0z m-143 -74 c-8 -8 -17 -12 -21 -9 -3 3 2 12 12 19 22 16 29 9 9 -10z
m36470 -13 c-4 -3 -1 -13 6 -22 11 -14 10 -14 -5 -2 -16 12 -16 31 -1 31 4 0
3 -3 0 -7z m54 -30 c13 -16 12 -17 -3 -4 -11 8 -18 9 -18 3 0 -6 10 -18 22
-26 12 -9 18 -16 12 -16 -17 0 -47 38 -39 49 8 14 10 14 26 -6z m-36671 -8 c0
-8 -4 -15 -10 -15 -5 0 -10 7 -10 15 0 8 5 15 10 15 6 0 10 -7 10 -15z m43257
-47 c-3 -7 -5 -2 -5 12 0 14 2 19 5 13 2 -7 2 -19 0 -25z m-7258 -70 c13 -46
43 -148 68 -227 24 -79 42 -145 40 -147 -3 -4 -100 294 -131 404 -8 28 -11 52
-7 52 4 0 18 -37 30 -82z m84 -25 c19 -51 31 -90 27 -88 -5 3 -23 42 -41 88
-44 115 -44 114 -31 102 6 -5 26 -52 45 -102z m27 97 c0 -5 -2 -10 -4 -10 -3
0 -8 5 -11 10 -3 6 -1 10 4 10 6 0 11 -4 11 -10z m615 -20 c10 -11 16 -20 13
-20 -3 0 -13 9 -23 20 -10 11 -16 20 -13 20 3 0 13 -9 23 -20z m6535 -1417 l0
-1398 -260 3 -260 3 0 -365 c0 -200 -3 -371 -6 -379 -3 -8 1 -21 8 -28 8 -8
96 -116 196 -240 l182 -227 0 -1531 0 -1531 -45 0 -45 0 0 -165 0 -165 45 0
45 0 0 -905 c0 -498 -3 -905 -6 -905 -4 0 -152 -25 -329 -55 -328 -56 -722
-115 -762 -115 l-23 0 0 413 c0 383 -12 815 -26 932 -3 28 -11 53 -17 57 -7 4
-51 8 -99 8 l-88 0 0 261 c0 243 -4 345 -16 427 l-5 32 -98 0 -98 0 -6 533
c-4 292 -10 541 -13 553 -5 18 -14 20 -92 23 -47 1 -87 3 -88 4 -1 1 2 81 7
177 10 192 -1 474 -26 663 -17 128 -44 342 -75 597 -51 417 -194 987 -347
1380 -215 552 -580 1085 -980 1433 -53 45 -90 84 -86 91 3 6 3 8 -2 4 -10 -9
-47 10 -41 21 3 4 0 8 -7 8 -7 0 -51 29 -98 64 -47 35 -140 102 -207 148 -67
45 -120 87 -117 91 3 5 0 12 -6 16 -8 4 -9 3 -5 -4 4 -7 5 -12 2 -12 -14 0
-230 165 -228 174 2 6 0 8 -3 4 -11 -11 -47 11 -39 24 4 7 3 8 -4 4 -15 -9
-134 73 -125 87 3 6 1 7 -5 3 -16 -9 -102 54 -95 70 3 8 9 12 13 9 5 -3 12 0
16 7 4 7 4 10 -1 6 -4 -4 -15 -2 -23 5 -9 6 -13 7 -10 2 4 -6 3 -17 -1 -24 -7
-10 -18 -7 -50 13 -22 15 -114 60 -204 102 -89 42 -166 81 -172 88 -5 6 -14
11 -20 11 -20 1 -315 150 -315 159 0 6 5 5 12 -2 7 -7 17 -12 23 -12 5 0 1 7
-9 15 -12 9 -23 11 -31 5 -6 -5 -16 -5 -25 0 -8 6 -10 10 -4 10 6 0 11 6 11
14 0 8 -6 12 -15 8 -10 -3 -13 -1 -8 6 10 16 46 9 61 -11 13 -18 30 -24 20 -7
-3 6 0 10 7 11 7 0 4 4 -7 8 -13 5 14 9 72 10 88 1 92 0 95 -21 2 -19 8 -22
35 -20 17 2 34 -2 38 -8 4 -7 36 -10 86 -9 51 2 83 -1 91 -9 7 -7 25 -12 40
-12 21 0 28 -5 28 -20 0 -16 7 -20 34 -20 19 0 38 -4 41 -10 3 -6 30 -7 64 -4
45 5 61 3 73 -10 13 -12 37 -16 103 -16 76 0 86 -2 83 -17 -2 -14 7 -19 42
-25 105 -17 120 -21 120 -29 0 -5 18 -9 40 -9 27 0 39 -4 37 -12 -1 -8 14 -15
42 -18 62 -7 67 -30 7 -30 -25 0 -46 -4 -46 -10 0 -6 -32 -10 -75 -10 -43 0
-75 -4 -75 -10 0 -6 31 -10 74 -10 41 0 78 5 81 10 3 6 28 10 54 10 26 0 52 5
59 12 9 9 15 9 24 0 7 -7 31 -12 55 -12 29 0 42 -4 40 -12 -1 -9 13 -14 41
-16 27 -2 42 -8 42 -17 0 -7 16 -15 40 -19 22 -3 58 -9 80 -12 25 -4 40 -11
40 -20 0 -10 12 -14 40 -14 22 0 40 -4 40 -10 0 -5 17 -11 38 -11 33 -2 34 -2
7 -6 -16 -3 -34 -9 -40 -15 -7 -6 18 -7 74 -2 57 5 82 4 78 -4 -10 -15 18 -22
55 -15 20 4 29 2 25 -4 -6 -10 66 -28 161 -40 23 -3 42 -9 42 -14 0 -5 18 -9
40 -9 22 0 40 -3 40 -7 0 -13 51 -33 81 -33 15 0 31 -4 34 -10 3 -5 19 -10 35
-10 16 0 32 -4 35 -10 3 -5 26 -10 51 -10 29 0 43 -4 42 -12 -2 -8 46 -18 149
-32 83 -12 155 -24 159 -28 4 -5 27 -8 51 -8 25 0 42 -4 38 -9 -3 -5 -1 -12 4
-15 12 -8 435 -36 536 -36 44 0 85 -4 91 -9 11 -11 84 -22 137 -22 24 0 36 -3
31 -10 -4 -7 61 -9 212 -6 121 3 224 6 229 7 21 3 192 -12 230 -20 22 -5 44
-5 50 0 5 5 151 10 323 12 171 2 312 6 312 11 0 4 11 5 24 1 13 -3 27 -1 30 5
4 6 2 11 -3 11 -6 0 -11 18 -11 40 0 22 4 40 8 40 5 0 8 -14 7 -32 -1 -17 4
-43 12 -57 11 -23 13 -9 11 114 -2 110 -6 139 -16 137 -8 -1 -11 2 -7 8 3 6
11 8 16 5 5 -4 9 232 9 609 0 339 2 616 5 616 3 0 5 -629 5 -1397z m-6462
1378 c-2 -5 6 -17 17 -26 11 -9 13 -13 5 -9 -27 13 -40 26 -34 35 7 12 15 12
12 0z m-37218 -71 c0 -5 -4 -10 -10 -10 -5 0 -10 5 -10 10 0 6 5 10 10 10 6 0
10 -4 10 -10z m37324 -16 c5 -14 4 -15 -9 -4 -17 14 -19 20 -6 20 5 0 12 -7
15 -16z m41 -24 c3 -6 -1 -7 -9 -4 -18 7 -21 14 -7 14 6 0 13 -4 16 -10z m95
-55 c11 -13 10 -14 -4 -9 -9 3 -16 10 -16 15 0 13 6 11 20 -6z m101 -55 c22
-12 43 -19 47 -17 4 2 18 -7 32 -20 21 -20 13 -18 -50 13 -41 20 -77 38 -79
40 -11 10 14 2 50 -16z m142 -60 c-20 -23 -20 -23 -29 -8 -4 6 -3 8 3 5 6 -4
13 0 17 8 3 8 10 15 16 15 5 0 2 -9 -7 -20z m-38726 -56 c-3 -3 -12 -4 -19 -1
-8 3 -5 6 6 6 11 1 17 -2 13 -5z m38827 -16 c-3 -4 -11 -5 -19 -1 -21 7 -19
12 4 10 11 0 18 -5 15 -9z m160 -4 c4 -9 4 -19 1 -22 -3 -3 -5 0 -5 7 0 7 -4
10 -8 7 -5 -3 -9 1 -9 9 0 20 13 19 21 -1z m-120 -19 c10 -8 23 -12 29 -8 6 3
7 1 3 -5 -5 -9 -15 -8 -37 3 -16 9 -29 18 -29 20 0 9 15 5 34 -10z m176 5 c0
-5 -4 -10 -10 -10 -5 0 -10 5 -10 10 0 6 5 10 10 10 6 0 10 -4 10 -10z m-110
-24 c0 -2 -7 -7 -16 -10 -8 -3 -12 -2 -9 4 6 10 25 14 25 6z m42 -30 c7 4 8 3
4 -4 -4 -7 -1 -12 8 -12 8 0 17 4 20 9 7 11 73 7 84 -4 4 -5 -1 -5 -10 -2 -10
4 -18 2 -18 -5 0 -6 -6 -5 -17 3 -15 12 -16 12 -10 -3 3 -9 1 -19 -6 -22 -7
-4 -2 -4 11 -2 13 2 20 0 16 -6 -4 -6 2 -8 17 -3 15 4 19 3 11 -3 -9 -6 -6
-12 13 -20 35 -16 43 -15 19 2 -10 8 -16 18 -11 22 4 4 7 2 7 -4 0 -6 6 -9 14
-6 9 4 13 -2 12 -18 0 -14 4 -22 12 -20 6 1 12 -2 12 -8 0 -5 13 -7 29 -4 24
5 30 2 36 -15 5 -17 10 -19 20 -11 9 7 15 6 24 -3 6 -8 8 -16 5 -19 -2 -3 2
-8 11 -11 8 -4 15 -3 15 1 0 4 11 8 25 8 21 2 25 -2 20 -16 -3 -10 0 -22 6
-26 7 -4 9 -3 5 4 -3 6 -2 13 4 17 6 4 7 11 4 17 -4 7 -2 8 5 4 8 -6 9 -12 2
-20 -8 -10 -4 -13 19 -13 17 0 27 5 23 10 -3 6 -1 7 5 3 9 -5 9 -13 2 -26 -9
-17 -8 -19 11 -11 28 10 71 2 66 -13 -2 -6 -13 -10 -23 -9 -18 1 -18 1 0 -13
11 -7 17 -16 14 -19 -7 -7 -523 246 -553 270 -20 16 -19 16 3 5 12 -6 28 -8
34 -4z m-39485 -32 c-3 -3 -12 -4 -19 -1 -8 3 -5 6 6 6 11 1 17 -2 13 -5z
m39810 0 c-3 -3 -12 -4 -19 -1 -8 3 -5 6 6 6 11 1 17 -2 13 -5z m-82 -54 c8
-13 -15 -13 -35 0 -12 8 -11 10 7 10 12 0 25 -4 28 -10z m39 -1 c-3 -6 0 -15
7 -20 8 -5 10 -9 4 -9 -5 0 -17 5 -25 10 -13 9 -13 11 0 20 20 13 23 12 14 -1z
m-40087 -25 c-3 -3 -12 -4 -19 -1 -8 3 -5 6 6 6 11 1 17 -2 13 -5z m-5547 -14
c0 -5 -7 -7 -15 -4 -8 4 -15 8 -15 10 0 2 7 4 15 4 8 0 15 -4 15 -10z m77 4
c-3 -3 -12 -4 -19 -1 -8 3 -5 6 6 6 11 1 17 -2 13 -5z m45597 -10 c3 -8 2 -12
-4 -9 -6 3 -10 10 -10 16 0 14 7 11 14 -7z m-45837 0 c-3 -3 -12 -4 -19 -1 -8
3 -5 6 6 6 11 1 17 -2 13 -5z m499 -1 c-7 -7 -87 -5 -95 3 -2 2 20 4 49 4 29
0 50 -3 46 -7z m-578 -10 c-15 -2 -42 -2 -60 0 -18 2 -6 4 27 4 33 0 48 -2 33
-4z m185 0 c-13 -2 -33 -2 -45 0 -13 2 -3 4 22 4 25 0 35 -2 23 -4z m-76 -9
c-3 -3 -12 -4 -19 -1 -8 3 -5 6 6 6 11 1 17 -2 13 -5z m601 -1 c-21 -2 -55 -2
-75 0 -21 2 -4 4 37 4 41 0 58 -2 38 -4z m3079 1 c-3 -3 -12 -4 -19 -1 -8 3
-5 6 6 6 11 1 17 -2 13 -5z m42326 -1 c-7 -2 -19 -2 -25 0 -7 3 -2 5 12 5 14
0 19 -2 13 -5z m-33 -18 c0 -12 -19 -12 -23 0 -4 9 -1 12 9 8 7 -3 14 -7 14
-8z m-46315 -5 c3 -6 -1 -7 -9 -4 -18 7 -21 14 -7 14 6 0 13 -4 16 -10z m-85
-20 c0 -5 -7 -10 -15 -10 -8 0 -15 5 -15 10 0 6 7 10 15 10 8 0 15 -4 15 -10z
m-173 -16 c-3 -3 -12 -4 -19 -1 -8 3 -5 6 6 6 11 1 17 -2 13 -5z m1613 -4 c0
-5 -4 -10 -10 -10 -5 0 -10 5 -10 10 0 6 5 10 10 10 6 0 10 -4 10 -10z m-1683
-6 c-3 -3 -12 -4 -19 -1 -8 3 -5 6 6 6 11 1 17 -2 13 -5z m253 -4 c-8 -5 -19
-10 -25 -10 -5 0 -3 5 5 10 8 5 20 10 25 10 6 0 3 -5 -5 -10z m1283 -7 c-7 -2
-19 -2 -25 0 -7 3 -2 5 12 5 14 0 19 -2 13 -5z m460 -10 c-7 -2 -19 -2 -25 0
-7 3 -2 5 12 5 14 0 19 -2 13 -5z m-2218 -13 c12 -4 -7 -6 -45 -3 -36 3 -67 7
-69 9 -9 8 95 2 114 -6z m-976 -44 c-2 -2 -29 -6 -59 -9 -34 -3 -47 -2 -35 3
19 8 103 14 94 6z m2874 -23 c-7 -2 -19 -2 -25 0 -7 3 -2 5 12 5 14 0 19 -2
13 -5z m-2758 -14 c11 0 2 -5 -20 -10 -46 -11 -79 -4 -55 12 8 5 24 7 35 4 11
-2 29 -5 40 -6z m-115 -9 c0 -5 -9 -10 -21 -10 -11 0 -17 5 -14 10 3 6 13 10
21 10 8 0 14 -4 14 -10z m77 -26 c-3 -3 -12 -4 -19 -1 -8 3 -5 6 6 6 11 1 17
-2 13 -5z m6581 -1 c-10 -2 -26 -2 -35 0 -10 3 -2 5 17 5 19 0 27 -2 18 -5z
m-6643 -13 c-11 -5 -27 -9 -35 -9 -9 0 -8 4 5 9 11 5 27 9 35 9 9 0 8 -4 -5
-9z m108 -7 c-7 -2 -21 -2 -30 0 -10 3 -4 5 12 5 17 0 24 -2 18 -5z m50304 1
c-3 -3 -12 -4 -19 -1 -8 3 -5 6 6 6 11 1 17 -2 13 -5z m-50954 -11 c-7 -2 -19
-2 -25 0 -7 3 -2 5 12 5 14 0 19 -2 13 -5z m3007 -3 c0 -5 -7 -10 -15 -10 -8
0 -15 5 -15 10 0 6 7 10 15 10 8 0 15 -4 15 -10z m48157 -66 c-3 -3 -12 -4
-19 -1 -8 3 -5 6 6 6 11 1 17 -2 13 -5z m-49964 -11 c-7 -2 -19 -2 -25 0 -7 3
-2 5 12 5 14 0 19 -2 13 -5z m600 0 c-7 -2 -19 -2 -25 0 -7 3 -2 5 12 5 14 0
19 -2 13 -5z m-710 -30 c-46 -2 -120 -2 -165 0 -46 1 -9 3 82 3 91 0 128 -2
83 -3z m900 0 c-35 -2 -91 -2 -125 0 -35 2 -7 3 62 3 69 0 97 -1 63 -3z
m44500 -43 c3 -11 1 -18 -4 -14 -5 3 -9 12 -9 20 0 20 7 17 13 -6z m-42398
-70 c4 -6 -10 -10 -35 -10 -25 0 -39 4 -35 10 3 6 19 10 35 10 16 0 32 -4 35
-10z m228 -29 c7 -7 -4 -9 -31 -8 -23 1 -42 5 -42 9 0 4 -30 9 -67 11 -38 2
-23 3 31 1 55 -2 104 -8 109 -13z m39327 -5 c0 -2 -7 -7 -16 -10 -8 -3 -12 -2
-9 4 6 10 25 14 25 6z m9743 -23 c-13 -2 -33 -2 -45 0 -13 2 -3 4 22 4 25 0
35 -2 23 -4z m3995 -170 c-16 -2 -40 -2 -55 0 -16 2 -3 4 27 4 30 0 43 -2 28
-4z m-255 -10 c-24 -2 -62 -2 -85 0 -24 2 -5 4 42 4 47 0 66 -2 43 -4z m-1016
-9 c-3 -3 -12 -4 -19 -1 -8 3 -5 6 6 6 11 1 17 -2 13 -5z m920 -10 c-3 -3 -12
-4 -19 -1 -8 3 -5 6 6 6 11 1 17 -2 13 -5z m130 0 c-3 -3 -12 -4 -19 -1 -8 3
-5 6 6 6 11 1 17 -2 13 -5z m350 -10 c-3 -3 -12 -4 -19 -1 -8 3 -5 6 6 6 11 1
17 -2 13 -5z m-3940 -23 c1 -11 -5 -25 -13 -32 -8 -6 -14 -28 -14 -49 l0 -37
-107 -6 c-58 -4 -207 -7 -330 -7 -132 0 -223 -4 -223 -9 0 -6 -18 -9 -40 -9
-22 0 -40 4 -40 9 0 4 -21 9 -47 11 -27 2 22 4 107 5 101 1 156 5 158 12 2 6
19 11 38 11 19 0 34 4 34 10 0 5 7 7 15 4 8 -4 15 -1 15 4 0 6 18 10 40 10 51
-1 48 -22 -3 -26 -69 -6 -37 -22 43 -22 l80 0 0 40 0 40 69 0 c40 0 71 5 73
11 2 5 27 10 55 11 40 0 50 3 46 14 -3 8 0 14 5 14 6 0 13 -8 15 -17 4 -14 5
-12 6 5 1 27 16 30 18 3z m2918 -2 c6 -6 -10 -8 -40 -5 -64 5 -63 5 -45 16 16
11 69 4 85 -11z m-110 1 c3 -5 1 -10 -4 -10 -6 0 -11 5 -11 10 0 6 2 10 4 10
3 0 8 -4 11 -10z m160 -10 c-27 -12 -43 -12 -25 0 8 5 22 9 30 9 10 0 8 -3 -5
-9z m148 3 c-7 -2 -19 -2 -25 0 -7 3 -2 5 12 5 14 0 19 -2 13 -5z m-243 -23
c0 -5 -2 -10 -4 -10 -3 0 -8 5 -11 10 -3 6 -1 10 4 10 6 0 11 -4 11 -10z m685
0 c4 -6 -13 -10 -45 -10 -32 0 -49 4 -45 10 3 6 24 10 45 10 21 0 42 -4 45
-10z m382 4 c-3 -3 -12 -4 -19 -1 -8 3 -5 6 6 6 11 1 17 -2 13 -5z m-990 -10
c-3 -3 -12 -4 -19 -1 -8 3 -5 6 6 6 11 1 17 -2 13 -5z m201 -1 c-15 -2 -42 -2
-60 0 -18 2 -6 4 27 4 33 0 48 -2 33 -4z m-195 -120 c-90 -2 -236 -2 -325 0
-90 1 -17 3 162 3 179 0 252 -2 163 -3z m-1618 -441 c71 -35 106 -62 99 -74
-4 -7 -2 -8 5 -4 17 11 78 -59 110 -124 26 -54 26 -58 31 -338 l5 -282 -320 0
-320 0 0 133 c0 72 -2 200 -5 282 -4 143 -3 152 19 194 43 82 221 234 252 215
7 -4 10 -3 5 4 -9 15 25 33 49 25 11 -3 43 -17 70 -31z m-1122 -44 c15 -11 25
-24 22 -29 -4 -5 1 -6 9 -3 18 7 99 -93 92 -113 -3 -8 -1 -11 4 -8 5 3 16 -18
24 -47 11 -38 16 -125 18 -315 l4 -263 -153 0 -153 0 0 425 0 425 53 -26 c28
-15 64 -35 80 -46z m2137 -363 l0 -415 -129 0 -130 0 -2 233 c-4 339 -5 327
20 375 14 27 26 40 34 36 7 -4 9 -4 5 1 -12 13 10 43 73 95 34 28 66 47 72 44
7 -4 9 -3 4 1 -5 7 37 45 51 45 1 0 2 -187 2 -415z m-23599 -1511 c40 -20 68
-84 69 -153 0 -47 -2 -52 -17 -46 -10 4 -35 13 -55 18 -37 11 -77 5 -130 -18
-16 -6 -18 -1 -18 50 0 69 23 121 64 146 38 23 48 23 87 3z m-251 -989 c23
-47 25 -62 28 -227 l4 -178 -68 0 -69 0 0 183 c0 182 0 182 28 230 16 27 34
47 40 45 7 -2 23 -26 37 -53z m251 -20 c16 -34 19 -67 19 -212 l0 -173 -66 0
-66 0 4 178 c3 174 4 178 31 225 25 42 31 46 44 35 9 -7 24 -31 34 -53z m265
-2 c10 -24 14 -80 14 -208 l0 -175 -60 0 -60 0 0 170 c0 177 8 219 48 263 16
18 17 18 30 0 8 -10 20 -32 28 -50z m22469 -234 l194 -144 1 -912 0 -913 -455
0 -455 0 2 927 3 926 220 158 219 157 39 -28 c21 -15 125 -92 232 -171z
m-23047 -784 l3 -145 -35 0 -36 0 0 130 c0 100 4 138 16 162 15 28 17 29 32
14 14 -14 18 -43 20 -161z m307 145 c11 -22 15 -62 15 -160 l0 -130 -35 0 -35
0 0 138 c0 108 3 142 16 160 19 28 20 28 39 -8z m305 -151 l0 -139 -35 0 -35
0 0 130 c0 102 4 138 16 162 l17 32 18 -23 c17 -20 19 -41 19 -162z m13887 44
c-20 -2 -52 -2 -70 0 -17 2 0 4 38 4 39 0 53 -2 32 -4z m-14109 -728 c30 -33
32 -41 32 -108 0 -40 3 -116 7 -169 l6 -98 -141 0 -142 0 0 162 c0 185 4 198
88 256 l45 31 37 -19 c20 -10 51 -35 68 -55z m-511 12 c38 -36 40 -45 48 -239
l5 -148 -67 0 -68 0 2 217 c2 120 3 219 3 221 0 8 49 -24 77 -51z m863 -172
l0 -215 -54 0 -55 0 0 167 0 167 48 48 c26 26 51 48 55 48 3 0 6 -97 6 -215z
m10384 -73 c46 -41 60 -98 64 -269 l4 -163 -137 0 -138 0 6 163 c5 163 13 208
49 259 34 49 103 53 152 10z m323 11 c12 -8 32 -36 45 -61 21 -42 23 -64 26
-214 l4 -168 -131 0 -131 0 0 153 c0 171 13 237 56 280 37 38 82 41 131 10z
m843 -15 c46 -46 60 -110 60 -280 l0 -148 -130 0 -130 0 0 158 c0 118 4 170
16 205 35 103 117 132 184 65z m319 13 c14 -9 34 -35 45 -57 18 -34 21 -60 24
-211 l4 -173 -132 0 -132 0 4 173 c5 183 13 221 60 264 39 36 80 37 127 4z
m-3815 -6 c50 -47 60 -85 64 -267 l4 -168 -131 0 -131 0 0 153 c0 173 12 232
56 278 37 39 99 41 138 4z m324 9 c12 -8 32 -34 45 -57 20 -38 22 -59 25 -214
l4 -173 -132 0 -132 0 4 168 c5 182 17 234 66 272 30 24 89 26 120 4z m847
-18 c44 -47 55 -100 55 -275 l0 -151 -131 0 -131 0 4 168 c3 132 8 176 22 210
24 56 58 82 109 82 32 0 46 -6 72 -34z m330 1 c46 -46 56 -89 62 -269 l6 -158
-138 0 -137 0 5 163 c3 93 10 178 18 201 34 98 119 128 184 63z m3160 -1 c44
-47 55 -100 55 -275 l0 -151 -131 0 -131 0 4 168 c3 132 8 176 22 210 24 56
58 82 109 82 32 0 46 -6 72 -34z m330 1 c46 -46 55 -88 62 -269 l6 -158 -138
0 -137 0 5 163 c3 93 10 178 18 201 34 98 119 128 184 63z m830 0 c46 -46 56
-90 62 -269 l5 -158 -136 0 -136 0 0 118 c0 138 13 230 40 283 24 46 43 58 94
59 30 0 45 -7 71 -33z m330 1 c49 -47 65 -117 65 -290 l0 -138 -130 0 -130 0
0 153 c0 105 5 169 14 202 32 105 112 137 181 73z m823 7 c53 -45 65 -92 70
-272 l4 -163 -131 0 -131 0 0 153 c0 108 4 169 15 204 28 95 109 132 173 78z
m341 -6 c47 -47 61 -110 61 -281 l0 -148 -131 0 -131 0 4 168 c5 182 17 234
66 272 39 31 94 27 131 -11z m830 0 c47 -47 61 -110 61 -281 l0 -148 -131 0
-131 0 5 163 c2 89 10 180 17 201 29 95 118 127 179 65z m335 -3 c47 -49 56
-93 56 -270 l0 -156 -130 0 -130 0 0 123 c0 138 13 223 41 279 23 45 42 57 93
58 31 0 45 -6 70 -34z m831 0 c44 -47 55 -100 55 -275 l0 -151 -126 0 -126 0
4 178 c2 146 6 183 21 209 28 53 56 73 100 73 32 0 46 -7 72 -34z m323 9 c52
-44 64 -92 70 -272 l5 -163 -133 0 -132 0 4 173 c4 131 8 181 21 209 35 77
109 101 165 53z m830 0 c53 -44 65 -92 70 -272 l4 -163 -131 0 -131 0 0 148
c0 169 15 238 60 284 37 37 87 38 128 3z m342 -12 c49 -49 60 -103 60 -283 l0
-140 -131 0 -131 0 5 163 c5 179 15 227 57 269 43 42 91 39 140 -9z m-15840
-273 c-6 -11 -13 -20 -16 -20 -2 0 0 9 6 20 6 11 13 20 16 20 2 0 0 -9 -6 -20z
m-440 -155 c0 -2 -18 -14 -40 -25 -22 -11 -40 -18 -40 -15 0 2 17 13 38 24 42
23 42 23 42 16z m426 -52 c-8 -15 -15 -25 -16 -21 0 12 23 58 27 54 3 -2 -2
-17 -11 -33z m10539 20 c33 -11 -2504 -29 -2675 -20 -52 3 -200 6 -327 6 -146
1 -233 5 -233 11 0 14 308 17 1845 14 842 -1 1371 -5 1390 -11z m-10975 -8 c0
-2 -13 -11 -30 -20 -38 -19 -40 -11 -2 9 31 17 32 18 32 11z m0 -39 c0 -2 -25
-20 -55 -40 -30 -20 -55 -34 -55 -31 0 4 101 75 107 75 2 0 3 -2 3 -4z m396
-63 c-8 -15 -15 -25 -16 -21 0 12 23 58 27 54 3 -2 -2 -17 -11 -33z m-446 -26
c0 -2 -10 -12 -22 -23 l-23 -19 19 23 c18 21 26 27 26 19z m421 -34 c-12 -20
-14 -14 -5 12 4 9 9 14 11 11 3 -2 0 -13 -6 -23z m82 -53 c-3 -11 -7 -20 -9
-20 -2 0 -4 9 -4 20 0 11 4 20 9 20 5 0 7 -9 4 -20z m-598 0 c-3 -5 -12 -10
-18 -10 -7 0 -6 4 3 10 19 12 23 12 15 0z m8547 -5 c25 -9 60 -30 78 -48 56
-54 64 -85 68 -264 l4 -163 349 0 349 0 0 143 c0 161 13 226 57 278 71 84 213
92 300 16 63 -55 76 -100 81 -279 l5 -158 348 0 349 0 0 143 c0 160 13 226 56
277 101 120 313 71 359 -84 10 -34 15 -95 15 -193 l0 -143 68 -2 c37 0 52 -3
35 -5 -40 -5 -43 -28 -5 -41 18 -7 -480 -11 -1545 -11 l-1572 -1 -41 -42 c-23
-24 -37 -34 -32 -23 6 11 27 36 46 55 l36 34 -22 13 c-20 11 -13 12 57 13 44
0 124 3 178 7 l97 6 0 152 c0 167 11 220 57 269 56 61 140 79 225 51z m-1112
-35 c19 -10 47 -31 62 -47 48 -51 56 -84 59 -273 l4 -175 -32 1 c-18 0 -117 1
-219 2 l-186 2 4 183 3 184 30 48 c59 96 172 127 275 75z m-2287 5 c19 -8 49
-29 67 -47 57 -56 64 -85 68 -275 l4 -173 -160 0 c-87 0 -187 3 -221 6 -98 11
-70 28 55 35 l109 5 -107 2 -108 2 0 148 c0 133 2 152 24 197 25 53 43 73 91
98 38 20 132 21 178 2z m1142 -4 c48 -21 99 -77 113 -123 6 -18 12 -108 14
-200 l4 -168 -219 0 -219 0 4 173 c4 186 16 235 69 284 61 56 156 70 234 34z
m5716 -16 c26 -18 53 -50 68 -80 24 -46 26 -60 29 -222 l4 -173 -219 0 -219 0
4 168 c4 194 10 226 54 275 50 56 82 68 165 65 61 -3 78 -8 114 -33z m1104 16
c48 -21 99 -77 113 -123 6 -18 12 -108 14 -200 l4 -168 -218 0 -218 0 0 133
c0 168 12 241 48 292 54 78 167 107 257 66z m1116 8 c51 -18 97 -55 122 -102
20 -38 22 -59 25 -219 l4 -178 -216 0 -216 0 0 153 c0 179 13 238 65 296 51
56 137 76 216 50z m1154 -8 c49 -23 88 -63 111 -116 14 -31 19 -76 22 -207 l4
-168 -216 0 -216 0 0 158 c0 170 8 217 47 274 49 72 161 99 248 59z m1119 7
c53 -16 118 -81 134 -134 7 -25 12 -104 12 -203 l0 -161 -212 0 -213 0 5 182
c4 162 7 188 26 223 26 48 48 69 94 89 43 19 99 20 154 4z m-15917 -20 c-3 -8
-6 -5 -6 6 -1 11 2 17 5 13 3 -3 4 -12 1 -19z m-133 -97 c-10 -33 -19 -59 -21
-57 -3 2 3 32 13 65 9 34 19 60 21 58 2 -3 -4 -32 -13 -66z m123 37 c-3 -7 -5
-2 -5 12 0 14 2 19 5 13 2 -7 2 -19 0 -25z m-10 -60 c-3 -7 -5 -2 -5 12 0 14
2 19 5 13 2 -7 2 -19 0 -25z m-10 -65 c-3 -10 -5 -4 -5 12 0 17 2 24 5 18 2
-7 2 -21 0 -30z m-406 -55 c-11 -23 -18 -34 -17 -23 3 25 28 77 33 71 3 -2 -5
-24 -16 -48z m-131 2 c0 -5 -5 -10 -11 -10 -5 0 -7 5 -4 10 3 6 8 10 11 10 2
0 4 -4 4 -10z m387 -52 c-3 -7 -5 -2 -5 12 0 14 2 19 5 13 2 -7 2 -19 0 -25z
m-140 -10 c-3 -8 -6 -5 -6 6 -1 11 2 17 5 13 3 -3 4 -12 1 -19z m270 -50 c-2
-13 -4 -5 -4 17 -1 22 1 32 4 23 2 -10 2 -28 0 -40z m-151 -72 c-9 -59 -16
-109 -16 -111 0 -3 24 -6 53 -7 l52 -2 -52 -3 -52 -4 -5 -42 c-13 -93 -14 -99
-11 -29 l4 72 -127 2 c-70 1 -103 3 -74 5 40 3 52 8 53 21 1 15 2 15 6 0 4
-15 16 -18 73 -18 l68 0 5 33 c4 17 11 69 18 115 6 46 13 81 16 78 3 -2 -3
-52 -11 -110z m-129 82 c-3 -8 -6 -5 -6 6 -1 11 2 17 5 13 3 -3 4 -12 1 -19z
m-10 -40 c-3 -8 -6 -5 -6 6 -1 11 2 17 5 13 3 -3 4 -12 1 -19z m-3531 -40 l19
-23 -22 19 c-20 16 -25 17 -40 5 -16 -13 -17 -12 -4 4 18 22 24 22 47 -5z
m3521 -10 c-3 -7 -5 -2 -5 12 0 14 2 19 5 13 2 -7 2 -19 0 -25z m290 -30 c-2
-13 -4 -3 -4 22 0 25 2 35 4 23 2 -13 2 -33 0 -45z m-300 -20 c-3 -7 -5 -2 -5
12 0 14 2 19 5 13 2 -7 2 -19 0 -25z m7676 -5 c-13 -2 -35 -2 -50 0 -16 2 -5
4 22 4 28 0 40 -2 28 -4z m-7381 -80 c-6 -65 -10 -70 -11 -15 0 28 3 52 7 52
4 0 6 -17 4 -37z m-315 -40 c-3 -10 -5 -4 -5 12 0 17 2 24 5 18 2 -7 2 -21 0
-30z m7643 8 c-5 -11 -15 -23 -22 -27 -7 -5 -8 -2 -3 7 21 37 44 55 25 20z
m-7653 -88 c-3 -10 -5 -2 -5 17 0 19 2 27 5 18 2 -10 2 -26 0 -35z m470 -30
c-3 -10 -5 -2 -5 17 0 19 2 27 5 18 2 -10 2 -26 0 -35z m-105 -123 c28 0 49
-2 46 -5 -3 -3 -63 -7 -134 -8 l-129 -2 -6 -85 -5 -85 -2 93 -2 92 85 0 85 0
2 78 2 77 3 -77 4 -78 51 0z m-215 48 c-2 -18 -4 -4 -4 32 0 36 2 50 4 33 2
-18 2 -48 0 -65z m-160 15 c-3 -10 -5 -2 -5 17 0 19 2 27 5 18 2 -10 2 -26 0
-35z m-6 -106 c-5 -31 -6 -32 -9 -4 -3 26 -6 27 -65 29 l-62 2 63 3 c39 3 62
8 62 16 0 9 2 9 8 -1 5 -7 6 -27 3 -45z m-17041 33 c-8 -5 -19 -10 -25 -10 -5
0 -3 5 5 10 8 5 20 10 25 10 6 0 3 -5 -5 -10z m17418 -302 l57 -2 -57 -3 -58
-4 -2 -82 -2 -82 -3 83 -4 82 -79 0 -80 0 0 -150 0 -150 63 -2 62 -2 -62 -3
-63 -4 0 -44 0 -44 197 -1 c108 0 198 -2 201 -5 3 -3 -201 -5 -453 -5 -252 0
-456 2 -453 5 2 3 116 5 251 5 l247 1 0 45 0 45 -95 -2 c-53 -1 -99 1 -102 5
-4 3 1 6 10 6 15 0 17 17 19 138 l2 137 3 -137 4 -138 79 0 80 0 0 150 0 150
-62 2 -63 2 63 3 62 4 2 47 2 47 3 -47 4 -48 80 0 79 0 2 103 2 102 3 -102 4
-103 57 -2z m-391 100 c-2 -18 -4 -6 -4 27 0 33 2 48 4 33 2 -15 2 -42 0 -60z
m3 -102 c0 -3 -4 -8 -10 -11 -5 -3 -10 -1 -10 4 0 6 5 11 10 11 6 0 10 -2 10
-4z m-17140 -216 c0 -5 -7 -10 -15 -10 -8 0 -15 5 -15 10 0 6 7 10 15 10 8 0
15 -4 15 -10z m-10 -40 c-20 -13 -40 -13 -40 0 0 6 12 10 28 10 21 0 24 -2 12
-10z m107 -26 c-3 -3 -12 -4 -19 -1 -8 3 -5 6 6 6 11 1 17 -2 13 -5z m14041
-23 c50 -26 100 -80 112 -122 6 -18 10 -89 10 -156 l0 -123 -155 0 -155 0 -2
108 c-4 170 -3 177 21 211 18 25 115 101 129 101 1 0 19 -9 40 -19z m-537 -24
c70 -53 77 -73 81 -232 l3 -140 -72 -3 -73 -3 0 206 c0 118 4 205 9 205 5 0
29 -15 52 -33z m3869 23 c0 -5 -5 -10 -11 -10 -5 0 -7 5 -4 10 3 6 8 10 11 10
2 0 4 -4 4 -10z m-2850 -200 l0 -200 -58 0 -59 0 -6 131 c-3 79 -2 142 4 158
10 26 94 111 110 111 5 0 9 -90 9 -200z m2507 133 c-3 -10 -5 -4 -5 12 0 17 2
24 5 18 2 -7 2 -21 0 -30z m-354 -40 c-7 -2 -19 -2 -25 0 -7 3 -2 5 12 5 14 0
19 -2 13 -5z m-16573 -169 c12 -12 9 -14 -22 -14 -33 0 -56 19 -41 34 9 9 45
-3 63 -20z m16500 -65 c6 -10 10 -43 10 -73 l0 -56 -46 0 -46 0 4 66 c3 49 9
70 22 80 21 15 43 9 56 -17z m-792 -4 c7 -14 12 -48 12 -75 l0 -50 -45 0 -45
0 0 56 c0 30 5 64 10 75 15 28 54 24 68 -6z m112 6 c5 -11 10 -45 10 -75 l0
-56 -45 0 -45 0 0 44 c0 66 17 106 46 106 13 0 28 -9 34 -19z m278 7 c7 -7 12
-39 12 -75 l0 -63 -40 0 -40 0 0 63 c0 64 11 87 40 87 9 0 21 -5 28 -12z m121
-19 c6 -18 11 -52 11 -75 l0 -44 -45 0 -45 0 0 56 c0 67 13 94 44 94 18 0 27
-8 35 -31z m389 19 c7 -7 12 -39 12 -75 l0 -63 -45 0 -45 0 0 38 c0 20 5 54
11 75 8 29 15 37 32 37 13 0 28 -5 35 -12z m289 -18 c7 -14 13 -46 13 -72 l0
-48 -45 0 -45 0 0 56 c0 30 5 64 11 75 14 27 50 21 66 -11z m113 4 c6 -14 10
-48 10 -75 l0 -49 -45 0 -45 0 0 49 c0 70 14 101 45 101 18 0 28 -7 35 -26z
m280 7 c5 -11 10 -45 10 -75 l0 -56 -45 0 -45 0 0 38 c0 20 5 54 11 75 8 30
15 37 34 37 14 0 29 -8 35 -19z m108 7 c7 -7 12 -39 12 -75 l0 -63 -40 0 -40
0 0 56 c0 30 5 64 10 75 12 21 40 25 58 7z m289 -18 c7 -14 13 -46 13 -72 l0
-48 -45 0 -45 0 0 49 c0 70 14 103 42 99 12 -2 28 -14 35 -28z m113 11 c5 -11
10 -45 10 -75 l0 -56 -45 0 -45 0 0 38 c0 20 5 54 11 75 8 30 15 37 34 37 14
0 29 -8 35 -19z m280 0 c5 -11 10 -45 10 -75 l0 -56 -40 0 -40 0 0 63 c0 36 5
68 12 75 18 18 46 14 58 -7z m117 -11 c7 -14 13 -46 13 -72 l0 -48 -45 0 -45
0 0 49 c0 70 14 103 42 99 12 -2 28 -14 35 -28z m281 5 c7 -14 12 -48 12 -75
l0 -50 -45 0 -45 0 0 44 c0 64 17 106 44 106 15 0 27 -9 34 -25z m112 6 c5
-11 10 -45 10 -75 l0 -56 -40 0 -40 0 0 63 c0 36 5 68 12 75 18 18 46 14 58
-7z m278 7 c7 -7 12 -39 12 -75 l0 -63 -40 0 -40 0 0 56 c0 30 5 64 10 75 12
21 40 25 58 7z m119 -18 c7 -14 13 -46 13 -72 l0 -48 -45 0 -45 0 0 44 c0 65
18 108 43 104 12 -2 27 -14 34 -28z m283 11 c5 -11 10 -45 10 -75 l0 -56 -40
0 -40 0 0 63 c0 36 5 68 12 75 18 18 46 14 58 -7z m108 7 c7 -7 12 -39 12 -75
l0 -63 -40 0 -40 0 0 56 c0 30 5 64 10 75 12 21 40 25 58 7z m-2110 -155
c-120 -2 -316 -2 -435 0 -120 1 -22 2 217 2 239 0 337 -1 218 -2z m-938 -99
c9 -9 17 -41 20 -84 l5 -70 -75 0 -76 0 4 68 c2 37 9 73 15 81 26 32 76 34
107 5z m385 1 c21 -20 25 -34 25 -85 l0 -61 118 3 117 3 6 60 c7 75 15 94 45
101 65 16 104 -29 104 -121 l0 -46 118 3 117 3 5 68 c4 53 10 72 24 83 29 21
64 17 91 -11 21 -20 25 -34 25 -84 l0 -60 63 -4 c34 -2 -217 -3 -558 -3 -341
0 -577 2 -524 3 l97 4 4 66 c3 54 8 69 27 84 32 26 67 24 96 -6z m-1156 -11
c16 -20 21 -41 21 -85 l0 -59 -75 0 -75 0 0 56 c0 84 20 114 77 114 22 0 38
-8 52 -26z m381 6 c15 -15 20 -33 20 -69 0 -27 3 -56 6 -65 5 -14 -5 -16 -70
-16 l-76 0 0 65 c0 75 20 105 70 105 17 0 39 -9 50 -20z m1926 12 c22 -14 34
-52 34 -106 l0 -56 -73 0 -73 0 4 68 c3 41 10 74 20 85 15 17 68 23 88 9z
m394 -10 c17 -14 23 -32 27 -85 l6 -67 -77 0 -76 0 0 56 c0 54 12 92 34 106
20 14 63 8 86 -10z m390 -2 c16 -16 20 -33 20 -85 l0 -65 -70 0 -70 0 0 65 c0
75 20 105 70 105 17 0 39 -9 50 -20z m389 -6 c16 -20 21 -41 21 -85 l0 -59
-70 0 -70 0 0 65 c0 52 4 69 20 85 29 29 74 26 99 -6z m371 16 c22 -12 40 -67
40 -122 l0 -38 -76 0 -77 0 6 65 c7 93 46 127 107 95z m-19133 -136 c-3 -3
-12 -4 -19 -1 -8 3 -5 6 6 6 11 1 17 -2 13 -5z m3 -34 c0 -5 -4 -10 -9 -10 -6
0 -13 5 -16 10 -3 6 1 10 9 10 9 0 16 -4 16 -10z m37 -6 c-3 -3 -12 -4 -19 -1
-8 3 -5 6 6 6 11 1 17 -2 13 -5z m218 -174 c3 -5 1 -10 -4 -10 -6 0 -11 5 -11
10 0 6 2 10 4 10 3 0 8 -4 11 -10z m133 -17 c6 -19 -43 -16 -59 3 -11 14 -9
15 21 12 18 -2 35 -9 38 -15z m165 -30 c-7 -2 -19 -2 -25 0 -7 3 -2 5 12 5 14
0 19 -2 13 -5z m-183 -13 c0 -5 -7 -7 -15 -4 -8 4 -15 8 -15 10 0 2 7 4 15 4
8 0 15 -4 15 -10z m206 -20 c3 0 2 6 -2 13 -5 8 -2 7 9 -2 10 -8 15 -16 13
-19 -8 -8 -76 8 -76 18 0 6 10 6 26 0 14 -6 28 -10 30 -10z m-176 -114 c0 -2
-7 -7 -16 -10 -8 -3 -12 -2 -9 4 6 10 25 14 25 6z m-10 -96 c8 -5 11 -12 8
-16 -10 -9 -38 3 -38 16 0 12 10 13 30 0z m13013 -355 c-3 -9 -8 -14 -10 -11
-3 3 -2 9 2 15 9 16 15 13 8 -4z m-10925 -142 c-16 -2 -40 -2 -55 0 -16 2 -3
4 27 4 30 0 43 -2 28 -4z m-135 -10 c-13 -2 -33 -2 -45 0 -13 2 -3 4 22 4 25
0 35 -2 23 -4z m3854 -429 c-3 -3 -12 -4 -19 -1 -8 3 -5 6 6 6 11 1 17 -2 13
-5z m21388 -2583 l-50 -5 55 -6 c30 -4 -692 -7 -1605 -7 -913 0 -1633 3 -1600
6 43 5 53 8 35 12 -14 4 704 6 1595 6 891 0 1598 -3 1570 -6z"/>
<path d="M48860 22270 c-9 -6 -10 -10 -3 -10 6 0 15 5 18 10 8 12 4 12 -15 0z"/>
<path d="M48885 22210 c-3 -5 -1 -10 4 -10 6 0 11 5 11 10 0 6 -2 10 -4 10 -3
0 -8 -4 -11 -10z"/>
<path d="M48919 22209 c-12 -7 -12 -10 0 -21 9 -8 11 -9 7 -1 -3 6 -2 14 4 18
5 3 10 0 10 -8 0 -8 22 -26 48 -40 36 -19 49 -22 49 -12 0 8 -4 12 -8 10 -4
-3 -15 -2 -24 1 -13 5 -14 8 -3 15 8 6 9 9 1 9 -6 0 -9 9 -6 23 l5 22 -17 -23
c-9 -12 -21 -20 -26 -16 -6 3 -3 11 7 19 16 11 15 13 -8 13 -14 0 -32 -4 -39
-9z"/>
<path d="M49070 22131 c0 -6 4 -13 10 -16 6 -3 7 1 4 9 -7 18 -14 21 -14 7z"/>
<path d="M49103 22133 c9 -2 17 -8 17 -12 0 -4 10 -19 21 -32 l22 -24 -6 23
c-3 13 -1 22 6 22 7 0 -1 7 -17 15 -15 8 -36 14 -45 14 -14 -1 -13 -2 2 -6z"/>
<path d="M49100 22111 c0 -6 4 -13 10 -16 6 -3 7 1 4 9 -7 18 -14 21 -14 7z"/>
<path d="M49210 22053 c0 -1 8 -7 18 -12 14 -7 19 -6 19 4 0 7 -9 13 -19 12
-10 -1 -18 -2 -18 -4z"/>
<path d="M49278 22041 c-14 -17 -14 -20 -2 -25 9 -3 12 -1 9 4 -3 6 -2 10 3
10 5 0 9 7 9 15 0 19 1 19 -19 -4z"/>
<path d="M49317 22053 c-14 -13 -7 -31 14 -36 19 -5 20 -4 5 12 -9 10 -13 21
-9 24 3 4 4 7 1 7 -2 0 -8 -3 -11 -7z"/>
<path d="M49375 22021 c-6 -11 9 -23 19 -14 9 9 7 23 -3 23 -6 0 -12 -4 -16
-9z"/>
<path d="M49308 22003 c7 -3 16 -2 19 1 4 3 -2 6 -13 5 -11 0 -14 -3 -6 -6z"/>
<path d="M49348 21988 c5 -5 16 -8 23 -6 8 3 3 7 -10 11 -17 4 -21 3 -13 -5z"/>
<path d="M49501 21967 c-8 -10 -7 -14 2 -14 8 0 14 6 14 14 0 7 -1 13 -2 13
-2 0 -8 -6 -14 -13z"/>
<path d="M49455 21949 c-4 -6 -4 -13 -1 -16 3 -4 6 -1 6 6 0 7 5 9 12 5 7 -4
8 -3 4 4 -9 15 -13 15 -21 1z"/>
<path d="M49492 21932 c-10 -7 -8 -12 5 -24 22 -19 56 -32 48 -18 -3 6 -13 10
-21 10 -13 0 -18 12 -15 33 1 9 -1 9 -17 -1z"/>
<path d="M50200 21900 c0 -17 7 -20 38 -20 43 0 53 6 45 26 -3 9 -20 14 -44
14 -32 0 -39 -3 -39 -20z"/>
<path d="M49612 21876 c0 -11 2 -16 6 -11 11 16 30 12 47 -10 16 -20 16 -20 6
2 -6 12 -8 23 -3 26 4 2 2 3 -5 1 -6 -1 -14 0 -17 4 -15 14 -32 8 -34 -12z"/>
<path d="M49580 21855 c0 -2 13 -10 30 -18 22 -12 32 -12 37 -4 3 7 3 9 -2 5
-4 -4 -13 -4 -19 1 -14 10 -46 22 -46 16z"/>
<path d="M49691 21804 c23 -12 39 -10 39 5 0 4 -14 8 -31 8 -30 0 -30 -1 -8
-13z"/>
<path d="M49730 21795 c-7 -8 -17 -12 -24 -8 -6 4 -4 -1 4 -12 14 -16 15 -16
18 -1 2 9 7 14 11 12 4 -3 8 1 8 9 0 19 -2 19 -17 0z"/>
<path d="M49940 21645 c-7 -8 -16 -12 -21 -9 -5 3 -9 1 -9 -4 0 -6 8 -13 17
-16 10 -4 14 -4 10 0 -4 4 0 16 10 26 9 10 14 18 11 18 -3 0 -11 -7 -18 -15z"/>
<path d="M49960 21630 c0 -5 7 -7 15 -4 8 4 15 8 15 10 0 2 -7 4 -15 4 -8 0
-15 -4 -15 -10z"/>
<path d="M49990 21576 c0 -2 7 -7 16 -10 8 -3 12 -2 9 4 -6 10 -25 14 -25 6z"/>
<path d="M51338 21293 c7 -3 16 -2 19 1 4 3 -2 6 -13 5 -11 0 -14 -3 -6 -6z"/>
<path d="M51448 21293 c7 -3 16 -2 19 1 4 3 -2 6 -13 5 -11 0 -14 -3 -6 -6z"/>
<path d="M53050 21252 c0 -12 19 -26 26 -19 2 2 -2 10 -11 17 -9 8 -15 8 -15
2z"/>
<path d="M53170 21245 c-8 -9 -8 -15 -2 -15 12 0 26 19 19 26 -2 2 -10 -2 -17
-11z"/>
<path d="M52488 21213 c7 -3 16 -2 19 1 4 3 -2 6 -13 5 -11 0 -14 -3 -6 -6z"/>
<path d="M52778 21213 c7 -3 16 -2 19 1 4 3 -2 6 -13 5 -11 0 -14 -3 -6 -6z"/>
<path d="M52218 20993 c7 -3 16 -2 19 1 4 3 -2 6 -13 5 -11 0 -14 -3 -6 -6z"/>
<path d="M48450 22410 c8 -5 20 -10 25 -10 6 0 3 5 -5 10 -8 5 -19 10 -25 10
-5 0 -3 -5 5 -10z"/>
<path d="M48580 22360 c-9 -6 -10 -10 -3 -10 6 0 15 5 18 10 8 12 4 12 -15 0z"/>
<path d="M48636 22332 c-3 -5 1 -9 9 -9 8 0 15 4 15 9 0 4 -4 8 -9 8 -6 0 -12
-4 -15 -8z"/>
<path d="M31698 26093 c12 -2 32 -2 45 0 12 2 2 4 -23 4 -25 0 -35 -2 -22 -4z"/>
<path d="M32038 26083 c23 -2 61 -2 85 0 23 2 4 4 -43 4 -47 0 -66 -2 -42 -4z"/>
<path d="M33578 25933 c7 -3 16 -2 19 1 4 3 -2 6 -13 5 -11 0 -14 -3 -6 -6z"/>
<path d="M23688 25853 c7 -3 16 -2 19 1 4 3 -2 6 -13 5 -11 0 -14 -3 -6 -6z"/>
<path d="M34138 25853 c7 -3 16 -2 19 1 4 3 -2 6 -13 5 -11 0 -14 -3 -6 -6z"/>
<path d="M34060 25840 c0 -5 5 -10 10 -10 6 0 10 5 10 10 0 6 -4 10 -10 10 -5
0 -10 -4 -10 -10z"/>
<path d="M23418 25803 c7 -3 16 -2 19 1 4 3 -2 6 -13 5 -11 0 -14 -3 -6 -6z"/>
<path d="M23120 25760 c0 -5 5 -10 10 -10 6 0 10 5 10 10 0 6 -4 10 -10 10 -5
0 -10 -4 -10 -10z"/>
<path d="M34548 25733 c7 -3 16 -2 19 1 4 3 -2 6 -13 5 -11 0 -14 -3 -6 -6z"/>
<path d="M22778 25723 c7 -3 16 -2 19 1 4 3 -2 6 -13 5 -11 0 -14 -3 -6 -6z"/>
<path d="M22231 25684 c0 -11 3 -14 6 -6 3 7 2 16 -1 19 -3 4 -6 -2 -5 -13z"/>
<path d="M22408 25673 c7 -3 16 -2 19 1 4 3 -2 6 -13 5 -11 0 -14 -3 -6 -6z"/>
<path d="M35185 25660 c3 -5 8 -10 11 -10 2 0 4 5 4 10 0 6 -5 10 -11 10 -5 0
-7 -4 -4 -10z"/>
<path d="M35880 25601 c0 -11 67 -20 78 -10 4 4 18 9 32 12 14 2 -5 5 -42 6
-38 0 -68 -3 -68 -8z"/>
<path d="M21920 25589 c0 -5 5 -7 10 -4 6 3 10 8 10 11 0 2 -4 4 -10 4 -5 0
-10 -5 -10 -11z"/>
<path d="M36258 25488 c9 -9 15 -9 24 0 9 9 7 12 -12 12 -19 0 -21 -3 -12 -12z"/>
<path d="M21263 25483 c9 -2 25 -2 35 0 9 3 1 5 -18 5 -19 0 -27 -2 -17 -5z"/>
<path d="M20763 25413 c9 -2 23 -2 30 0 6 3 -1 5 -18 5 -16 0 -22 -2 -12 -5z"/>
<path d="M37085 25340 c-13 -6 -15 -9 -5 -9 8 0 22 4 30 9 18 12 2 12 -25 0z"/>
<path d="M37655 25260 c-3 -6 1 -7 9 -4 18 7 21 14 7 14 -6 0 -13 -4 -16 -10z"/>
<path d="M18948 25113 c7 -3 16 -2 19 1 4 3 -2 6 -13 5 -11 0 -14 -3 -6 -6z"/>
<path d="M38698 25093 c7 -3 16 -2 19 1 4 3 -2 6 -13 5 -11 0 -14 -3 -6 -6z"/>
<path d="M17687 24960 c3 -11 7 -20 9 -20 2 0 4 9 4 20 0 11 -4 20 -9 20 -5 0
-7 -9 -4 -20z"/>
<path d="M17348 24953 c7 -3 16 -2 19 1 4 3 -2 6 -13 5 -11 0 -14 -3 -6 -6z"/>
<path d="M39678 24953 c7 -3 16 -2 19 1 4 3 -2 6 -13 5 -11 0 -14 -3 -6 -6z"/>
<path d="M18143 24943 c9 -2 23 -2 30 0 6 3 -1 5 -18 5 -16 0 -22 -2 -12 -5z"/>
<path d="M17018 24773 c7 -3 16 -2 19 1 4 3 -2 6 -13 5 -11 0 -14 -3 -6 -6z"/>
<path d="M15348 24423 c7 -3 16 -2 19 1 4 3 -2 6 -13 5 -11 0 -14 -3 -6 -6z"/>
<path d="M14618 24383 c7 -3 16 -2 19 1 4 3 -2 6 -13 5 -11 0 -14 -3 -6 -6z"/>
<path d="M42955 24010 c-4 -6 3 -10 14 -10 25 0 27 6 6 13 -8 4 -17 2 -20 -3z"/>
<path d="M43445 24010 c3 -5 10 -10 16 -10 5 0 9 5 9 10 0 6 -7 10 -16 10 -8
0 -12 -4 -9 -10z"/>
<path d="M43428 23843 c6 -2 18 -2 25 0 6 3 1 5 -13 5 -14 0 -19 -2 -12 -5z"/>
<path d="M43671 23770 c-18 -11 0 -19 23 -10 16 5 17 8 4 12 -8 4 -21 3 -27
-2z"/>
<path d="M13188 23683 c6 -2 18 -2 25 0 6 3 1 5 -13 5 -14 0 -19 -2 -12 -5z"/>
<path d="M44400 23530 c0 -6 7 -10 15 -10 8 0 15 2 15 4 0 2 -7 6 -15 10 -8 3
-15 1 -15 -4z"/>
<path d="M44640 23450 c0 -6 7 -10 15 -10 8 0 15 2 15 4 0 2 -7 6 -15 10 -8 3
-15 1 -15 -4z"/>
<path d="M45877 23360 c-8 -31 -5 -33 19 -14 10 8 14 13 7 10 -6 -4 -13 2 -15
11 -3 14 -5 13 -11 -7z"/>
<path d="M11880 23330 c0 -5 14 -10 30 -10 17 0 33 0 37 -1 4 0 9 4 11 10 2 7
-12 11 -37 11 -23 0 -41 -4 -41 -10z"/>
<path d="M45310 23330 c0 -5 20 -10 45 -10 25 0 45 5 45 10 0 6 -20 10 -45 10
-25 0 -45 -4 -45 -10z"/>
<path d="M12140 23290 c-13 -8 -12 -10 3 -10 9 0 17 5 17 10 0 12 -1 12 -20 0z"/>
<path d="M45120 23290 c0 -6 7 -10 15 -10 8 0 15 2 15 4 0 2 -7 6 -15 10 -8 3
-15 1 -15 -4z"/>
<path d="M11719 23247 c6 -8 23 -12 41 -9 49 7 45 22 -6 22 -37 0 -44 -3 -35
-13z"/>
<path d="M45560 23250 c0 -16 67 -16 85 1 5 5 -9 9 -38 9 -26 0 -47 -4 -47
-10z"/>
<path d="M45763 23194 c1 -26 39 -27 43 -1 1 9 -2 15 -7 11 -5 -3 -7 -10 -4
-15 4 -5 2 -9 -4 -9 -5 0 -14 8 -20 18 -9 15 -10 15 -8 -4z"/>
<path d="M45737 23160 c3 -11 10 -20 15 -20 6 0 5 -6 -2 -14 -6 -8 -17 -13
-25 -10 -7 3 -16 1 -20 -5 -3 -7 0 -8 10 -5 11 5 14 2 8 -12 -5 -12 7 -7 35
16 23 19 41 40 41 45 0 6 -3 4 -6 -2 -2 -7 -10 -13 -15 -13 -6 0 -8 3 -5 7 6
6 -21 32 -35 33 -3 0 -4 -9 -1 -20z"/>
<path d="M45699 23133 l-24 -28 28 24 c25 23 32 31 24 31 -2 0 -14 -12 -28
-27z"/>
<path d="M45510 23130 c8 -5 22 -10 30 -10 13 0 13 1 0 10 -8 5 -22 10 -30 10
-13 0 -13 -1 0 -10z"/>
<path d="M45660 23091 c0 -6 4 -13 10 -16 6 -3 7 1 4 9 -7 18 -14 21 -14 7z"/>
<path d="M45682 23062 c-13 -13 -22 -26 -19 -28 2 -2 14 7 27 21 13 14 22 26
19 28 -2 2 -14 -8 -27 -21z"/>
<path d="M11320 23071 c0 -14 37 -23 60 -16 34 11 22 25 -20 25 -22 0 -40 -4
-40 -9z"/>
<path d="M46191 22953 c-58 -119 -149 -275 -237 -411 -41 -62 -74 -115 -74
-118 0 -2 25 -4 55 -4 l56 0 97 198 c86 173 182 393 182 415 0 4 -8 7 -18 7
-12 0 -31 -27 -61 -87z"/>
<path d="M46289 23013 c-37 -99 -142 -334 -200 -450 -38 -75 -69 -138 -69
-140 0 -2 25 -3 55 -3 l56 0 20 48 c27 61 176 509 181 542 5 37 -29 40 -43 3z"/>
<path d="M46363 23028 c-6 -7 -18 -42 -27 -78 -26 -94 -103 -331 -142 -433
-19 -49 -34 -91 -34 -93 0 -2 27 -4 59 -4 48 0 61 3 65 18 28 95 119 571 112
588 -7 17 -21 18 -33 2z"/>
<path d="M46425 23028 c-2 -7 -28 -140 -59 -295 -31 -155 -57 -288 -58 -295
-4 -18 110 -25 117 -6 7 22 44 592 39 600 -8 12 -34 9 -39 -4z"/>
<path d="M46486 23008 c-3 -18 -12 -152 -22 -298 -9 -146 -17 -269 -18 -275 0
-6 25 -10 59 -10 l60 0 0 35 c-1 57 -25 470 -31 528 -4 42 -9 52 -24 52 -14 0
-20 -9 -24 -32z"/>
<path d="M45620 23010 c-14 -11 -30 -24 -36 -29 -7 -6 -15 -7 -20 -3 -4 4 -4
1 0 -6 6 -9 18 -4 47 19 21 17 39 33 39 35 0 6 -3 5 -30 -16z"/>
<path d="M11160 23011 c0 -11 49 -21 67 -14 27 10 12 23 -27 23 -22 0 -40 -4
-40 -9z"/>
<path d="M45520 22935 c-7 -8 -17 -12 -23 -8 -6 4 -7 1 -3 -6 6 -9 13 -8 29 6
12 10 24 19 26 20 2 2 0 3 -6 3 -6 0 -16 -7 -23 -15z"/>
<path d="M10774 22829 c-3 -6 -2 -15 3 -20 12 -12 63 5 63 21 0 13 -57 13 -66
-1z"/>
<path d="M10520 22770 c0 -13 50 -13 70 0 11 7 4 10 -27 10 -24 0 -43 -4 -43
-10z"/>
<path d="M10860 22730 c-13 -8 -12 -10 3 -10 9 0 17 5 17 10 0 12 -1 12 -20 0z"/>
<path d="M10360 22690 c25 -14 73 -16 77 -2 3 8 -9 12 -44 12 -33 -1 -43 -3
-33 -10z"/>
<path d="M10710 22685 c0 -9 6 -12 15 -9 8 4 12 10 9 15 -8 14 -24 10 -24 -6z"/>
<path d="M9975 22530 c3 -5 19 -10 36 -10 16 0 29 5 29 10 0 6 -16 10 -36 10
-21 0 -33 -4 -29 -10z"/>
<path d="M9715 22450 c3 -5 24 -10 45 -10 21 0 42 5 45 10 4 6 -13 10 -45 10
-32 0 -49 -4 -45 -10z"/>
<path d="M46340 22403 l-46 -4 -37 -147 c-20 -81 -66 -259 -102 -397 -36 -137
-65 -256 -65 -262 0 -15 80 -17 192 -7 66 7 68 8 72 38 7 40 66 734 66 764 0
15 -6 21 -17 20 -10 -1 -38 -3 -63 -5z"/>
<path d="M46445 22398 c-2 -7 -18 -170 -34 -363 -17 -192 -33 -371 -35 -397
l-5 -48 136 0 135 0 -6 63 c-3 34 -17 195 -31 357 -14 162 -28 319 -31 348
l-5 52 -60 0 c-39 0 -61 -4 -64 -12z"/>
<path d="M45754 22393 c-50 -4 -53 -6 -120 -81 -38 -42 -168 -178 -290 -302
-218 -222 -346 -359 -385 -412 l-20 -28 126 0 125 0 33 47 c72 104 243 327
360 470 130 159 237 297 237 307 0 3 -3 5 -7 4 -5 -1 -31 -3 -59 -5z"/>
<path d="M45798 22318 c-34 -46 -137 -176 -228 -289 -189 -236 -345 -447 -337
-456 4 -3 62 -2 130 2 l124 7 63 114 c35 63 115 196 178 297 125 197 231 373
239 394 4 10 -9 13 -50 13 l-56 0 -63 -82z"/>
<path d="M45929 22272 c-42 -70 -114 -188 -161 -262 -85 -135 -248 -413 -248
-424 0 -3 57 -6 128 -6 l127 0 34 88 c19 48 70 168 114 267 161 365 197 448
197 456 0 5 -26 9 -57 9 l-58 0 -76 -128z"/>
<path d="M46134 22363 c-8 -21 -24 -59 -34 -84 -10 -25 -51 -118 -90 -205 -94
-208 -200 -462 -200 -480 0 -12 21 -14 127 -12 l126 3 67 260 c37 143 83 321
104 395 20 74 36 141 36 148 0 8 -19 12 -60 12 -60 0 -60 0 -76 -37z"/>
<path d="M45309 22307 c-57 -45 -212 -161 -343 -257 -241 -177 -503 -382 -586
-459 l-45 -42 134 4 133 5 122 119 c143 141 241 229 516 465 113 97 221 192
239 212 l35 36 -50 0 c-49 0 -56 -4 -155 -83z"/>
<path d="M45476 22314 c-43 -41 -162 -145 -265 -232 -201 -169 -446 -389 -526
-471 l-49 -51 129 0 130 0 90 107 c50 58 222 241 383 406 160 165 292 304 292
308 0 5 -24 9 -52 9 -52 -1 -55 -2 -132 -76z"/>
<path d="M9076 22371 c5 -5 38 -10 74 -11 83 -3 90 -2 90 10 0 6 -36 10 -87
10 -53 0 -83 -4 -77 -9z"/>
<path d="M9484 22371 c3 -5 17 -8 31 -8 14 0 28 3 31 8 3 5 -11 9 -31 9 -20 0
-34 -4 -31 -9z"/>
<path d="M8088 22303 c6 -2 18 -2 25 0 6 3 1 5 -13 5 -14 0 -19 -2 -12 -5z"/>
<path d="M8778 22288 c16 -8 28 -8 45 0 19 9 17 11 -23 11 -40 0 -42 -2 -22
-11z"/>
<path d="M9342 22283 c2 -10 10 -18 18 -18 8 0 16 8 18 18 2 12 -3 17 -18 17
-15 0 -20 -5 -18 -17z"/>
<path d="M7919 22234 c-11 -14 -10 -15 11 -12 13 1 25 9 28 16 5 17 -23 15
-39 -4z"/>
<path d="M8120 22210 c8 -5 42 -10 75 -10 33 0 67 5 75 10 10 7 -13 10 -75 10
-62 0 -85 -3 -75 -10z"/>
<path d="M8452 22215 c9 -9 137 -12 150 -3 7 4 -24 8 -71 8 -46 0 -82 -2 -79
-5z"/>
<path d="M8860 22090 c-13 -8 -12 -10 3 -10 9 0 17 5 17 10 0 12 -1 12 -20 0z"/>
<path d="M7018 21983 c7 -3 16 -2 19 1 4 3 -2 6 -13 5 -11 0 -14 -3 -6 -6z"/>
<path d="M8490 21969 c0 -5 5 -7 10 -4 6 3 10 8 10 11 0 2 -4 4 -10 4 -5 0
-10 -5 -10 -11z"/>
<path d="M3448 21943 c6 -2 18 -2 25 0 6 3 1 5 -13 5 -14 0 -19 -2 -12 -5z"/>
<path d="M600 21890 c8 -5 26 -10 40 -10 14 0 32 5 40 10 11 7 -1 10 -40 10
-39 0 -51 -3 -40 -10z"/>
<path d="M4558 21833 c6 -2 18 -2 25 0 6 3 1 5 -13 5 -14 0 -19 -2 -12 -5z"/>
<path d="M4648 21823 c7 -3 16 -2 19 1 4 3 -2 6 -13 5 -11 0 -14 -3 -6 -6z"/>
<path d="M1480 21810 c0 -5 18 -10 40 -10 22 0 40 5 40 10 0 6 -18 10 -40 10
-22 0 -40 -4 -40 -10z"/>
<path d="M1183 21803 c9 -2 25 -2 35 0 9 3 1 5 -18 5 -19 0 -27 -2 -17 -5z"/>
<path d="M3985 21780 c3 -5 8 -10 11 -10 2 0 4 5 4 10 0 6 -5 10 -11 10 -5 0
-7 -4 -4 -10z"/>
<path d="M5800 21570 c0 -5 5 -10 10 -10 6 0 10 5 10 10 0 6 -4 10 -10 10 -5
0 -10 -4 -10 -10z"/>
<path d="M6050 21565 c-8 -9 -8 -15 -2 -15 12 0 26 19 19 26 -2 2 -10 -2 -17
-11z"/>
<path d="M6488 21563 c7 -3 16 -2 19 1 4 3 -2 6 -13 5 -11 0 -14 -3 -6 -6z"/>
<path d="M6575 21560 c-3 -5 -1 -10 4 -10 6 0 11 5 11 10 0 6 -2 10 -4 10 -3
0 -8 -4 -11 -10z"/>
<path d="M46188 21563 c-60 -2 -108 -5 -108 -6 0 -2 -14 -70 -30 -152 -34
-164 -94 -523 -106 -622 l-7 -63 181 0 180 0 6 63 c3 34 12 193 21 352 9 160
18 323 22 363 l6 72 -29 -2 c-16 -1 -77 -4 -136 -5z"/>
<path d="M46376 21561 c-11 -18 -59 -818 -50 -833 3 -4 86 -8 185 -8 l179 0 0
48 c0 74 -37 696 -46 760 l-5 42 -129 0 c-71 0 -131 -4 -134 -9z"/>
<path d="M45602 21553 l-102 -4 -44 -87 c-48 -96 -134 -290 -173 -392 -23 -59
-123 -350 -123 -357 0 -5 234 -1 299 6 l64 6 52 210 c29 116 83 300 119 411
36 111 66 204 66 208 0 3 -12 5 -27 4 -16 -1 -74 -4 -131 -5z"/>
<path d="M45786 21533 c-40 -78 -173 -534 -230 -785 l-6 -28 180 0 c207 0 181
-16 200 125 25 181 105 622 126 698 5 16 -6 17 -125 17 l-130 0 -15 -27z"/>
<path d="M45032 21543 l-122 -4 -66 -82 c-84 -106 -276 -394 -347 -522 -70
-127 -122 -233 -116 -239 2 -2 85 -1 183 2 l180 7 37 93 c87 214 207 449 325
639 64 100 71 115 57 111 -5 -1 -63 -4 -131 -5z"/>
<path d="M45156 21467 c-78 -121 -159 -264 -225 -396 -68 -136 -165 -360 -159
-367 3 -2 85 -1 182 4 l178 7 68 195 c76 221 115 318 205 508 l64 132 -130 0
-129 0 -54 -83z"/>
<path d="M5858 21503 c7 -3 16 -2 19 1 4 3 -2 6 -13 5 -11 0 -14 -3 -6 -6z"/>
<path d="M5968 21503 c7 -3 16 -2 19 1 4 3 -2 6 -13 5 -11 0 -14 -3 -6 -6z"/>
<path d="M57560 21330 c20 -13 67 -13 75 0 4 6 -12 10 -42 10 -35 0 -44 -3
-33 -10z"/>
<path d="M63 21180 c0 -47 2 -66 4 -42 2 23 2 61 0 85 -2 23 -4 4 -4 -43z"/>
<path d="M56530 21256 c0 -8 61 -12 66 -4 3 4 -11 8 -30 8 -20 0 -36 -2 -36
-4z"/>
<path d="M56698 21243 c12 -2 30 -2 40 0 9 3 -1 5 -23 4 -22 0 -30 -2 -17 -4z"/>
<path d="M477 21073 c-3 -5 17 -8 43 -8 26 0 46 3 43 8 -2 4 -22 7 -43 7 -21
0 -41 -3 -43 -7z"/>
<path d="M148 21063 c6 -2 18 -2 25 0 6 3 1 5 -13 5 -14 0 -19 -2 -12 -5z"/>
<path d="M46389 20703 l-67 -4 -7 -152 c-9 -219 -23 -711 -20 -715 2 -2 97 -4
211 -4 199 -1 209 0 213 18 5 25 -18 742 -25 812 l-6 52 -117 -2 c-64 -1 -146
-3 -182 -5z"/>
<path d="M45669 20693 l-127 -4 -26 -137 c-48 -256 -106 -642 -106 -708 l0
-24 208 2 207 3 7 90 c23 287 59 652 74 748 l6 37 -59 -2 c-32 -1 -115 -4
-184 -5z"/>
<path d="M45936 20692 c-10 -17 -86 -764 -86 -854 0 -17 17 -18 209 -18 l209
0 6 73 c3 39 8 182 11 317 3 135 8 300 12 368 l6 122 -181 0 c-99 0 -183 -4
-186 -8z"/>
<path d="M45145 20658 c-34 -84 -185 -762 -185 -835 0 -14 22 -15 205 -11 112
2 206 6 209 9 2 2 16 92 30 199 29 213 65 435 95 579 l18 91 -179 0 -179 0
-14 -32z"/>
<path d="M44423 20673 l-62 -4 -22 -47 c-85 -191 -201 -519 -257 -727 l-29
-110 96 2 c53 2 151 6 217 9 l122 6 12 61 c36 185 166 644 227 804 5 13 -134
15 -304 6z"/>
<path d="M44745 20644 c-55 -131 -235 -769 -235 -831 0 -10 31 -13 138 -12 75
1 171 4 212 8 l75 6 7 50 c23 142 85 442 129 615 27 107 49 195 49 197 0 2
-81 3 -180 3 l-180 0 -15 -36z"/>
<path d="M45539 19793 l-136 -4 -7 -47 c-21 -161 -73 -820 -65 -825 2 -1 104
-1 225 1 l222 3 7 147 c3 81 13 262 21 402 7 140 14 272 14 293 l0 37 -72 -2
c-40 -1 -134 -4 -209 -5z"/>
<path d="M45846 19748 c-8 -68 -24 -359 -31 -558 -3 -85 -8 -181 -11 -212 l-5
-58 225 0 c124 0 227 3 229 8 3 4 8 202 12 440 l7 432 -210 0 -211 0 -5 -52z"/>
<path d="M44978 19783 c-16 -2 -28 -8 -28 -12 0 -5 -9 -66 -20 -137 -18 -118
-59 -475 -75 -651 l-7 -73 225 0 226 0 5 53 c3 28 11 126 17 217 6 91 19 253
30 360 10 107 19 207 19 223 l0 27 -182 -1 c-101 -1 -195 -4 -210 -6z"/>
<path d="M44481 19668 c-57 -308 -118 -756 -104 -767 4 -3 107 -4 228 -1 l220
5 22 220 c22 223 70 605 79 638 5 16 -10 17 -209 17 l-215 0 -21 -112z"/>
<path d="M46329 18903 l-46 -4 -6 -157 c-4 -86 -7 -284 -7 -440 l0 -282 237 2
238 3 -2 75 c0 41 -2 240 -2 443 l-1 367 -182 -2 c-101 -1 -204 -3 -229 -5z"/>
<path d="M45520 18891 l-195 -6 -6 -115 c-12 -216 -32 -751 -28 -754 2 -2 108
-2 235 1 l231 6 9 371 c4 204 8 400 9 436 l0 65 -30 1 c-16 0 -118 -2 -225 -5z"/>
<path d="M45805 18888 c-4 -12 -25 -685 -25 -810 l0 -58 235 0 235 0 0 253 c0
138 3 336 7 440 l6 187 -227 0 c-172 0 -228 -3 -231 -12z"/>
<path d="M44948 18883 c-92 -4 -98 -5 -102 -26 -10 -46 -46 -658 -46 -773 l0
-81 228 5 c151 3 229 8 234 16 4 6 8 61 8 121 0 115 15 480 26 648 l6 97 -128
-2 c-71 -1 -173 -4 -226 -5z"/>
<path d="M44365 18858 c-12 -53 -70 -856 -63 -864 2 -1 108 0 236 3 l232 6 4
31 c3 17 8 108 11 201 3 94 12 265 20 380 8 116 15 222 15 238 l0 27 -225 0
-225 0 -5 -22z"/>
<path d="M46358 18003 l-88 -4 0 -439 0 -440 241 0 240 0 -2 433 c-1 237 -4
438 -6 445 -5 12 -146 14 -385 5z"/>
<path d="M45514 17992 l-221 -2 -6 -98 c-4 -53 -7 -252 -7 -440 l0 -344 233 7
c127 4 233 8 234 9 7 6 5 870 -3 870 -5 1 -108 0 -230 -2z"/>
<path d="M45777 17723 c-4 -153 -7 -351 -7 -440 l0 -163 240 0 240 0 0 440 0
440 -233 0 -234 0 -6 -277z"/>
<path d="M44935 17980 l-140 -5 -6 -180 c-4 -99 -7 -296 -8 -437 l-1 -257 233
6 c127 3 233 6 233 7 1 0 5 198 9 439 l8 437 -94 -2 c-52 -1 -157 -5 -234 -8z"/>
<path d="M44364 17973 l-61 -4 -6 -90 c-4 -50 -10 -248 -14 -441 l-6 -349 239
7 c131 4 240 7 240 8 1 0 4 198 7 439 l6 437 -172 -2 c-94 -1 -199 -3 -233 -5z"/>
<path d="M45774 17087 c-2 -7 -3 -71 -2 -143 l3 -129 238 -3 237 -2 0 145 0
145 -235 0 c-184 0 -237 -3 -241 -13z"/>
<path d="M44957 17083 l-178 -3 3 -133 3 -132 233 -3 232 -2 0 140 0 140 -57
-2 c-32 -1 -138 -4 -236 -5z"/>
<path d="M45280 16950 l0 -140 235 0 235 0 0 140 0 140 -235 0 -235 0 0 -140z"/>
<path d="M44368 17073 l-88 -4 0 -130 0 -129 238 2 237 3 3 133 3 132 -153 -2
c-84 -1 -192 -4 -240 -5z"/>
<path d="M36055 15950 c-4 -6 -11 -8 -16 -4 -15 9 -6 -20 11 -33 13 -11 5 -23
-57 -83 -52 -49 -67 -70 -54 -70 11 0 49 35 92 86 73 84 101 126 61 91 -20
-18 -40 -8 -27 13 3 6 4 10 1 10 -3 0 -8 -5 -11 -10z"/>
<path d="M35919 15859 c-30 -22 -76 -54 -102 -71 -26 -17 -45 -33 -42 -36 6
-6 122 71 175 117 50 43 33 38 -31 -10z"/>
<path d="M35872 15610 l-134 -140 44 0 43 0 90 116 c142 183 130 164 108 164
-10 0 -76 -62 -151 -140z"/>
<path d="M18748 14573 c6 -2 18 -2 25 0 6 3 1 5 -13 5 -14 0 -19 -2 -12 -5z"/>
<path d="M18818 14563 c7 -3 16 -2 19 1 4 3 -2 6 -13 5 -11 0 -14 -3 -6 -6z"/>
<path d="M18863 14553 c9 -2 23 -2 30 0 6 3 -1 5 -18 5 -16 0 -22 -2 -12 -5z"/>
<path d="M18755 14300 c-3 -5 -1 -10 4 -10 6 0 11 5 11 10 0 6 -2 10 -4 10 -3
0 -8 -4 -11 -10z"/>
<path d="M18921 13644 c0 -11 3 -14 6 -6 3 7 2 16 -1 19 -3 4 -6 -2 -5 -13z"/>
<path d="M19200 13269 c0 -5 5 -7 10 -4 6 3 10 8 10 11 0 2 -4 4 -10 4 -5 0
-10 -5 -10 -11z"/>
<path d="M23948 12403 c7 -3 16 -2 19 1 4 3 -2 6 -13 5 -11 0 -14 -3 -6 -6z"/>
<path d="M24840 12026 c0 -2 11 -6 25 -8 13 -3 22 -1 19 3 -5 9 -44 13 -44 5z"/>
<path d="M28288 11803 c6 -2 18 -2 25 0 6 3 1 5 -13 5 -14 0 -19 -2 -12 -5z"/>
</g>
</svg>
