<svg width="34" height="34" viewBox="0 0 34 34" fill="none" xmlns="http://www.w3.org/2000/svg">
<mask id="path-1-inside-1_302_1789" fill="white">
<path d="M20.0111 16.7646C19.8435 16.7646 19.6879 16.7185 19.5496 16.6444V16.6463C19.5496 16.91 19.4471 17.1577 19.2612 17.3431C19.0752 17.5291 18.8277 17.6316 18.5643 17.6316C18.3943 17.6316 18.2367 17.5844 18.097 17.5083C18.0828 17.7495 17.9864 17.975 17.8144 18.1472C17.6284 18.3332 17.381 18.4357 17.1174 18.4357C16.5938 18.4357 16.1685 18.024 16.1379 17.5081C15.9759 17.5957 15.7927 17.6416 15.6037 17.6295C15.0886 17.5957 14.6852 17.1506 14.6852 16.616V12.1844L14.1806 13.0586C13.9884 13.393 13.6286 13.6006 13.2412 13.6006C13.0525 13.6006 12.866 13.5511 12.7009 13.4564C12.4952 13.3372 12.3481 13.1458 12.287 12.9169C12.2255 12.6878 12.2573 12.4482 12.3762 12.2429C12.3763 12.2429 14.0273 9.38395 14.128 9.20834C14.1399 9.18194 14.1741 9.10536 14.2031 9.04009C14.2308 8.97777 14.2546 8.91381 14.2774 8.84953C14.7752 7.44397 16.008 6.57087 17.4947 6.57087C19.4254 6.57087 20.9961 8.27408 20.9961 10.3676L20.9963 15.7791C20.9963 16.0425 20.894 16.29 20.7082 16.4761C20.5222 16.6621 20.2747 16.7646 20.0111 16.7646L20.0111 16.7646ZM17.4948 7.09441C16.2172 7.09441 15.199 7.816 14.7708 9.02462C14.7435 9.10137 14.7149 9.17811 14.6816 9.2529C14.585 9.46953 14.585 9.46953 14.5578 9.50069L14.5542 9.49757C14.4194 9.75192 14.0189 10.4454 12.8295 12.5049C12.7806 12.5893 12.7677 12.6874 12.7926 12.7812C12.8179 12.875 12.8784 12.954 12.9622 13.0024C13.2223 13.1518 13.5785 13.0554 13.7267 12.7971L14.7203 11.0768C14.7797 10.9743 14.8997 10.924 15.0149 10.9551C15.1293 10.9858 15.2089 11.0896 15.2089 11.208V16.6161C15.2089 16.8713 15.4014 17.0915 15.6381 17.1071C15.7745 17.1143 15.9018 17.0686 15.9974 16.9731C16.0843 16.8862 16.1322 16.7704 16.1322 16.6466V13.1096C16.1322 12.965 16.2494 12.8477 16.3941 12.8477C16.5387 12.8477 16.656 12.9648 16.656 13.1096L16.6558 17.4506C16.6558 17.7051 16.8629 17.9122 17.1174 17.9122C17.2411 17.9122 17.3572 17.8643 17.4443 17.7774C17.5312 17.6903 17.5791 17.5742 17.5791 17.4506V13.1096C17.5791 12.965 17.6962 12.8477 17.841 12.8477C17.9856 12.8477 18.1029 12.9648 18.1029 13.1096L18.1027 16.6059V16.6466C18.1027 16.901 18.3098 17.1081 18.5645 17.1081C18.688 17.1081 18.8038 17.06 18.8913 16.9728C18.9783 16.886 19.0261 16.7703 19.0261 16.6464V13.1094C19.0261 12.9648 19.1432 12.8476 19.288 12.8476C19.4327 12.8476 19.5499 12.9646 19.5499 13.1094L19.5496 15.7793C19.5496 16.0339 19.7567 16.2411 20.0111 16.2411C20.1349 16.2411 20.2507 16.193 20.3376 16.1063C20.4248 16.019 20.4725 15.9029 20.4725 15.7793L20.4727 10.3678C20.4727 8.56304 19.1368 7.09446 17.4947 7.09446L17.4948 7.09441Z"/>
</mask>
<path d="M20.0111 16.7646C19.8435 16.7646 19.6879 16.7185 19.5496 16.6444V16.6463C19.5496 16.91 19.4471 17.1577 19.2612 17.3431C19.0752 17.5291 18.8277 17.6316 18.5643 17.6316C18.3943 17.6316 18.2367 17.5844 18.097 17.5083C18.0828 17.7495 17.9864 17.975 17.8144 18.1472C17.6284 18.3332 17.381 18.4357 17.1174 18.4357C16.5938 18.4357 16.1685 18.024 16.1379 17.5081C15.9759 17.5957 15.7927 17.6416 15.6037 17.6295C15.0886 17.5957 14.6852 17.1506 14.6852 16.616V12.1844L14.1806 13.0586C13.9884 13.393 13.6286 13.6006 13.2412 13.6006C13.0525 13.6006 12.866 13.5511 12.7009 13.4564C12.4952 13.3372 12.3481 13.1458 12.287 12.9169C12.2255 12.6878 12.2573 12.4482 12.3762 12.2429C12.3763 12.2429 14.0273 9.38395 14.128 9.20834C14.1399 9.18194 14.1741 9.10536 14.2031 9.04009C14.2308 8.97777 14.2546 8.91381 14.2774 8.84953C14.7752 7.44397 16.008 6.57087 17.4947 6.57087C19.4254 6.57087 20.9961 8.27408 20.9961 10.3676L20.9963 15.7791C20.9963 16.0425 20.894 16.29 20.7082 16.4761C20.5222 16.6621 20.2747 16.7646 20.0111 16.7646L20.0111 16.7646ZM17.4948 7.09441C16.2172 7.09441 15.199 7.816 14.7708 9.02462C14.7435 9.10137 14.7149 9.17811 14.6816 9.2529C14.585 9.46953 14.585 9.46953 14.5578 9.50069L14.5542 9.49757C14.4194 9.75192 14.0189 10.4454 12.8295 12.5049C12.7806 12.5893 12.7677 12.6874 12.7926 12.7812C12.8179 12.875 12.8784 12.954 12.9622 13.0024C13.2223 13.1518 13.5785 13.0554 13.7267 12.7971L14.7203 11.0768C14.7797 10.9743 14.8997 10.924 15.0149 10.9551C15.1293 10.9858 15.2089 11.0896 15.2089 11.208V16.6161C15.2089 16.8713 15.4014 17.0915 15.6381 17.1071C15.7745 17.1143 15.9018 17.0686 15.9974 16.9731C16.0843 16.8862 16.1322 16.7704 16.1322 16.6466V13.1096C16.1322 12.965 16.2494 12.8477 16.3941 12.8477C16.5387 12.8477 16.656 12.9648 16.656 13.1096L16.6558 17.4506C16.6558 17.7051 16.8629 17.9122 17.1174 17.9122C17.2411 17.9122 17.3572 17.8643 17.4443 17.7774C17.5312 17.6903 17.5791 17.5742 17.5791 17.4506V13.1096C17.5791 12.965 17.6962 12.8477 17.841 12.8477C17.9856 12.8477 18.1029 12.9648 18.1029 13.1096L18.1027 16.6059V16.6466C18.1027 16.901 18.3098 17.1081 18.5645 17.1081C18.688 17.1081 18.8038 17.06 18.8913 16.9728C18.9783 16.886 19.0261 16.7703 19.0261 16.6464V13.1094C19.0261 12.9648 19.1432 12.8476 19.288 12.8476C19.4327 12.8476 19.5499 12.9646 19.5499 13.1094L19.5496 15.7793C19.5496 16.0339 19.7567 16.2411 20.0111 16.2411C20.1349 16.2411 20.2507 16.193 20.3376 16.1063C20.4248 16.019 20.4725 15.9029 20.4725 15.7793L20.4727 10.3678C20.4727 8.56304 19.1368 7.09446 17.4947 7.09446L17.4948 7.09441Z" fill="#4CAF4F"/>
<path d="M20.0111 16.7646V15.8365H23.2901L20.4975 17.555L20.0111 16.7646ZM19.5496 16.6444H18.6215V15.0936L19.9882 15.8264L19.5496 16.6444ZM19.2612 17.3431L18.6049 16.6869L18.6058 16.686L19.2612 17.3431ZM18.097 17.5083L17.1704 17.4541L17.2558 15.9934L18.5408 16.6932L18.097 17.5083ZM17.8144 18.1472L18.471 18.8031L18.4707 18.8035L17.8144 18.1472ZM16.1379 17.5081L15.6966 16.6916L16.978 15.9991L17.0643 17.4531L16.1379 17.5081ZM15.6037 17.6295L15.5442 18.5557L15.543 18.5556L15.6037 17.6295ZM14.6852 12.1844L13.8814 11.7204L15.6133 8.71998V12.1844H14.6852ZM14.1806 13.0586L13.3759 12.5961L13.3768 12.5946L14.1806 13.0586ZM12.7009 13.4564L12.2395 14.2617L12.2354 14.2593L12.7009 13.4564ZM12.287 12.9169L13.1833 12.6763L13.1836 12.6773L12.287 12.9169ZM12.3762 12.2429L11.573 11.7778L11.8411 11.3148H12.3762V12.2429ZM14.128 9.20834L14.9732 9.5916L14.955 9.63179L14.9331 9.67007L14.128 9.20834ZM14.2031 9.04009L13.3551 8.66296L13.3551 8.66295L14.2031 9.04009ZM14.2774 8.84953L15.1522 9.1594L15.1521 9.15966L14.2774 8.84953ZM20.9961 10.3676L20.068 10.3677V10.3676H20.9961ZM20.9963 15.7791L21.9244 15.7791V15.7791H20.9963ZM20.7082 16.4761L21.365 17.1318L21.3644 17.1324L20.7082 16.4761ZM20.0111 16.7646V17.6927H16.7321L19.5246 15.9742L20.0111 16.7646ZM17.4948 7.09441V6.16632H18.7252L18.3871 7.34938L17.4948 7.09441ZM14.7708 9.02462L15.6457 9.33454L15.6449 9.33654L14.7708 9.02462ZM14.6816 9.2529L15.5295 9.63035L15.5293 9.63084L14.6816 9.2529ZM14.5578 9.50069L15.2567 10.1113L14.6496 10.8062L13.9512 10.2031L14.5578 9.50069ZM14.5542 9.49757L13.7342 9.06297L14.2795 8.03401L15.1608 8.79517L14.5542 9.49757ZM12.8295 12.5049L13.6332 12.969L13.6328 12.9697L12.8295 12.5049ZM12.7926 12.7812L11.8964 13.0225L11.8956 13.0196L12.7926 12.7812ZM12.9622 13.0024L12.4999 13.8072L12.4982 13.8062L12.9622 13.0024ZM13.7267 12.7971L12.9218 12.3351L12.923 12.3329L13.7267 12.7971ZM14.7203 11.0768L13.9167 10.6126L13.9172 10.6116L14.7203 11.0768ZM15.0149 10.9551L14.7747 11.8516L14.7724 11.851L15.0149 10.9551ZM15.6381 17.1071L15.589 18.034L15.5771 18.0332L15.6381 17.1071ZM15.9974 16.9731L16.6536 17.6294L16.653 17.63L15.9974 16.9731ZM16.656 13.1096H17.584V13.1097L16.656 13.1096ZM16.6558 17.4506H15.7277V17.4505L16.6558 17.4506ZM17.4443 17.7774L18.1011 18.4331L18.0999 18.4343L17.4443 17.7774ZM18.1029 13.1096H19.031V13.1097L18.1029 13.1096ZM18.1027 16.6059H17.1746V16.6059L18.1027 16.6059ZM18.8913 16.9728L19.547 17.6297L19.5464 17.6303L18.8913 16.9728ZM19.5499 13.1094H20.478V13.1096L19.5499 13.1094ZM19.5496 15.7793H18.6215V15.7791L19.5496 15.7793ZM20.3376 16.1063L20.9938 16.7625L20.9932 16.7631L20.3376 16.1063ZM20.4725 15.7793H19.5444V15.7792L20.4725 15.7793ZM20.4727 10.3678H21.4008V10.3678L20.4727 10.3678ZM17.4947 7.09446V8.02256H16.2643L16.6024 6.8395L17.4947 7.09446ZM20.0111 17.6927C19.6693 17.6927 19.3642 17.598 19.111 17.4623L19.9882 15.8264C20.0002 15.8329 20.0078 15.8353 20.0108 15.8361C20.0134 15.8368 20.0131 15.8365 20.0111 15.8365V17.6927ZM20.4777 16.6444V16.6463H18.6215V16.6444H20.4777ZM20.4777 16.6463C20.4777 17.1554 20.2779 17.6398 19.9165 18.0003L18.6058 16.686C18.6124 16.6794 18.6157 16.6737 18.6176 16.6691C18.6195 16.6644 18.6215 16.6573 18.6215 16.6463H20.4777ZM19.9174 17.9994C19.5572 18.3596 19.0737 18.5597 18.5643 18.5597V16.7035C18.575 16.7035 18.582 16.7016 18.5868 16.6996C18.5915 16.6976 18.5976 16.6941 18.6049 16.6869L19.9174 17.9994ZM18.5643 18.5597C18.2181 18.5597 17.9092 18.4628 17.6531 18.3234L18.5408 16.6932C18.5529 16.6998 18.5606 16.7023 18.5636 16.7031C18.5662 16.7038 18.566 16.7035 18.5643 16.7035V18.5597ZM19.0235 17.5624C18.9968 18.0193 18.8114 18.4623 18.471 18.8031L17.1578 17.4913C17.1612 17.4878 17.1632 17.4848 17.1649 17.481C17.1667 17.4768 17.1696 17.4683 17.1704 17.4541L19.0235 17.5624ZM18.4707 18.8035C18.1104 19.1637 17.6268 19.3638 17.1174 19.3638V17.5076C17.1282 17.5076 17.1353 17.5056 17.14 17.5037C17.1448 17.5017 17.1509 17.4982 17.1581 17.4909L18.4707 18.8035ZM17.1174 19.3638C16.0928 19.3638 15.2706 18.5596 15.2114 17.5632L17.0643 17.4531C17.0653 17.4689 17.0717 17.4827 17.0832 17.4936C17.0887 17.4989 17.0944 17.5023 17.0993 17.5044C17.1036 17.5061 17.1091 17.5076 17.1174 17.5076V19.3638ZM16.5792 18.3246C16.2794 18.4866 15.9239 18.58 15.5442 18.5557L15.6632 16.7033C15.6633 16.7033 15.6652 16.7035 15.6701 16.7023C15.6754 16.7011 15.6844 16.6982 15.6966 16.6916L16.5792 18.3246ZM15.543 18.5556C14.5125 18.488 13.7571 17.6116 13.7571 16.616H15.6133C15.6133 16.6474 15.6247 16.6715 15.639 16.6873C15.6529 16.7026 15.6624 16.7032 15.6645 16.7034L15.543 18.5556ZM13.7571 16.616V12.1844H15.6133V16.616H13.7571ZM15.489 12.6483L14.9844 13.5226L13.3768 12.5946L13.8814 11.7204L15.489 12.6483ZM14.9852 13.5211C14.6266 14.145 13.9591 14.5287 13.2412 14.5287V12.6725C13.2981 12.6725 13.3502 12.6409 13.3759 12.5961L14.9852 13.5211ZM13.2412 14.5287C12.8903 14.5287 12.5448 14.4366 12.2395 14.2617L13.1623 12.6512C13.1873 12.6655 13.2147 12.6725 13.2412 12.6725V14.5287ZM12.2354 14.2593C11.8187 14.0178 11.5154 13.6247 11.3903 13.1564L13.1836 12.6773C13.1828 12.6741 13.1805 12.6685 13.176 12.6627C13.1715 12.6569 13.1674 12.6541 13.1664 12.6535L12.2354 14.2593ZM11.3906 13.1575C11.265 12.6896 11.3308 12.1962 11.573 11.7778L13.1794 12.7079C13.1807 12.7056 13.183 12.7003 13.184 12.6928C13.185 12.6853 13.1841 12.6793 13.1833 12.6763L11.3906 13.1575ZM12.3762 11.3148C11.9209 11.4341 11.5802 11.7657 11.5776 11.77C11.5768 11.7714 11.5755 11.7735 11.5751 11.7742C11.5749 11.7746 11.5745 11.7753 11.5743 11.7755C11.5743 11.7757 11.5741 11.776 11.574 11.776C11.5739 11.7763 11.574 11.7762 11.5743 11.7756C11.5749 11.7745 11.576 11.7727 11.5775 11.77C11.5806 11.7647 11.5852 11.7568 11.5912 11.7463C11.6033 11.7254 11.6211 11.6947 11.6437 11.6554C11.6891 11.577 11.7539 11.4646 11.8321 11.3293C11.9885 11.0585 12.198 10.6957 12.4106 10.3274C12.8366 9.58953 13.2734 8.83288 13.3229 8.74662L14.9331 9.67007C14.8818 9.75942 14.4428 10.52 14.0181 11.2555C13.8054 11.6239 13.5959 11.9868 13.4395 12.2575C13.3613 12.3929 13.2964 12.5053 13.251 12.5839C13.2283 12.6232 13.2105 12.654 13.1983 12.6751C13.1923 12.6856 13.1876 12.6937 13.1843 12.6993C13.1828 12.702 13.1814 12.7043 13.1805 12.706C13.18 12.7067 13.1795 12.7077 13.1789 12.7086C13.1787 12.709 13.1781 12.71 13.1774 12.7112C13.177 12.712 13.1757 12.7142 13.1748 12.7157C13.1722 12.72 12.8314 13.0516 12.3762 13.1709V11.3148ZM13.2827 8.82508C13.2929 8.80255 13.3253 8.72991 13.3551 8.66296L15.0511 9.41721C15.0228 9.48081 14.987 9.56133 14.9732 9.5916L13.2827 8.82508ZM13.3551 8.66295C13.368 8.63395 13.3822 8.59689 13.4026 8.5394L15.1521 9.15966C15.1269 9.23074 15.0936 9.32159 15.0511 9.41723L13.3551 8.66295ZM13.4025 8.53965C14.0311 6.76504 15.6133 5.64277 17.4947 5.64277V7.49896C16.4027 7.49896 15.5193 8.1229 15.1522 9.1594L13.4025 8.53965ZM17.4947 5.64277C20.0073 5.64277 21.9242 7.83371 21.9242 10.3676H20.068C20.068 8.71445 18.8435 7.49896 17.4947 7.49896V5.64277ZM21.9242 10.3676L21.9244 15.7791L20.0682 15.7792L20.068 10.3677L21.9242 10.3676ZM21.9244 15.7791C21.9244 16.2881 21.7247 16.7714 21.365 17.1318L20.0513 15.8205C20.0586 15.8131 20.0622 15.8069 20.0642 15.802C20.0662 15.7971 20.0682 15.79 20.0682 15.7791H21.9244ZM21.3644 17.1324C21.0042 17.4927 20.5205 17.6927 20.0111 17.6927V15.8365C20.022 15.8365 20.0291 15.8345 20.0338 15.8325C20.0386 15.8306 20.0447 15.8271 20.0519 15.8199L21.3644 17.1324ZM19.5246 15.9742L19.5247 15.9741L20.4975 17.555L20.4975 17.555L19.5246 15.9742ZM17.4948 8.0225C16.6124 8.0225 15.9432 8.49454 15.6457 9.33454L13.896 8.7147C14.4548 7.13745 15.8221 6.16632 17.4948 6.16632V8.0225ZM15.6449 9.33654C15.6157 9.41863 15.5776 9.52232 15.5295 9.63035L13.8338 8.87544C13.8522 8.83391 13.8713 8.7841 13.8967 8.7127L15.6449 9.33654ZM15.5293 9.63084C15.4868 9.72616 15.4512 9.80666 15.4239 9.86119C15.407 9.89503 15.3796 9.94719 15.3399 10.005C15.2997 10.0635 15.2599 10.1076 15.2567 10.1113L13.8589 8.89003C13.8611 8.88754 13.8604 8.88835 13.8593 8.88963C13.8579 8.89127 13.8543 8.89548 13.8495 8.90125C13.8446 8.90722 13.8384 8.91494 13.8315 8.92412C13.8245 8.93338 13.8173 8.94323 13.8102 8.95362C13.7956 8.97478 13.7845 8.99331 13.7765 9.00733C13.7691 9.02041 13.7645 9.02946 13.7635 9.0315C13.7624 9.03361 13.7631 9.03237 13.7662 9.02562C13.7693 9.01908 13.7736 9.00965 13.7798 8.99594C13.786 8.98234 13.7934 8.96592 13.8024 8.94563C13.8115 8.92537 13.8218 8.90216 13.834 8.87495L15.5293 9.63084ZM13.9512 10.2031L13.9476 10.2L15.1608 8.79517L15.1644 8.79828L13.9512 10.2031ZM15.3743 9.93217C15.229 10.2063 14.8143 10.924 13.6332 12.969L12.0258 12.0407C13.2236 9.96691 13.6098 9.2976 13.7342 9.06297L15.3743 9.93217ZM13.6328 12.9697C13.7071 12.8414 13.7278 12.6865 13.6896 12.5428L11.8956 13.0196C11.8076 12.6883 11.8542 12.3373 12.0262 12.04L13.6328 12.9697ZM13.6888 12.5399C13.6506 12.3981 13.5567 12.274 13.4262 12.1986L12.4982 13.8062C12.2 13.6341 11.9851 13.3519 11.8964 13.0225L13.6888 12.5399ZM13.4244 12.1976C13.3188 12.137 13.216 12.1374 13.1451 12.1565C13.0744 12.1755 12.9838 12.227 12.9218 12.3351L14.5316 13.2591C14.1272 13.9638 13.2028 14.2109 12.4999 13.8072L13.4244 12.1976ZM12.923 12.3329L13.9167 10.6126L15.524 11.541L14.5304 13.2613L12.923 12.3329ZM13.9172 10.6116C14.1853 10.1488 14.7325 9.91721 15.2573 10.0593L14.7724 11.851C15.067 11.9307 15.3741 11.7998 15.5234 11.542L13.9172 10.6116ZM15.255 10.0586C15.7757 10.1981 16.137 10.67 16.137 11.208H14.2808C14.2808 11.5092 14.483 11.7734 14.7747 11.8516L15.255 10.0586ZM16.137 11.208V16.6161H14.2808V11.208H16.137ZM16.137 16.6161C16.137 16.5104 16.0978 16.4142 16.0335 16.3407C15.9693 16.2672 15.8559 16.1914 15.699 16.181L15.5771 18.0332C14.7958 17.9818 14.2808 17.3012 14.2808 16.6161H16.137ZM15.6871 16.1803C15.5774 16.1745 15.4435 16.2147 15.3417 16.3163L16.653 17.63C16.36 17.9225 15.9716 18.0541 15.589 18.0339L15.6871 16.1803ZM15.3411 16.3169C15.253 16.4049 15.2041 16.5256 15.2041 16.6466H17.0603C17.0603 17.0152 16.9155 17.3675 16.6536 17.6294L15.3411 16.3169ZM15.2041 16.6466V13.1096H17.0603V16.6466H15.2041ZM15.2041 13.1096C15.2041 12.4524 15.7368 11.9196 16.3941 11.9196V13.7758C16.762 13.7758 17.0603 13.4776 17.0603 13.1096H15.2041ZM16.3941 11.9196C17.0509 11.9196 17.584 12.4519 17.584 13.1096H15.7279C15.7279 13.4778 16.0265 13.7758 16.3941 13.7758V11.9196ZM17.584 13.1097L17.5839 17.4506L15.7277 17.4505L15.7279 13.1096L17.584 13.1097ZM17.5839 17.4506C17.5839 17.1925 17.3755 16.9841 17.1174 16.9841V18.8403C16.3503 18.8403 15.7277 18.2177 15.7277 17.4506H17.5839ZM17.1174 16.9841C16.9966 16.9841 16.8765 17.0328 16.7886 17.1205L18.0999 18.4343C17.8378 18.6959 17.4855 18.8403 17.1174 18.8403V16.9841ZM16.7874 17.1218C16.6996 17.2097 16.651 17.3298 16.651 17.4506H18.5072C18.5072 17.8187 18.3627 18.171 18.1011 18.4331L16.7874 17.1218ZM16.651 17.4506V13.1096H18.5072V17.4506H16.651ZM16.651 13.1096C16.651 12.4528 17.1832 11.9196 17.841 11.9196V13.7758C18.2091 13.7758 18.5072 13.4772 18.5072 13.1096H16.651ZM17.841 11.9196C18.4978 11.9196 19.031 12.4519 19.031 13.1096H17.1748C17.1748 13.4778 17.4734 13.7758 17.841 13.7758V11.9196ZM19.031 13.1097L19.0308 16.606L17.1746 16.6059L17.1748 13.1096L19.031 13.1097ZM19.0308 16.6059V16.6466H17.1746V16.6059H19.0308ZM19.0308 16.6466C19.0308 16.3879 18.8219 16.18 18.5645 16.18V18.0362C17.7977 18.0362 17.1746 17.414 17.1746 16.6466H19.0308ZM18.5645 16.18C18.4412 16.18 18.3218 16.2301 18.2363 16.3153L19.5464 17.6303C19.2857 17.8899 18.9348 18.0362 18.5645 18.0362V16.18ZM18.2357 16.3159C18.1469 16.4045 18.098 16.5256 18.098 16.6464H19.9542C19.9542 17.0149 19.8096 17.3675 19.547 17.6297L18.2357 16.3159ZM18.098 16.6464V13.1094H19.9542V16.6464H18.098ZM18.098 13.1094C18.098 12.4526 18.6303 11.9195 19.288 11.9195V13.7756C19.6562 13.7756 19.9542 13.477 19.9542 13.1094H18.098ZM19.288 11.9195C19.9449 11.9195 20.478 12.4517 20.478 13.1094H18.6218C18.6218 13.4776 18.9205 13.7756 19.288 13.7756V11.9195ZM20.478 13.1096L20.4777 15.7794L18.6215 15.7791L18.6218 13.1093L20.478 13.1096ZM20.4777 15.7793C20.4777 15.5218 20.2697 15.313 20.0111 15.313V17.1692C19.2437 17.1692 18.6215 16.5461 18.6215 15.7793H20.4777ZM20.0111 15.313C19.8893 15.313 19.7692 15.3623 19.6819 15.4494L20.9932 16.7631C20.7321 17.0238 20.3804 17.1692 20.0111 17.1692V15.313ZM19.6813 15.45C19.5929 15.5384 19.5444 15.659 19.5444 15.7793H21.4006C21.4006 16.1468 21.2567 16.4997 20.9938 16.7625L19.6813 15.45ZM19.5444 15.7792L19.5446 10.3677L21.4008 10.3678L21.4006 15.7793L19.5444 15.7792ZM19.5446 10.3678C19.5446 8.99103 18.5436 8.02256 17.4947 8.02256V6.16637C19.7301 6.16637 21.4008 8.13505 21.4008 10.3678H19.5446ZM16.6024 6.8395L16.6024 6.83944L18.3871 7.34938L18.3871 7.34943L16.6024 6.8395Z" fill="#4CAF4F" mask="url(#path-1-inside-1_302_1789)"/>
<path d="M11.5285 21.7395C11.4042 21.8142 11.2435 21.7739 11.1692 21.6498C11.0947 21.5258 11.1351 21.3649 11.2589 21.2904M11.5285 21.7395L13.7911 18.6949C14.0097 18.5636 14.298 18.6154 14.4328 18.8104M11.5285 21.7395L14.5614 19.92H14.5615L14.5619 19.9198M11.5285 21.7395L15.7259 20.2981C15.8318 20.2345 15.9066 20.1338 15.9364 20.0142M11.2589 21.2904L14.2919 19.4709C14.3979 19.4073 14.4728 19.3065 14.5027 19.1872M11.2589 21.2904L11.2896 21.3416L11.3936 21.515L11.3938 21.5153L11.4407 21.5935L11.4976 21.6884L11.4977 21.6883L11.4978 21.6883L11.498 21.6881M11.2589 21.2904L11.2897 21.3416M14.5027 19.1872C14.5355 19.0564 14.5105 18.9226 14.4328 18.8104M14.5027 19.1872L14.5775 19.206L14.5704 19.0521C14.5654 18.9462 14.5345 18.8522 14.482 18.7766L14.4819 18.7764L14.4328 18.8104M14.5027 19.1872L14.5775 19.206L14.5849 19.3648L14.4331 19.4559H14.4328L14.3226 19.522L14.3226 19.522L14.3226 19.5221L11.2898 21.3415M14.4328 18.8104L14.4819 18.7764L12.2425 22.9289C12.3378 22.8716 12.3693 22.7477 12.3115 22.6516C12.2543 22.5562 12.13 22.5249 12.0343 22.5823L15.0672 20.7629C15.1369 20.721 15.2099 20.6894 15.2845 20.6677L15.7549 20.3465L15.7549 20.3465L15.7808 20.3288C15.8912 20.2534 15.9642 20.149 15.9942 20.0288L15.9942 20.0287L15.9364 20.0142M11.2898 21.3415C11.3852 21.2845 11.5094 21.3154 11.567 21.4108C11.5671 21.4111 11.5673 21.4113 11.5674 21.4115C11.6246 21.5075 11.5931 21.631 11.498 21.6881M11.2898 21.3415C11.2897 21.3415 11.2897 21.3416 11.2897 21.3416M11.2898 21.3415L11.2897 21.3416M11.498 21.6881L14.5307 19.8689L14.5307 19.8688L14.5309 19.8687C14.531 19.8687 14.531 19.8686 14.5311 19.8686L14.5614 19.919L14.5615 19.9192L14.5619 19.9198M11.498 21.6881L11.394 21.5152L11.3938 21.5148L11.3587 21.4563L11.2897 21.3416M14.5619 19.9198V19.8493C14.6204 19.811 14.6739 19.7666 14.7218 19.717L15.221 19.4564L15.221 19.4564L15.2486 19.442C15.3289 19.4001 15.4098 19.3805 15.4867 19.3805C15.5283 19.3805 15.5711 19.3856 15.6148 19.3965C15.6148 19.3965 15.6149 19.3965 15.6149 19.3965C15.615 19.3965 15.6152 19.3966 15.6153 19.3966L15.713 19.0042M14.5619 19.9198L15.251 19.5064C15.3566 19.4431 15.4802 19.4245 15.6004 19.4544C15.72 19.4842 15.8208 19.559 15.8843 19.6648C15.9478 19.7707 15.9663 19.8949 15.9364 20.0142M15.713 19.0042C15.713 19.0042 15.713 19.0042 15.713 19.0042M15.713 19.0042C15.9521 19.0639 16.1555 19.2149 16.2821 19.4259L16.3332 19.3953M15.713 19.0042L15.7274 18.9463M15.713 19.0042L15.615 19.3965C15.7507 19.4304 15.8632 19.5138 15.9353 19.6339C15.9353 19.634 15.9353 19.6341 15.9354 19.6341C15.9354 19.6341 15.9354 19.6341 15.9354 19.6342C16.0077 19.7549 16.0281 19.8933 15.9942 20.0285L15.9942 20.0287L15.9364 20.0142M15.713 19.0042C15.7129 19.0042 15.7129 19.0042 15.7128 19.0041L15.7122 19.004C15.6405 18.9862 15.5679 18.9771 15.4956 18.9764M15.713 19.0042L15.7274 18.9463M15.2754 21.1095L15.537 20.9526L15.8067 21.1117C15.8875 21.1594 15.9486 21.219 15.9899 21.288L15.99 21.2883C15.99 21.2883 15.9901 21.2884 15.9901 21.2885L15.9392 21.3191M15.2754 21.1095L16.0492 21.6831C16.0829 21.5474 16.0623 21.4091 15.9902 21.2885L15.9392 21.3191M15.2754 21.1095L15.3061 21.1607M15.2754 21.1095L15.2753 21.1095L15.3061 21.1607M15.9392 21.3191C15.8082 21.1008 15.524 21.0298 15.3061 21.1607M15.9392 21.3191C16.0029 21.4249 16.0214 21.5492 15.9915 21.6687L15.3061 21.1607M16.3814 21.0388C16.3836 21.0424 16.3858 21.046 16.388 21.0497L16.3814 21.0388ZM16.3814 21.0388C16.3657 21.051 16.3498 21.063 16.3336 21.0746C16.3347 21.0764 16.3358 21.0781 16.3369 21.0799L16.3814 21.0388ZM16.3092 20.331C16.3426 20.267 16.3687 20.1985 16.3866 20.1268L16.3092 20.331ZM16.3092 20.331C16.3258 20.3414 16.3424 20.3521 16.3587 20.3632C16.3959 20.2939 16.4249 20.2196 16.4444 20.1411C16.5082 19.8861 16.4687 19.6213 16.3332 19.3953M16.3092 20.331L16.3867 20.1267C16.4464 19.8875 16.4087 19.6372 16.2824 19.4263L16.2822 19.426C16.2822 19.426 16.2822 19.426 16.2821 19.4259L16.3332 19.3953M16.3332 19.3953C16.1979 19.1696 15.9828 19.0101 15.7274 18.9463M15.7274 18.9463L15.4904 18.9164M15.4904 18.9164C15.4925 18.9365 15.4943 18.9565 15.4956 18.9764M15.4904 18.9164C15.4891 18.9164 15.4879 18.9164 15.4867 18.9164C15.3298 18.9164 15.1756 18.9566 15.0339 19.0306M15.4904 18.9164L15.0339 19.0306M15.4956 18.9764C15.4963 18.9873 15.497 18.9982 15.4975 19.009L15.4867 19.0095L15.1986 19.0229M15.4956 18.9764C15.4926 18.9764 15.4897 18.9764 15.4867 18.9764C15.3888 18.9765 15.2916 18.9922 15.1986 19.0229M15.1986 19.0229L15.0339 19.0306M15.1986 19.0229C15.1513 19.0386 15.1052 19.0581 15.0604 19.0814C15.0442 19.0899 15.0282 19.0989 15.0124 19.1083L15.0122 19.1084L14.9792 19.1282M15.0339 19.0306L14.7694 19.2541L14.7695 19.254L14.9528 19.2999C14.9528 19.3 14.9528 19.3 14.9528 19.3C14.9671 19.243 14.9758 19.1855 14.9792 19.1282M15.0339 19.0306L14.9631 18.8949M15.0339 19.0306C15.0266 18.8725 14.9849 18.7168 14.9049 18.5778C14.8867 18.5859 14.8687 18.5943 14.8508 18.6031M14.9792 19.1282C14.9811 19.0964 14.9813 19.0647 14.9799 19.0331C14.9778 18.9865 14.9722 18.9403 14.9631 18.8949M14.9792 19.1282L14.9631 18.8949M14.9631 18.8949L14.8192 18.6192C14.8297 18.6137 14.8402 18.6084 14.8508 18.6031M14.9631 18.8949L14.8143 18.5462C14.8272 18.5648 14.8394 18.5838 14.8508 18.6031M14.9631 18.8949C14.9427 18.7928 14.9049 18.6943 14.8508 18.6031M16.0425 20.712L16.1218 20.5775C16.0874 20.6097 16.0505 20.6393 16.0112 20.6662C15.9961 20.6765 15.9806 20.6864 15.9648 20.6959L15.9646 20.696L15.9311 20.7162L16.0425 20.712ZM8.63167 18.5524L8.57891 18.5246C8.56921 18.5421 8.54507 18.5856 8.5094 18.6498C8.50057 18.6658 8.49103 18.6829 8.48083 18.7013C8.49901 18.7104 8.51736 18.7183 8.53573 18.7253C8.5671 18.6687 8.59908 18.6111 8.63167 18.5524ZM12.7786 23.823C12.7786 23.8231 12.7786 23.8231 12.7785 23.8231L12.7786 23.823Z" fill="#4CAF4F" stroke="#4CAF4F" stroke-width="0.928093"/>
<path d="M24.4805 19.3885L24.4805 19.3885L24.4805 19.3885ZM24.4805 19.3885C24.3833 19.2143 24.3872 18.9998 24.4902 18.8281L24.4805 19.3885ZM18.7389 18.9762C18.6664 18.9768 18.5935 18.986 18.5216 19.004L18.7389 18.9762ZM18.7389 18.9762C18.7403 18.9563 18.742 18.9363 18.7442 18.9163L18.7389 18.9762ZM24.0629 19.7139L24.0235 19.6429L24.0629 19.7139ZM22.9447 21.3414C22.9446 21.3414 22.9445 21.3413 22.9444 21.3413L22.9446 21.3413L22.9447 21.3414ZM21.4559 23.8234C21.4557 23.8233 21.4556 23.8233 21.4555 23.8232L21.4559 23.8234ZM21.4554 23.8231L21.4555 23.8232L21.4554 23.8231Z" fill="#4CAF4F" stroke="#4CAF4F" stroke-width="0.928093"/>
</svg>
